<?xml version="1.0" encoding="UTF-8" standalone="no"?>
<!-- Created with Inkscape (http://www.inkscape.org/) -->

<svg
   xmlns:dc="http://purl.org/dc/elements/1.1/"
   xmlns:cc="http://creativecommons.org/ns#"
   xmlns:rdf="http://www.w3.org/1999/02/22-rdf-syntax-ns#"
   xmlns:svg="http://www.w3.org/2000/svg"
   xmlns="http://www.w3.org/2000/svg"
   xmlns:sodipodi="http://sodipodi.sourceforge.net/DTD/sodipodi-0.dtd"
   xmlns:inkscape="http://www.inkscape.org/namespaces/inkscape"
   width="92.938995mm"
   height="47.585926mm"
   viewBox="0 0 92.938996 47.585926"
   version="1.1"
   id="svg8"
   inkscape:version="0.92.1 r15371"
   sodipodi:docname="logoGold.svg">
  <defs
     id="defs2" />
  <sodipodi:namedview
     id="base"
     pagecolor="#ffffff"
     bordercolor="#666666"
     borderopacity="1.0"
     inkscape:pageopacity="0.0"
     inkscape:pageshadow="2"
     inkscape:zoom="0.86"
     inkscape:cx="414.47147"
     inkscape:cy="245.1965"
     inkscape:document-units="mm"
     inkscape:current-layer="layer1"
     showgrid="false"
     inkscape:window-width="1920"
     inkscape:window-height="1017"
     inkscape:window-x="-8"
     inkscape:window-y="-8"
     inkscape:window-maximized="1"
     width="113mm"
     fit-margin-top="0.4"
     fit-margin-left="0.2"
     fit-margin-right="0.2"
     fit-margin-bottom="0.2">
    <inkscape:grid
       type="xygrid"
       id="grid4959"
       originx="-11.677302"
       originy="-16.91752" />
  </sodipodi:namedview>
  <metadata
     id="metadata5">
    <rdf:RDF>
      <cc:Work
         rdf:about="">
        <dc:format>image/svg+xml</dc:format>
        <dc:type
           rdf:resource="http://purl.org/dc/dcmitype/StillImage" />
        <dc:title></dc:title>
      </cc:Work>
    </rdf:RDF>
  </metadata>
  <g
     inkscape:label="Layer 1"
     inkscape:groupmode="layer"
     id="layer1"
     transform="translate(-11.677306,-232.49658)">
    <g
       data-name="Layer 2"
       id="Layer_2"
       transform="matrix(0.3635824,0,0,0.42707518,12.059097,233.10967)"
       style="fill:#000000;fill-opacity:0;fill-rule:nonzero;stroke:#665600;stroke-opacity:1"
       clip-path="none">
      <g
         id="napisy"
         style="fill:#000000;fill-opacity:0;fill-rule:nonzero;stroke:#665600;stroke-opacity:1">
        <path
           id="path3682"
           d="m 24.42,63.08 0.17,-4.4 h -4.68 l -1.37,4.4 h -5.35 l 7.2,-20.16 h 9.24 l 0.11,20.16 z m -1.15,-15.26 -2.21,7.11 h 3.67 L 25,47.82 Z"
           inkscape:connector-curvature="0"
           style="fill:#000000;fill-opacity:0;fill-rule:nonzero;stroke:#665600;stroke-opacity:1" />
        <path
           id="path3684"
           d="m 37.69,58.77 a 0.65,0.65 0 0 0 0.74,0.73 2.53,2.53 0 0 0 1.25,-0.28 l -0.14,3.16 a 4.67,4.67 0 0 1 -3,1.09 q -2.55,0 -3.3,-1.18 a 3,3 0 0 1 -0.48,-1.65 9.71,9.71 0 0 1 0.11,-1.57 L 35.9,41.83 h 4.76 l -2.94,16.6 a 2.06,2.06 0 0 0 -0.03,0.34 z"
           inkscape:connector-curvature="0"
           style="fill:#000000;fill-opacity:0;fill-rule:nonzero;stroke:#665600;stroke-opacity:1" />
        <path
           id="path3686"
           d="M 54.82,59.49 A 2.32,2.32 0 0 0 56,59.21 l -0.14,3.16 a 4.88,4.88 0 0 1 -3.22,1.09 3.61,3.61 0 0 1 -2.81,-1 7.4,7.4 0 0 1 -1.41,-3.39 l -0.08,-0.39 q -0.59,0.08 -1.76,0.14 l -0.76,4.26 H 41 l 3.75,-21.25 h 4.76 L 47.91,51 a 5.75,5.75 0 0 1 4.48,-1.82 3.76,3.76 0 0 1 2.81,0.94 3.45,3.45 0 0 1 0.91,2.51 q 0,3 -3.16,4.73 l 0.31,1 a 1.44,1.44 0 0 0 1.56,1.13 z M 50,53 a 3.43,3.43 0 0 0 -2.69,1.43 L 47,56.3 q 4.14,-0.17 4.14,-2.21 A 1,1 0 0 0 50.85,53.32 1.16,1.16 0 0 0 50,53 Z"
           inkscape:connector-curvature="0"
           style="fill:#000000;fill-opacity:0;fill-rule:nonzero;stroke:#665600;stroke-opacity:1" />
        <path
           id="path3688"
           d="m 71.2,58.77 a 0.65,0.65 0 0 0 0.74,0.73 2.52,2.52 0 0 0 1.25,-0.28 l -0.14,3.16 a 4.67,4.67 0 0 1 -3,1.09 q -3.08,0 -3.42,-2.24 a 4.55,4.55 0 0 1 -4.12,2.24 q -4.59,0 -4.59,-3.95 A 8.76,8.76 0 0 1 58,58 l 0.59,-3.28 a 7,7 0 0 1 2.06,-4 5.92,5.92 0 0 1 4.2,-1.5 q 2.59,0 3.51,1.2 l 0.14,-0.84 h 4.3 l -1.57,8.82 a 2.06,2.06 0 0 0 -0.03,0.37 z m -8.29,-1.34 a 3.34,3.34 0 0 0 -0.06,0.7 1.28,1.28 0 0 0 0.42,0.88 1.91,1.91 0 0 0 1.41,0.43 2.28,2.28 0 0 0 1.72,-0.78 l 0.84,-4.7 q -0.31,-0.7 -1.46,-0.7 a 2.29,2.29 0 0 0 -2.52,2.07 z"
           inkscape:connector-curvature="0"
           style="fill:#000000;fill-opacity:0;fill-rule:nonzero;stroke:#665600;stroke-opacity:1" />
        <path
           id="path3690"
           d="m 80.92,63.47 q -3.25,0 -4.68,-1.46 a 3.86,3.86 0 0 1 -1.06,-2.86 7.73,7.73 0 0 1 0.11,-1.26 l 1.9,-10.84 5.12,-2.13 -0.81,4.68 h 7.73 l -0.7,3.95 h -7.72 l -0.56,3.16 a 4.71,4.71 0 0 0 -0.11,1 q 0,1.77 1.68,1.76 a 1.84,1.84 0 0 0 1.5,-0.76 4.44,4.44 0 0 0 0.83,-2 h 4.65 q -1.19,6.76 -7.88,6.76 z"
           inkscape:connector-curvature="0"
           style="fill:#000000;fill-opacity:0;fill-rule:nonzero;stroke:#665600;stroke-opacity:1" />
        <path
           id="path3692"
           d="m 103.88,52.47 a 6.09,6.09 0 0 1 -1,3.16 l -0.31,0.39 h -4.18 a 2.09,2.09 0 0 0 0.7,-1.6 1.12,1.12 0 0 0 -0.32,-0.83 1.19,1.19 0 0 0 -0.88,-0.32 2,2 0 0 0 -1.65,1 l -1.57,8.85 h -4.76 l 2.38,-13.47 h 4.42 l -0.34,1.88 a 4.65,4.65 0 0 1 3.86,-2.27 3.83,3.83 0 0 1 2.73,0.87 3.13,3.13 0 0 1 0.92,2.34 z"
           inkscape:connector-curvature="0"
           style="fill:#000000;fill-opacity:0;fill-rule:nonzero;stroke:#665600;stroke-opacity:1" />
        <path
           id="path3694"
           d="m 117.82,58.77 a 0.65,0.65 0 0 0 0.74,0.73 2.52,2.52 0 0 0 1.25,-0.28 l -0.14,3.16 a 4.67,4.67 0 0 1 -3,1.09 q -3.08,0 -3.42,-2.24 a 4.55,4.55 0 0 1 -4.12,2.24 q -4.59,0 -4.59,-3.95 a 8.76,8.76 0 0 1 0.14,-1.48 l 0.59,-3.28 a 7,7 0 0 1 2.06,-4 5.92,5.92 0 0 1 4.2,-1.5 q 2.59,0 3.51,1.2 l 0.14,-0.84 h 4.26 l -1.57,8.82 a 2.06,2.06 0 0 0 -0.05,0.33 z m -8.29,-1.34 a 3.34,3.34 0 0 0 -0.06,0.7 1.28,1.28 0 0 0 0.42,0.88 1.91,1.91 0 0 0 1.41,0.43 2.28,2.28 0 0 0 1.72,-0.78 l 0.84,-4.7 q -0.31,-0.7 -1.46,-0.7 a 2.29,2.29 0 0 0 -2.52,2.07 z"
           inkscape:connector-curvature="0"
           style="fill:#000000;fill-opacity:0;fill-rule:nonzero;stroke:#665600;stroke-opacity:1" />
        <path
           id="path3696"
           d="m 135.55,52.52 a 2.88,2.88 0 0 1 -0.56,1.71 h -4.59 a 0.66,0.66 0 0 0 0.22,-0.56 0.71,0.71 0 0 0 -0.45,-0.63 A 2.44,2.44 0 0 0 129,52.8 q -2.1,0 -2.1,1.29 0,0.5 0.78,0.73 a 12.75,12.75 0 0 0 1.9,0.36 21.15,21.15 0 0 1 2.24,0.41 3.93,3.93 0 0 1 1.9,1 2.84,2.84 0 0 1 0.78,2.1 3.94,3.94 0 0 1 -1.86,3.53 10,10 0 0 1 -5.42,1.2 q -3.56,0 -5,-1.15 a 3,3 0 0 1 -1.12,-2.46 5.25,5.25 0 0 1 0.08,-0.92 l 4.68,-0.06 q -0.06,0.39 0.46,0.69 a 3.16,3.16 0 0 0 1.53,0.29 3.69,3.69 0 0 0 1.46,-0.21 0.8,0.8 0 0 0 0.45,-0.8 q 0,-0.39 -0.78,-0.55 Q 128.2,58.09 127.1,58 a 19,19 0 0 1 -2.27,-0.36 3.73,3.73 0 0 1 -1.92,-1.06 2.94,2.94 0 0 1 -0.78,-2.13 4.49,4.49 0 0 1 2,-3.92 9.93,9.93 0 0 1 5.7,-1.37 q 5.71,0.03 5.72,3.36 z"
           inkscape:connector-curvature="0"
           style="fill:#000000;fill-opacity:0;fill-rule:nonzero;stroke:#665600;stroke-opacity:1" />
        <path
           id="path3698"
           d="m 150.58,63.47 q -4,0 -5.49,-1.85 a 5.48,5.48 0 0 1 -1,-3.53 12.74,12.74 0 0 1 0.22,-2.27 l 1,-5.6 q 1.32,-7.5 9.18,-7.5 a 7.58,7.58 0 0 1 4.93,1.39 4.65,4.65 0 0 1 1.68,3.79 7.75,7.75 0 0 1 -0.27,2 8.36,8.36 0 0 1 -0.52,1.51 l -0.28,0.5 h -5 a 3.87,3.87 0 0 0 0.73,-2.32 q 0,-2.52 -2.1,-2.52 -2.83,0 -3.39,3.28 l -1,5.38 a 8.1,8.1 0 0 0 -0.14,1.48 q 0,1.93 2.28,1.93 a 2.81,2.81 0 0 0 2.93,-2.3 h -2.3 l 0.56,-3.11 h 7.42 l -0.45,2.41 -0.14,0.81 q -1.12,6.52 -8.85,6.52 z"
           inkscape:connector-curvature="0"
           style="fill:#000000;fill-opacity:0;fill-rule:nonzero;stroke:#665600;stroke-opacity:1" />
        <path
           id="path3700"
           d="m 174.94,58.77 a 0.65,0.65 0 0 0 0.74,0.73 2.52,2.52 0 0 0 1.25,-0.28 l -0.14,3.16 a 4.67,4.67 0 0 1 -3,1.09 q -3.08,0 -3.42,-2.24 a 4.55,4.55 0 0 1 -4.12,2.24 q -4.59,0 -4.59,-3.95 a 8.76,8.76 0 0 1 0.14,-1.48 l 0.59,-3.28 a 7,7 0 0 1 2.06,-4 5.92,5.92 0 0 1 4.2,-1.5 q 2.59,0 3.51,1.2 l 0.14,-0.84 h 4.26 L 175,58.43 a 2.06,2.06 0 0 0 -0.06,0.34 z m -8.29,-1.34 a 3.34,3.34 0 0 0 -0.06,0.7 1.28,1.28 0 0 0 0.41,0.87 1.91,1.91 0 0 0 1.41,0.43 2.28,2.28 0 0 0 1.72,-0.78 l 0.84,-4.7 q -0.31,-0.7 -1.46,-0.7 A 2.29,2.29 0 0 0 167,55.32 Z"
           inkscape:connector-curvature="0"
           style="fill:#000000;fill-opacity:0;fill-rule:nonzero;stroke:#665600;stroke-opacity:1" />
        <path
           id="path3702"
           d="m 192.24,52.47 a 6.09,6.09 0 0 1 -1,3.16 L 191,56 h -4.23 a 2.09,2.09 0 0 0 0.7,-1.6 1.12,1.12 0 0 0 -0.32,-0.83 1.19,1.19 0 0 0 -0.88,-0.32 2,2 0 0 0 -1.65,1 L 183,63.08 h -4.76 l 2.38,-13.47 h 4.42 l -0.34,1.88 a 4.65,4.65 0 0 1 3.86,-2.27 3.83,3.83 0 0 1 2.73,0.87 3.13,3.13 0 0 1 0.95,2.38 z"
           inkscape:connector-curvature="0"
           style="fill:#000000;fill-opacity:0;fill-rule:nonzero;stroke:#665600;stroke-opacity:1" />
        <path
           id="path3704"
           d="m 206.19,58.77 a 0.65,0.65 0 0 0 0.74,0.73 2.53,2.53 0 0 0 1.25,-0.28 L 208,62.38 a 4.67,4.67 0 0 1 -3,1.09 q -3.08,0 -3.42,-2.24 a 4.55,4.55 0 0 1 -4.12,2.24 q -4.59,0 -4.59,-3.95 A 8.76,8.76 0 0 1 193,58 l 0.59,-3.28 a 7,7 0 0 1 2.06,-4 5.92,5.92 0 0 1 4.2,-1.5 q 2.59,0 3.51,1.2 l 0.14,-0.84 h 4.26 l -1.57,8.82 a 2.06,2.06 0 0 0 0,0.37 z m -8.29,-1.34 a 3.42,3.42 0 0 0 -0.06,0.7 1.28,1.28 0 0 0 0.42,0.88 1.91,1.91 0 0 0 1.41,0.43 2.28,2.28 0 0 0 1.72,-0.78 l 0.84,-4.7 q -0.31,-0.7 -1.46,-0.7 a 2.29,2.29 0 0 0 -2.52,2.07 z"
           inkscape:connector-curvature="0"
           style="fill:#000000;fill-opacity:0;fill-rule:nonzero;stroke:#665600;stroke-opacity:1" />
        <path
           id="path3706"
           d="m 219.42,69.15 a 7.12,7.12 0 0 1 -5,2.07 6.37,6.37 0 0 1 -4.07,-1 3.36,3.36 0 0 1 -1.25,-2.72 q 0,-2.47 3.14,-4.28 A 3.36,3.36 0 0 1 209.86,59.61 9.48,9.48 0 0 1 210,58 l 0.56,-3.28 a 6.92,6.92 0 0 1 2.07,-4 6,6 0 0 1 4.21,-1.5 q 2.59,0 3.54,1.26 l 0.17,-0.9 h 4.17 l -2.46,13.92 a 9.77,9.77 0 0 1 -2.84,5.65 z M 215,67.22 q 1.82,0 2.38,-3.3 l 0.28,-1.62 q -3.86,1.81 -3.86,3.7 a 1.29,1.29 0 0 0 0.32,0.91 1.18,1.18 0 0 0 0.88,0.31 z m -0.2,-9.8 a 3.42,3.42 0 0 0 -0.06,0.7 1.28,1.28 0 0 0 0.42,0.88 1.91,1.91 0 0 0 1.41,0.43 2.28,2.28 0 0 0 1.72,-0.78 l 0.84,-4.7 a 1.55,1.55 0 0 0 -1.48,-0.7 2.44,2.44 0 0 0 -1.71,0.56 2.57,2.57 0 0 0 -0.78,1.51 z"
           inkscape:connector-curvature="0"
           style="fill:#000000;fill-opacity:0;fill-rule:nonzero;stroke:#665600;stroke-opacity:1" />
        <path
           id="path3708"
           d="m 231.16,63.47 q -5.82,0 -5.82,-4 a 7,7 0 0 1 0.11,-1.2 l 0.59,-3.47 a 6.19,6.19 0 0 1 2.48,-4.13 8.89,8.89 0 0 1 5.31,-1.44 q 5.63,0 5.63,4.26 a 8.94,8.94 0 0 1 -0.11,1.34 l -0.34,2 h -8.54 l -0.11,0.64 a 3.8,3.8 0 0 0 -0.06,0.62 q 0,1.54 1.82,1.54 a 1.67,1.67 0 0 0 1.15,-0.42 1.61,1.61 0 0 0 0.56,-1 l 4.65,0.06 q -0.93,5.2 -7.32,5.2 z m 3.36,-8.4 a 3.84,3.84 0 0 0 0.11,-0.88 1.28,1.28 0 0 0 -0.36,-0.83 1.46,1.46 0 0 0 -1.16,-0.42 2.26,2.26 0 0 0 -1.46,0.53 2.8,2.8 0 0 0 -0.91,1.6 z"
           inkscape:connector-curvature="0"
           style="fill:#000000;fill-opacity:0;fill-rule:nonzero;stroke:#665600;stroke-opacity:1" />
        <path
           id="path3710"
           d="m 82.65,81.48 -1.91,5.35 a 0.21,0.21 0 0 1 -0.2,0.11 0.2,0.2 0 0 1 -0.19,-0.11 l -1.91,-5.35 v 5.3 c 0,0.11 -0.06,0.16 -0.2,0.16 -0.14,0 -0.2,0 -0.2,-0.16 v -6.43 c 0,-0.17 0.32,-0.21 0.39,0 l 2.11,5.9 2.12,-5.9 c 0.06,-0.17 0.39,-0.13 0.39,0 v 6.43 a 0.19,0.19 0 0 1 -0.2,0.16 c -0.14,0 -0.2,0 -0.2,-0.16 z"
           inkscape:connector-curvature="0"
           style="fill:#000000;fill-opacity:0;fill-rule:nonzero;stroke:#665600;stroke-opacity:1" />
        <path
           id="path3712"
           d="m 84.12,82 a 1.795,1.795 0 0 1 3.59,0 v 3.17 a 1.68,1.68 0 0 1 -0.59,1.45 2.31,2.31 0 0 1 -2.41,0 1.68,1.68 0 0 1 -0.59,-1.45 z m 0.39,3.17 c 0,1 0.46,1.48 1.4,1.48 0.94,0 1.4,-0.44 1.4,-1.48 V 82 c 0,-1 -0.46,-1.47 -1.4,-1.47 -0.94,0 -1.41,0.47 -1.41,1.47 z"
           inkscape:connector-curvature="0"
           style="fill:#000000;fill-opacity:0;fill-rule:nonzero;stroke:#665600;stroke-opacity:1" />
        <path
           id="path3714"
           d="m 92.52,80.19 c 0.11,0 0.2,0.07 0.2,0.15 0,0.08 -0.06,0.16 -0.2,0.16 h -1.81 v 6.27 a 0.19,0.19 0 0 1 -0.2,0.16 c -0.14,0 -0.2,0 -0.2,-0.16 V 80.5 h -1.83 a 0.16,0.16 0 1 1 0,-0.31 z"
           inkscape:connector-curvature="0"
           style="fill:#000000;fill-opacity:0;fill-rule:nonzero;stroke:#665600;stroke-opacity:1" />
        <path
           id="path3716"
           d="m 93.47,82 a 1.795,1.795 0 0 1 3.59,0 v 3.17 a 1.68,1.68 0 0 1 -0.59,1.45 2.31,2.31 0 0 1 -2.41,0 1.68,1.68 0 0 1 -0.59,-1.45 z m 0.39,3.17 c 0,1 0.46,1.48 1.4,1.48 0.94,0 1.4,-0.44 1.4,-1.48 V 82 c 0,-1 -0.46,-1.47 -1.4,-1.47 -0.94,0 -1.4,0.47 -1.4,1.47 z"
           inkscape:connector-curvature="0"
           style="fill:#000000;fill-opacity:0;fill-rule:nonzero;stroke:#665600;stroke-opacity:1" />
        <path
           id="path3718"
           d="m 101.45,86.76 c 0,0.11 -0.06,0.16 -0.2,0.16 a 0.18,0.18 0 0 1 -0.19,-0.16 v -1.71 c 0,-0.83 -0.57,-1.29 -1.57,-1.29 h -1.12 v 3 c 0,0.11 -0.06,0.16 -0.2,0.16 a 0.18,0.18 0 0 1 -0.19,-0.16 v -6.42 a 0.18,0.18 0 0 1 0.19,-0.15 h 1.33 c 1.34,0 1.95,0.55 1.95,1.78 a 1.75,1.75 0 0 1 -0.46,1.35 1.32,1.32 0 0 1 -0.51,0.3 1.81,1.81 0 0 1 0.44,0.25 1.42,1.42 0 0 1 0.55,1.19 z M 98.37,80.5 v 3 h 1.13 c 1.09,0 1.55,-0.41 1.55,-1.49 0,-1.08 -0.45,-1.47 -1.55,-1.47 z"
           inkscape:connector-curvature="0"
           style="fill:#000000;fill-opacity:0;fill-rule:nonzero;stroke:#665600;stroke-opacity:1" />
        <path
           id="path3720"
           d="m 102.42,82 a 1.69,1.69 0 0 1 0.59,-1.45 2.37,2.37 0 0 1 2.41,0 A 1.69,1.69 0 0 1 106,82 c 0,0.11 -0.06,0.16 -0.2,0.16 -0.14,0 -0.2,-0.05 -0.2,-0.16 0,-1 -0.45,-1.47 -1.4,-1.47 -0.95,0 -1.4,0.47 -1.4,1.47 v 3.17 c 0,1 0.5,1.48 1.4,1.48 0.9,0 1.4,-0.48 1.4,-1.48 0,-0.11 0.06,-0.16 0.2,-0.16 0.14,0 0.2,0 0.2,0.16 a 1.68,1.68 0 0 1 -0.59,1.45 2.31,2.31 0 0 1 -2.41,0 1.68,1.68 0 0 1 -0.59,-1.45 z"
           inkscape:connector-curvature="0"
           style="fill:#000000;fill-opacity:0;fill-rule:nonzero;stroke:#665600;stroke-opacity:1" />
        <path
           id="path3722"
           d="m 109.35,83.59 v 3.18 a 0.21,0.21 0 0 1 -0.4,0 v -3.18 l -2.17,-3.18 a 0.14,0.14 0 0 1 0.08,-0.21 0.25,0.25 0 0 1 0.27,0.06 l 2,3 2,-3 a 0.23,0.23 0 0 1 0.26,-0.06 c 0.1,0 0.14,0.14 0.08,0.21 z"
           inkscape:connector-curvature="0"
           style="fill:#000000;fill-opacity:0;fill-rule:nonzero;stroke:#665600;stroke-opacity:1" />
        <path
           id="path3724"
           d="m 112.18,82 a 1.69,1.69 0 0 1 0.59,-1.45 2.37,2.37 0 0 1 2.41,0 1.69,1.69 0 0 1 0.59,1.45 c 0,0.11 -0.06,0.16 -0.2,0.16 -0.14,0 -0.2,-0.05 -0.2,-0.16 0,-1 -0.45,-1.47 -1.4,-1.47 -0.95,0 -1.4,0.47 -1.4,1.47 v 3.17 c 0,1 0.5,1.48 1.4,1.48 0.9,0 1.4,-0.48 1.4,-1.48 0,-0.11 0.06,-0.16 0.2,-0.16 0.14,0 0.2,0 0.2,0.16 a 1.68,1.68 0 0 1 -0.59,1.45 2.31,2.31 0 0 1 -2.41,0 1.68,1.68 0 0 1 -0.59,-1.45 z"
           inkscape:connector-curvature="0"
           style="fill:#000000;fill-opacity:0;fill-rule:nonzero;stroke:#665600;stroke-opacity:1" />
        <path
           id="path3726"
           d="m 116.74,86.93 c -0.14,0 -0.2,0 -0.2,-0.16 v -6.42 a 0.18,0.18 0 0 1 0.2,-0.15 0.18,0.18 0 0 1 0.19,0.15 v 6.28 h 2.64 c 0.11,0 0.2,0.07 0.2,0.15 0,0.08 -0.06,0.16 -0.2,0.16 z"
           inkscape:connector-curvature="0"
           style="fill:#000000;fill-opacity:0;fill-rule:nonzero;stroke:#665600;stroke-opacity:1" />
        <path
           id="path3728"
           d="m 120.82,83.71 v 2.91 h 2.44 c 0.11,0 0.2,0.07 0.2,0.15 0,0.08 -0.06,0.16 -0.2,0.16 h -2.62 c -0.14,0 -0.2,0 -0.2,-0.16 v -6.42 a 0.18,0.18 0 0 1 0.2,-0.15 h 2.62 a 0.18,0.18 0 0 1 0.2,0.15 c 0,0.11 -0.06,0.16 -0.2,0.16 h -2.44 v 2.9 h 2.44 c 0.14,0 0.2,0 0.2,0.16 a 0.18,0.18 0 0 1 -0.2,0.15 z"
           inkscape:connector-curvature="0"
           style="fill:#000000;fill-opacity:0;fill-rule:nonzero;stroke:#665600;stroke-opacity:1" />
        <path
           id="path3730"
           d="m 131.77,81.48 -1.91,5.35 a 0.21,0.21 0 0 1 -0.2,0.11 0.2,0.2 0 0 1 -0.19,-0.11 l -1.91,-5.35 v 5.3 c 0,0.11 -0.06,0.16 -0.2,0.16 -0.14,0 -0.2,0 -0.2,-0.16 v -6.43 c 0,-0.17 0.32,-0.21 0.39,0 l 2.11,5.9 2.12,-5.9 c 0.06,-0.17 0.39,-0.13 0.39,0 v 6.43 a 0.19,0.19 0 0 1 -0.2,0.16 c -0.14,0 -0.2,0 -0.2,-0.16 z"
           inkscape:connector-curvature="0"
           style="fill:#000000;fill-opacity:0;fill-rule:nonzero;stroke:#665600;stroke-opacity:1" />
        <path
           id="path3732"
           d="m 137.38,86.74 c 0,0.08 -0.05,0.16 -0.15,0.19 v 0 a 0.17,0.17 0 0 1 -0.19,-0.12 l -0.56,-1.94 h -2.21 l -0.56,1.94 a 0.21,0.21 0 0 1 -0.24,0.12 c -0.11,0 -0.19,-0.11 -0.15,-0.19 l 1.86,-6.43 a 0.17,0.17 0 0 1 0.19,-0.12 c 0.11,0 0.17,0 0.2,0.12 z m -2.06,-5.74 -1,3.52 h 2 z"
           inkscape:connector-curvature="0"
           style="fill:#000000;fill-opacity:0;fill-rule:nonzero;stroke:#665600;stroke-opacity:1" />
        <path
           id="path3734"
           d="m 141.69,86.93 a 0.17,0.17 0 0 1 -0.17,-0.1 l -2.86,-5.67 v 5.61 c 0,0.11 -0.06,0.16 -0.2,0.16 -0.14,0 -0.2,0 -0.2,-0.16 v -6.42 c 0,-0.17 0.3,-0.21 0.39,-0.05 l 2.84,5.7 v -5.65 a 0.21,0.21 0 0 1 0.4,0 v 6.43 c 0,0.09 0,0.14 -0.16,0.16 z"
           inkscape:connector-curvature="0"
           style="fill:#000000;fill-opacity:0;fill-rule:nonzero;stroke:#665600;stroke-opacity:1" />
        <path
           id="path3736"
           d="m 142.87,80.34 c 0,-0.08 0.09,-0.15 0.2,-0.15 a 0.18,0.18 0 0 1 0.19,0.15 v 4.94 a 1.29,1.29 0 0 0 0.44,1.12 1.73,1.73 0 0 0 1.69,0 1.29,1.29 0 0 0 0.44,-1.12 v -4.94 a 0.18,0.18 0 0 1 0.19,-0.15 c 0.11,0 0.2,0.07 0.2,0.15 v 4.94 a 1.53,1.53 0 0 1 -0.54,1.33 1.82,1.82 0 0 1 -1.12,0.32 1.78,1.78 0 0 1 -1.11,-0.32 1.53,1.53 0 0 1 -0.56,-1.33 z"
           inkscape:connector-curvature="0"
           style="fill:#000000;fill-opacity:0;fill-rule:nonzero;stroke:#665600;stroke-opacity:1" />
        <path
           id="path3738"
           d="m 147.8,83.4 h 2.44 c 0.14,0 0.2,0 0.2,0.16 a 0.18,0.18 0 0 1 -0.2,0.15 h -2.44 v 3.06 a 0.18,0.18 0 0 1 -0.19,0.16 c -0.14,0 -0.2,0 -0.2,-0.16 v -6.42 a 0.18,0.18 0 0 1 0.2,-0.15 h 2.62 a 0.18,0.18 0 0 1 0.2,0.15 c 0,0.11 -0.06,0.16 -0.2,0.16 h -2.43 z"
           inkscape:connector-curvature="0"
           style="fill:#000000;fill-opacity:0;fill-rule:nonzero;stroke:#665600;stroke-opacity:1" />
        <path
           id="path3740"
           d="m 155.48,86.74 c 0,0.08 -0.05,0.16 -0.15,0.19 v 0 a 0.17,0.17 0 0 1 -0.19,-0.12 l -0.56,-1.94 h -2.21 l -0.56,1.94 a 0.21,0.21 0 0 1 -0.24,0.12 c -0.11,0 -0.19,-0.11 -0.15,-0.19 l 1.86,-6.43 a 0.17,0.17 0 0 1 0.19,-0.12 c 0.11,0 0.17,0 0.2,0.12 z m -2.06,-5.74 -1,3.52 h 2 z"
           inkscape:connector-curvature="0"
           style="fill:#000000;fill-opacity:0;fill-rule:nonzero;stroke:#665600;stroke-opacity:1" />
        <path
           id="path3742"
           d="m 156.35,82 a 1.69,1.69 0 0 1 0.59,-1.45 2.37,2.37 0 0 1 2.41,0 1.69,1.69 0 0 1 0.59,1.45 c 0,0.11 -0.06,0.16 -0.2,0.16 -0.14,0 -0.2,-0.05 -0.2,-0.16 0,-1 -0.45,-1.47 -1.4,-1.47 -0.95,0 -1.4,0.47 -1.4,1.47 v 3.17 c 0,1 0.5,1.48 1.4,1.48 0.9,0 1.4,-0.48 1.4,-1.48 0,-0.11 0.06,-0.16 0.2,-0.16 0.14,0 0.2,0 0.2,0.16 a 1.68,1.68 0 0 1 -0.59,1.45 2.31,2.31 0 0 1 -2.41,0 1.68,1.68 0 0 1 -0.59,-1.45 z"
           inkscape:connector-curvature="0"
           style="fill:#000000;fill-opacity:0;fill-rule:nonzero;stroke:#665600;stroke-opacity:1" />
        <path
           id="path3744"
           d="m 164.7,80.19 c 0.11,0 0.2,0.07 0.2,0.15 0,0.08 -0.06,0.16 -0.2,0.16 h -1.81 v 6.27 a 0.19,0.19 0 0 1 -0.2,0.16 c -0.14,0 -0.2,0 -0.2,-0.16 V 80.5 h -1.82 a 0.16,0.16 0 1 1 0,-0.31 z"
           inkscape:connector-curvature="0"
           style="fill:#000000;fill-opacity:0;fill-rule:nonzero;stroke:#665600;stroke-opacity:1" />
        <path
           id="path3746"
           d="m 165.64,80.34 c 0,-0.08 0.09,-0.15 0.2,-0.15 a 0.18,0.18 0 0 1 0.19,0.15 v 4.94 a 1.29,1.29 0 0 0 0.44,1.12 1.73,1.73 0 0 0 1.69,0 1.29,1.29 0 0 0 0.44,-1.12 v -4.94 a 0.18,0.18 0 0 1 0.19,-0.15 c 0.11,0 0.2,0.07 0.2,0.15 v 4.94 a 1.53,1.53 0 0 1 -0.54,1.33 1.82,1.82 0 0 1 -1.12,0.32 1.78,1.78 0 0 1 -1.11,-0.32 1.53,1.53 0 0 1 -0.56,-1.33 z"
           inkscape:connector-curvature="0"
           style="fill:#000000;fill-opacity:0;fill-rule:nonzero;stroke:#665600;stroke-opacity:1" />
        <path
           id="path3748"
           d="m 173.64,86.76 c 0,0.11 -0.06,0.16 -0.2,0.16 a 0.18,0.18 0 0 1 -0.19,-0.16 v -1.71 c 0,-0.83 -0.57,-1.29 -1.57,-1.29 h -1.12 v 3 c 0,0.11 -0.06,0.16 -0.2,0.16 a 0.18,0.18 0 0 1 -0.19,-0.16 v -6.42 a 0.18,0.18 0 0 1 0.19,-0.15 h 1.33 c 1.34,0 1.95,0.55 1.95,1.78 a 1.75,1.75 0 0 1 -0.46,1.35 1.32,1.32 0 0 1 -0.51,0.3 1.81,1.81 0 0 1 0.44,0.25 1.42,1.42 0 0 1 0.55,1.19 z m -3.09,-6.27 v 3 h 1.13 c 1.09,0 1.55,-0.41 1.55,-1.49 0,-1.08 -0.45,-1.47 -1.55,-1.47 z"
           inkscape:connector-curvature="0"
           style="fill:#000000;fill-opacity:0;fill-rule:nonzero;stroke:#665600;stroke-opacity:1" />
        <path
           id="path3750"
           d="m 175,83.71 v 2.91 h 2.44 c 0.11,0 0.2,0.07 0.2,0.15 0,0.08 -0.06,0.16 -0.2,0.16 h -2.62 c -0.14,0 -0.2,0 -0.2,-0.16 v -6.42 a 0.18,0.18 0 0 1 0.2,-0.15 h 2.62 a 0.18,0.18 0 0 1 0.2,0.15 c 0,0.11 -0.06,0.16 -0.2,0.16 H 175 v 2.9 h 2.44 c 0.14,0 0.2,0 0.2,0.16 a 0.18,0.18 0 0 1 -0.2,0.15 z"
           inkscape:connector-curvature="0"
           style="fill:#000000;fill-opacity:0;fill-rule:nonzero;stroke:#665600;stroke-opacity:1" />
        <path
           id="path3752"
           d="M 220.1,31.27 C 218.7,25.69 208.22,21.89 201.79,20.06 L 135.84,1.27 a 33.12,33.12 0 0 0 -18.16,0 L 51.73,20.05 c -0.57,0.16 -1.24,0.34 -2,0.53 -5.82,1.51 -15.33,4 -16.39,10.68 H 0 v 2.5 h 253.52 v -2.5 z M 51,25.42 c 0.78,-0.2 1.49,-0.39 2.1,-0.56 L 119,6.08 a 28.14,28.14 0 0 1 15.42,0 l 65.94,18.79 c 7.39,2.11 12.21,4.69 14,6.4 H 38.6 c 1.6,-3.04 8.75,-4.9 12.4,-5.85 z"
           inkscape:connector-curvature="0"
           style="fill:#000000;fill-opacity:0;fill-rule:nonzero;stroke:#665600;stroke-opacity:1" />
        <path
           id="path3754"
           d="M 253.52,74.75 H 0 v 2.5 h 33.3 c 0.65,7.08 10.49,9.64 16.46,11.18 0.74,0.19 1.41,0.36 2,0.53 l 65.94,18.79 a 33.12,33.12 0 0 0 18.16,0 L 201.79,89 c 6.62,-1.89 17.54,-5.86 18.41,-11.71 h 33.32 z m -53.1,9.4 -65.94,18.79 a 28.13,28.13 0 0 1 -15.42,0 L 53.1,84.15 c -0.6,-0.17 -1.31,-0.36 -2.1,-0.56 -3.86,-1 -11.59,-3 -12.63,-6.34 h 176.54 c -1.31,1.67 -6.34,4.58 -14.49,6.9 z"
           inkscape:connector-curvature="0"
           style="fill:#000000;fill-opacity:0;fill-rule:nonzero;stroke:#665600;stroke-opacity:1" />
        <path
           id="path3756"
           d="m 86.36,21.6 c 0,-1.54 0.64,-2.35 1.91,-2.35 1.27,0 1.91,0.81 1.91,2.35 0,0.15 -0.07,0.21 -0.21,0.21 -0.14,0 -0.21,-0.07 -0.21,-0.21 a 2.1,2.1 0 0 0 -0.5,-1.62 1.67,1.67 0 0 0 -2,0 2.1,2.1 0 0 0 -0.52,1.62 v 4.24 c 0,1.33 0.53,2 1.5,2 0.97,0 1.49,-0.58 1.49,-2 V 24.67 H 88 c -0.15,0 -0.21,-0.07 -0.21,-0.21 0,-0.14 0.07,-0.21 0.21,-0.21 h 2 c 0.15,0 0.21,0.07 0.21,0.21 v 1.38 c 0,1.54 -0.65,2.37 -1.91,2.37 -1.26,0 -1.91,-0.82 -1.91,-2.37 z"
           inkscape:connector-curvature="0"
           style="fill:#000000;fill-opacity:0;fill-rule:nonzero;stroke:#665600;stroke-opacity:1" />
        <path
           id="path3758"
           d="m 91.33,28.21 c -0.16,0 -0.23,-0.07 -0.23,-0.23 V 18.9 a 0.22,0.22 0 0 1 0.23,-0.21 h 1.4 c 1.51,0 2.2,0.88 2.2,2.57 v 4.38 c 0,1.69 -0.69,2.57 -2.2,2.57 z m 0.21,-9.08 v 8.64 h 1.19 c 1.23,0 1.75,-0.66 1.75,-2.13 v -4.38 c 0,-1.47 -0.52,-2.13 -1.75,-2.13 z"
           inkscape:connector-curvature="0"
           style="fill:#000000;fill-opacity:0;fill-rule:nonzero;stroke:#665600;stroke-opacity:1" />
        <path
           id="path3760"
           d="m 101,27.92 c 0,0.12 -0.06,0.24 -0.18,0.28 h -0.06 a 0.21,0.21 0 0 1 -0.22,-0.18 l -0.67,-2.9 H 97.18 L 96.51,28 c 0,0.12 -0.16,0.22 -0.28,0.18 A 0.23,0.23 0 0 1 96.05,27.9 l 2.23,-9.6 a 0.21,0.21 0 0 1 0.22,-0.18 0.22,0.22 0 0 1 0.24,0.18 z m -2.5,-8.51 -1.21,5.26 h 2.44 z"
           inkscape:connector-curvature="0"
           style="fill:#000000;fill-opacity:0;fill-rule:nonzero;stroke:#665600;stroke-opacity:1" />
        <path
           id="path3762"
           d="m 106.38,28.21 a 0.21,0.21 0 0 1 -0.23,-0.16 l -3.75,-9.29 v 9.19 c 0,0.18 -0.08,0.26 -0.26,0.26 a 0.23,0.23 0 0 1 -0.26,-0.26 V 17.41 a 0.26,0.26 0 0 1 0.51,-0.08 l 3.74,9.29 v -9.21 a 0.26,0.26 0 0 1 0.52,0 v 10.53 a 0.24,0.24 0 0 1 -0.21,0.26 z"
           inkscape:connector-curvature="0"
           style="fill:#000000;fill-opacity:0;fill-rule:nonzero;stroke:#665600;stroke-opacity:1" />
        <path
           id="path3764"
           d="m 110.56,22.45 -0.31,-0.15 a 4,4 0 0 1 -1.45,-0.92 3,3 0 0 1 -0.93,-2.27 c 0,-1.85 0.93,-3.28 2.64,-3.28 1.71,0 2.66,1.14 2.66,3.28 a 0.295,0.295 0 1 1 -0.59,0 c 0,-1.85 -0.68,-2.71 -2.07,-2.71 -1.39,0 -2.07,1.12 -2.07,2.71 a 2.4,2.4 0 0 0 0.77,1.87 4,4 0 0 0 1.28,0.79 l 0.29,0.13 a 5.11,5.11 0 0 1 1.43,0.86 2.92,2.92 0 0 1 1,2.25 3.72,3.72 0 0 1 -0.66,2.24 2.36,2.36 0 0 1 -2,0.93 c -1.76,0 -2.64,-1.14 -2.64,-3.26 0,-0.2 0.09,-0.29 0.29,-0.29 a 0.29,0.29 0 0 1 0.27,0.29 2.89,2.89 0 0 0 0.71,2.24 1.89,1.89 0 0 0 1.36,0.46 c 1.32,0 2.07,-1 2.07,-2.6 a 2.39,2.39 0 0 0 -0.77,-1.85 3.05,3.05 0 0 0 -0.68,-0.44 z"
           inkscape:connector-curvature="0"
           style="fill:#000000;fill-opacity:0;fill-rule:nonzero;stroke:#665600;stroke-opacity:1" />
        <path
           id="path3766"
           d="m 116.39,21.53 3.5,6.25 a 0.29,0.29 0 0 1 -0.11,0.38 h -0.15 a 0.29,0.29 0 0 1 -0.26,-0.15 l -3.35,-6 -1.25,1.87 v 4 a 0.29,0.29 0 0 1 -0.28,0.29 0.25,0.25 0 0 1 -0.29,-0.29 V 16.13 a 0.29,0.29 0 0 1 0.29,-0.27 0.28,0.28 0 0 1 0.28,0.27 v 6.74 L 119.39,16 a 0.3,0.3 0 0 1 0.4,-0.09 0.29,0.29 0 0 1 0.07,0.4 z"
           inkscape:connector-curvature="0"
           style="fill:#000000;fill-opacity:0;fill-rule:nonzero;stroke:#665600;stroke-opacity:1" />
        <path
           id="path3768"
           d="m 134.15,16.13 a 0.29,0.29 0 0 1 0.29,-0.27 h 1.94 c 2,0 2.86,1 2.86,3.23 0,2.23 -0.88,3.23 -2.86,3.23 h -1.65 v 5.61 a 0.25,0.25 0 0 1 -0.29,0.29 c -0.2,0 -0.29,-0.09 -0.29,-0.29 z m 0.59,0.29 v 5.31 h 1.65 c 1.59,0 2.27,-0.75 2.27,-2.66 0,-1.91 -0.66,-2.66 -2.27,-2.66 z"
           inkscape:connector-curvature="0"
           style="fill:#000000;fill-opacity:0;fill-rule:nonzero;stroke:#665600;stroke-opacity:1" />
        <path
           id="path3770"
           d="m 140.38,19.12 c 0,-2.11 0.88,-3.26 2.62,-3.26 1.74,0 2.64,1.14 2.64,3.26 v 5.81 a 3.46,3.46 0 0 1 -0.86,2.66 2.82,2.82 0 0 1 -3.54,0 3.46,3.46 0 0 1 -0.86,-2.66 z m 0.57,5.81 c 0,1.85 0.68,2.71 2.05,2.71 1.37,0 2.05,-0.81 2.05,-2.71 v -5.81 c 0,-1.89 -0.68,-2.69 -2.05,-2.69 -1.37,0 -2.05,0.86 -2.05,2.69 z"
           inkscape:connector-curvature="0"
           style="fill:#000000;fill-opacity:0;fill-rule:nonzero;stroke:#665600;stroke-opacity:1" />
        <path
           id="path3772"
           d="m 146.94,28.21 a 0.24,0.24 0 0 1 -0.28,-0.28 V 16.76 a 0.27,0.27 0 0 1 0.28,-0.26 0.27,0.27 0 0 1 0.26,0.26 v 10.91 h 3.66 a 0.27,0.27 0 0 1 0.28,0.26 c 0,0.19 -0.09,0.28 -0.28,0.28 z"
           inkscape:connector-curvature="0"
           style="fill:#000000;fill-opacity:0;fill-rule:nonzero;stroke:#665600;stroke-opacity:1" />
        <path
           id="path3774"
           d="m 156.81,27.92 c 0,0.12 -0.06,0.24 -0.18,0.28 h -0.06 a 0.21,0.21 0 0 1 -0.22,-0.18 l -0.67,-2.9 H 153 l -0.67,2.9 c 0,0.12 -0.16,0.22 -0.28,0.18 a 0.23,0.23 0 0 1 -0.18,-0.28 l 2.23,-9.6 a 0.21,0.21 0 0 1 0.22,-0.18 0.22,0.22 0 0 1 0.24,0.18 z m -2.46,-8.51 -1.21,5.26 h 2.43 z"
           inkscape:connector-curvature="0"
           style="fill:#000000;fill-opacity:0;fill-rule:nonzero;stroke:#665600;stroke-opacity:1" />
        <path
           id="path3776"
           d="m 161.58,28.21 a 0.18,0.18 0 0 1 -0.2,-0.14 l -3.23,-8 V 28 c 0,0.16 -0.07,0.23 -0.23,0.23 -0.16,0 -0.23,-0.07 -0.23,-0.23 v -9.1 a 0.23,0.23 0 0 1 0.44,-0.07 l 3.22,8 V 18.9 a 0.23,0.23 0 0 1 0.45,0 V 28 a 0.2,0.2 0 0 1 -0.18,0.23 z"
           inkscape:connector-curvature="0"
           style="fill:#000000;fill-opacity:0;fill-rule:nonzero;stroke:#665600;stroke-opacity:1" />
        <path
           id="path3778"
           d="m 163,28.21 c -0.15,0 -0.21,-0.07 -0.21,-0.21 v -8.55 a 0.21,0.21 0 0 1 0.21,-0.2 h 1.32 c 1.42,0 2.07,0.82 2.07,2.42 v 4.12 c 0,1.59 -0.65,2.42 -2.07,2.42 z m 0.2,-8.55 v 8.13 h 1.12 c 1.16,0 1.65,-0.62 1.65,-2 v -4.12 c 0,-1.38 -0.49,-2 -1.65,-2 z"
           inkscape:connector-curvature="0"
           style="fill:#000000;fill-opacity:0;fill-rule:nonzero;stroke:#665600;stroke-opacity:1" />
        <polygon
           id="polygon3780"
           points="129.17,20.91 127.78,22.27 128.11,24.19 126.38,23.28 124.66,24.19 124.99,22.27 123.59,20.91 125.52,20.63 126.38,18.88 127.24,20.63 "
           style="fill:#000000;fill-opacity:0;fill-rule:nonzero;stroke:#665600;stroke-opacity:1" />
        <rect
           id="rect3782"
           height="0.5"
           width="54.75"
           y="91.25"
           x="99.790001"
           style="fill:#000000;fill-opacity:0;fill-rule:nonzero;stroke:#665600;stroke-opacity:1" />
        <rect
           id="rect3784"
           height="0.5"
           width="38"
           y="94.589996"
           x="108.17"
           style="fill:#000000;fill-opacity:0;fill-rule:nonzero;stroke:#665600;stroke-opacity:1" />
        <rect
           id="rect3786"
           height="0.5"
           width="22.25"
           y="97.919998"
           x="116.04"
           style="fill:#000000;fill-opacity:0;fill-rule:nonzero;stroke:#665600;stroke-opacity:1" />
      </g>
    </g>
    <path
       style="fill:#000000;fill-opacity:0;fill-rule:nonzero;stroke:#665600;stroke-width:0.07696329;stroke-opacity:1"
       d="m 65.718919,260.01562 c -0.470678,-0.17287 -0.790649,-0.44874 -0.994603,-0.85754 -0.303618,-0.60857 -0.302014,-1.30457 0.0077,-3.3339 0.329843,-2.16129 0.465363,-2.61519 0.99704,-3.33931 0.345223,-0.4702 1.115777,-0.90923 1.813174,-1.03308 1.402159,-0.24905 2.496066,0.2202 2.894108,1.24147 0.155003,0.39769 0.173365,0.53606 0.13957,1.05158 -0.0214,0.32651 -0.09854,0.78133 -0.171421,1.01071 l -0.132498,0.41706 -0.876258,0.0234 c -0.816835,0.022 -0.872717,0.0129 -0.824074,-0.1251 0.21888,-0.62339 0.172847,-1.30106 -0.112627,-1.65799 -0.223428,-0.27936 -0.856994,-0.28608 -1.208109,-0.0129 -0.359291,0.27965 -0.527995,0.78874 -0.769226,2.32124 -0.281609,1.789 -0.2829,2.09833 -0.01016,2.41876 0.182086,0.21389 0.258379,0.24375 0.621356,0.24328 0.461552,-4.5e-4 0.73117,-0.15706 0.953624,-0.55343 0.215223,-0.38345 0.178861,-0.44698 -0.255791,-0.44698 -0.438203,0 -0.424249,0.0323 -0.312264,-0.72304 l 0.0783,-0.52817 h 1.306436 c 1.073936,0 1.306433,0.0208 1.306433,0.11703 0,0.30614 -0.287814,1.74568 -0.418293,2.09217 -0.317135,0.84213 -0.91613,1.41409 -1.744742,1.66596 -0.519795,0.15802 -1.867122,0.16303 -2.287709,0.008 z"
       id="path4658"
       inkscape:connector-curvature="0"
       clip-path="none" />
    <path
       style="fill:#000000;fill-opacity:0;fill-rule:nonzero;stroke:#665600;stroke-width:0.05837808;stroke-opacity:1"
       d="m 65.715834,259.9861 c -0.881166,-0.33665 -1.248942,-1.04044 -1.180912,-2.25981 0.08196,-1.46889 0.515194,-3.86889 0.822354,-4.55549 0.454083,-1.01502 1.40009,-1.64303 2.62836,-1.74485 1.1434,-0.0947 2.071669,0.39885 2.431878,1.29323 0.133472,0.33143 0.141997,0.40196 0.1162,0.96187 -0.01622,0.35164 -0.07515,0.77879 -0.141023,1.02185 l -0.113176,0.41763 -0.745042,0.0433 c -0.833171,0.0484 -0.951908,0.0252 -0.898528,-0.17551 0.01953,-0.0734 0.04723,-0.34717 0.06152,-0.60816 0.02072,-0.37826 0.0062,-0.51854 -0.07159,-0.69148 -0.195752,-0.43522 -0.604279,-0.60217 -1.094624,-0.44733 -0.54116,0.17087 -0.791615,0.76073 -1.074597,2.53075 -0.221255,1.38393 -0.250071,1.87239 -0.126659,2.1467 0.196991,0.43785 0.530162,0.57834 1.063252,0.44834 0.241417,-0.0589 0.355992,-0.12978 0.519068,-0.32134 0.235103,-0.27617 0.323053,-0.54728 0.20583,-0.63449 -0.04105,-0.0305 -0.202634,-0.056 -0.359095,-0.0565 -0.192427,-8.5e-4 -0.293765,-0.0294 -0.31318,-0.0888 -0.02611,-0.0799 0.05164,-0.73374 0.119306,-1.00355 0.02529,-0.10088 0.127619,-0.11073 1.148551,-0.11073 0.616432,0 1.192509,0.0168 1.280176,0.0374 l 0.159396,0.0375 -0.0476,0.35798 c -0.08249,0.62035 -0.311936,1.59679 -0.450919,1.91896 -0.265893,0.61634 -0.737346,1.08333 -1.395791,1.38256 -0.288512,0.13107 -0.430088,0.14899 -1.319667,0.16679 -0.736844,0.0145 -1.055629,-0.003 -1.223468,-0.0668 z"
       id="path4660"
       inkscape:connector-curvature="0"
       clip-path="none" />
    <path
       style="fill:#000000;fill-opacity:0;fill-rule:nonzero;stroke:#665600;stroke-width:0.05837808;stroke-opacity:1"
       d="m 71.948655,260.11723 c -0.74399,-0.20373 -1.077283,-0.69718 -1.077283,-1.59491 0,-0.6096 0.301054,-2.3983 0.478862,-2.84511 0.2154,-0.54128 0.587491,-0.99857 1.012547,-1.24436 0.624345,-0.36105 1.640197,-0.32499 2.110129,0.0749 l 0.216064,0.18385 0.01683,-0.17152 0.01683,-0.17152 0.740632,-0.0176 c 0.57327,-0.0129 0.74055,8.4e-4 0.740278,0.0633 -1.93e-4,0.0445 -0.121227,0.87808 -0.268968,1.85244 -0.28558,1.88343 -0.306675,2.11364 -0.204684,2.23344 0.07903,0.0928 0.309526,0.0981 0.503306,0.0113 l 0.144042,-0.0644 -0.03757,0.64958 c -0.04151,0.71776 -0.04705,0.72928 -0.458959,0.95457 -0.354031,0.19361 -1.01173,0.18874 -1.358038,-0.01 -0.250123,-0.14366 -0.473339,-0.45775 -0.473339,-0.66619 0,-0.1514 -0.025,-0.13397 -0.296045,0.20629 -0.142928,0.17949 -0.360826,0.36733 -0.518597,0.44705 -0.336428,0.17001 -0.890989,0.21686 -1.286057,0.10864 z m 1.86036,-1.81959 c 0.113244,-0.133 0.157496,-0.31224 0.287237,-1.16337 l 0.153368,-1.00613 -0.124621,-0.1464 c -0.162523,-0.19091 -0.655881,-0.20589 -0.938316,-0.0286 -0.269356,0.16917 -0.381654,0.44253 -0.494591,1.20394 -0.121973,0.82227 -0.09736,1.04423 0.134776,1.21545 0.253021,0.18661 0.794634,0.14527 0.982147,-0.0751 z"
       id="path4662"
       inkscape:connector-curvature="0"
       clip-path="none" />
    <path
       style="fill:#000000;fill-opacity:0;fill-rule:nonzero;stroke:#665600;stroke-width:0.05837808;stroke-opacity:1"
       d="m 76.905629,259.96378 c 7.94e-4,-0.0261 0.190328,-1.30021 0.421143,-2.83135 l 0.419658,-2.7839 0.785448,-0.0174 0.785447,-0.0174 -0.04723,0.2389 c -0.02596,0.1314 -0.04781,0.30811 -0.04851,0.39268 -0.0011,0.14204 0.01318,0.13381 0.189498,-0.10799 0.111088,-0.15237 0.334176,-0.34473 0.534016,-0.46029 0.732801,-0.42376 1.555877,-0.19226 1.867498,0.52523 0.170185,0.39183 0.12564,1.07142 -0.107847,1.64513 l -0.173802,0.42707 h -0.721664 -0.721667 l 0.07805,-0.21941 c 0.236165,-0.66393 -0.153834,-1.1264 -0.695341,-0.82455 -0.09364,0.0521 -0.202858,0.15625 -0.242731,0.23124 -0.03988,0.0751 -0.178914,0.82239 -0.30897,1.66087 -0.130064,0.83847 -0.262538,1.67398 -0.294402,1.85667 l -0.05794,0.33217 h -0.831072 c -0.457094,0 -0.830408,-0.0213 -0.829593,-0.0475 z"
       id="path4664"
       inkscape:connector-curvature="0"
       clip-path="none" />
    <path
       style="fill:#000000;fill-opacity:0;fill-rule:nonzero;stroke:#665600;stroke-width:0.05837808;stroke-opacity:1"
       d="m 57.917068,260.13747 c -0.296251,-0.0226 -0.673502,-0.088 -0.838332,-0.14527 -0.614712,-0.21379 -0.966113,-0.7056 -0.966113,-1.3521 v -0.31883 l 0.82033,-0.0342 c 0.776859,-0.0323 0.824339,-0.0274 0.8958,0.0923 0.171752,0.28805 0.832067,0.4023 1.22119,0.21133 0.162319,-0.0797 0.186793,-0.12042 0.186793,-0.31145 0,-0.19252 -0.02172,-0.22777 -0.175057,-0.28435 -0.09629,-0.0355 -0.39733,-0.0949 -0.668996,-0.1322 -0.934556,-0.12784 -1.198917,-0.21284 -1.500002,-0.48259 -0.511448,-0.45823 -0.536019,-1.51646 -0.05248,-2.26032 0.143785,-0.2212 0.296899,-0.35385 0.633251,-0.54863 0.625205,-0.36207 1.092081,-0.46486 1.924878,-0.42381 1.019728,0.0502 1.565026,0.30196 1.796682,0.82931 0.126093,0.28705 0.142952,0.74128 0.03852,1.03745 l -0.07076,0.20065 h -0.801426 c -0.794956,0 -0.801433,-0.001 -0.802253,-0.14237 -0.0019,-0.29603 -0.190977,-0.42708 -0.6168,-0.42708 -0.384593,0 -0.659339,0.13284 -0.730692,0.35328 -0.131286,0.40565 0.04102,0.5261 1.029859,0.71998 0.784516,0.15382 0.974066,0.21968 1.251474,0.43489 0.428744,0.33261 0.557993,1.07945 0.305927,1.7677 -0.198694,0.54255 -0.580358,0.85992 -1.302329,1.08299 -0.491837,0.15205 -0.890236,0.18553 -1.579467,0.13301 z"
       id="path4666"
       inkscape:connector-curvature="0"
       clip-path="none" />
    <path
       style="fill:#000000;fill-opacity:0;fill-rule:nonzero;stroke:#665600;stroke-width:0.05837808;stroke-opacity:1"
       d="m 51.218085,260.13685 c -0.873582,-0.21649 -1.228246,-0.89702 -1.087067,-2.08586 0.275236,-2.31772 0.614741,-3.13888 1.49878,-3.62511 0.653312,-0.35932 1.682115,-0.30351 2.104724,0.11412 l 0.160673,0.15883 0.0357,-0.19098 0.0357,-0.19099 h 0.750842 0.750846 l -0.02786,0.14237 c -0.06185,0.31606 -0.566417,3.69296 -0.566555,3.7917 -2.65e-4,0.21704 0.163407,0.32241 0.440915,0.2838 l 0.259173,-0.036 v 0.58828 c 0,0.66866 -0.01347,0.69618 -0.459812,0.93733 -0.21142,0.11428 -0.35751,0.1435 -0.698267,0.13962 -0.6003,-0.006 -0.979371,-0.2462 -1.106654,-0.69923 l -0.05943,-0.21153 -0.251849,0.30223 c -0.336508,0.40381 -0.683786,0.58784 -1.163905,0.61678 -0.209375,0.0129 -0.486563,-0.003 -0.615976,-0.0353 z m 1.814799,-1.81606 c 0.125997,-0.11057 0.155887,-0.22356 0.290491,-1.09867 0.08252,-0.5365 0.138472,-1.03466 0.124333,-1.10699 -0.05917,-0.3027 -0.734235,-0.39053 -1.054293,-0.1372 -0.254752,0.20165 -0.365681,0.46117 -0.456647,1.06835 -0.118372,0.79011 -0.106484,1.07813 0.05174,1.25274 0.242425,0.26752 0.752023,0.27813 1.044379,0.0218 z"
       id="path4668"
       inkscape:connector-curvature="0"
       clip-path="none" />
    <path
       style="fill:#000000;fill-opacity:0;fill-rule:nonzero;stroke:#665600;stroke-width:0.05837808;stroke-opacity:1"
       d="m 44.812004,259.83724 c 0.01265,-0.0957 0.20329,-1.37689 0.423564,-2.84708 l 0.400492,-2.67307 0.773681,-1e-4 0.773679,-1e-4 -0.0361,0.30054 c -0.01987,0.16529 -0.04979,0.35516 -0.06648,0.42192 -0.01691,0.0676 0.09797,-0.0331 0.259085,-0.22687 0.725898,-0.87334 1.91765,-0.83872 2.320653,0.0675 0.08479,0.19065 0.149979,0.43831 0.149979,0.5698 0,0.33587 -0.145992,0.94425 -0.301326,1.25565 l -0.134133,0.2689 h -0.727951 -0.727945 l 0.08385,-0.14059 c 0.04705,-0.0789 0.08385,-0.27127 0.08385,-0.4383 0,-0.24622 -0.02455,-0.32034 -0.141919,-0.42881 -0.07807,-0.0722 -0.217435,-0.13107 -0.309722,-0.13091 -0.206806,2.9e-4 -0.50206,0.20386 -0.572936,0.39506 -0.04121,0.11105 -0.591344,3.59537 -0.591344,3.7452 0,0.0194 -0.378452,0.0353 -0.841005,0.0353 h -0.841004 z"
       id="path4670"
       inkscape:connector-curvature="0"
       clip-path="none" />
    <path
       style="fill:#000000;fill-opacity:0;fill-rule:nonzero;stroke:#665600;stroke-width:0.05837808;stroke-opacity:1"
       d="m 40.85379,260.13631 c -0.610156,-0.11315 -1.059958,-0.45459 -1.290225,-0.97923 -0.206896,-0.47138 -0.182949,-0.86102 0.21535,-3.50387 l 0.365964,-2.4283 0.886312,-0.43056 c 0.487473,-0.23681 0.892114,-0.42376 0.899202,-0.41543 0.0071,0.008 -0.04679,0.42643 -0.119706,0.9291 -0.07293,0.50268 -0.132828,0.93532 -0.133114,0.96142 -2.65e-4,0.0262 0.629084,0.0475 1.398598,0.0475 h 1.399119 l -0.0277,0.17399 c -0.01524,0.0957 -0.07036,0.45873 -0.122478,0.8067 l -0.09478,0.63271 -1.405591,0.017 -1.405591,0.0168 -0.0895,0.55258 c -0.244752,1.51116 -0.167727,1.91271 0.385459,2.00955 0.390181,0.0683 0.755404,-0.30133 0.892579,-0.90336 l 0.06126,-0.2689 h 0.822375 0.822378 l -0.03316,0.20563 c -0.05623,0.34873 -0.283414,1.00989 -0.45485,1.32369 -0.303988,0.55646 -0.813197,0.97552 -1.42148,1.16985 -0.353155,0.11283 -1.158152,0.15609 -1.550426,0.0833 z"
       id="path4672"
       inkscape:connector-curvature="0"
       clip-path="none" />
    <path
       style="fill:#000000;fill-opacity:0;fill-rule:nonzero;stroke:#665600;stroke-width:0.05837808;stroke-opacity:1"
       d="m 34.351542,260.16123 c -0.537041,-0.1217 -0.866879,-0.37401 -1.048485,-0.80208 -0.115389,-0.272 -0.136524,-0.40904 -0.136524,-0.88519 0,-0.57969 0.203901,-2.08853 0.346317,-2.56267 0.198407,-0.66053 0.636451,-1.23661 1.15942,-1.52473 0.251297,-0.13849 0.390423,-0.16797 0.876528,-0.18595 0.630166,-0.0234 1.023816,0.0778 1.201709,0.30871 0.125778,0.16325 0.167907,0.15641 0.208628,-0.0342 l 0.03382,-0.15819 h 0.75891 0.758913 l -0.02971,0.14237 c -0.01632,0.0783 -0.155137,0.97631 -0.308434,1.99561 -0.26788,1.78119 -0.275009,1.85809 -0.183234,1.97719 0.10254,0.13317 0.314986,0.15964 0.525402,0.0657 l 0.130434,-0.0583 -0.02323,0.61186 c -0.01278,0.33653 -0.03178,0.64443 -0.04224,0.6842 -0.01045,0.0399 -0.160147,0.15237 -0.332634,0.25016 -0.261731,0.14834 -0.384913,0.17822 -0.744533,0.18011 -0.586778,0.003 -0.913416,-0.17984 -1.096801,-0.61415 l -0.127248,-0.30136 -0.211317,0.28199 c -0.297967,0.39762 -0.690709,0.60864 -1.185268,0.63686 -0.217663,0.0129 -0.456351,0.008 -0.530412,-0.008 z m 1.648549,-1.78169 c 0.193021,-0.12138 0.223326,-0.21479 0.366232,-1.12938 0.179749,-1.15038 0.179057,-1.19785 -0.01913,-1.31825 -0.354724,-0.21546 -0.91943,-0.067 -1.155053,0.30373 -0.107515,0.16916 -0.295255,1.19463 -0.299637,1.63668 -0.0055,0.55223 0.597073,0.82816 1.107594,0.50722 z"
       id="path4674"
       inkscape:connector-curvature="0"
       clip-path="none" />
    <path
       style="fill:#000000;fill-opacity:0;fill-rule:nonzero;stroke:#665600;stroke-width:0.05837808;stroke-opacity:1"
       d="m 30.711417,260.11581 c -0.120872,-0.0466 -0.297556,-0.15237 -0.392644,-0.23502 -0.208583,-0.18114 -0.513843,-0.87152 -0.599402,-1.35562 l -0.06164,-0.34878 h -0.346298 c -0.190463,0 -0.346298,0.0224 -0.346298,0.0497 0,0.0559 -0.203639,1.42268 -0.244771,1.64278 -0.02618,0.14011 -0.03951,0.14237 -0.860469,0.14237 -0.630383,0 -0.834232,-0.0194 -0.835366,-0.0791 -7.15e-4,-0.0434 0.295937,-2.06499 0.659472,-4.49219 l 0.660979,-4.41312 h 0.84125 0.84125 l -0.02222,0.14237 c -0.176312,1.13038 -0.542076,3.69033 -0.529409,3.70531 0.0092,0.0113 0.140623,-0.0904 0.292022,-0.22491 0.41127,-0.36565 0.749798,-0.49096 1.324877,-0.49041 0.521919,4.2e-4 0.785331,0.10782 1.034312,0.42132 0.28467,0.35847 0.37278,1.12078 0.198846,1.72039 -0.09765,0.33664 -0.515191,0.90995 -0.818903,1.12439 -0.109343,0.0772 -0.204774,0.14479 -0.212082,0.15028 -0.0073,0.005 0.02338,0.15496 0.06821,0.33225 0.138346,0.54723 0.493447,0.77305 0.9177,0.58358 0.134421,-0.06 0.142416,-0.0544 0.111967,0.0791 -0.01803,0.0791 -0.03312,0.37684 -0.03352,0.66175 l -7.14e-4,0.51803 -0.339685,0.19643 c -0.404285,0.23377 -0.955515,0.3051 -1.307468,0.16916 z m -0.523903,-3.17067 c 0.344766,-0.1854 0.519337,-0.47054 0.47952,-0.78323 -0.03523,-0.27684 -0.112723,-0.37808 -0.325203,-0.42491 -0.245191,-0.0541 -0.578786,0.0667 -0.845459,0.30573 -0.234006,0.20984 -0.271665,0.30216 -0.339259,0.83163 l -0.03944,0.30886 0.393426,-0.0429 c 0.231555,-0.0254 0.509856,-0.10557 0.676409,-0.19514 z"
       id="path4676"
       inkscape:connector-curvature="0"
       clip-path="none" />
    <path
       style="fill:#000000;fill-opacity:0;fill-rule:nonzero;stroke:#665600;stroke-width:0.05837808;stroke-opacity:1"
       d="m 24.825869,260.1331 c -0.554133,-0.128 -0.81388,-0.51236 -0.81534,-1.20652 -7.15e-4,-0.32964 0.948034,-7.00138 1.103109,-7.75739 0.02872,-0.14011 0.04267,-0.14237 0.868907,-0.14237 h 0.839708 l -0.02912,0.14237 c -0.136386,0.66693 -1.059387,7.06398 -1.035416,7.17618 0.03684,0.17241 0.221505,0.24175 0.487632,0.1831 l 0.188172,-0.0415 -7.15e-4,0.61975 -7.14e-4,0.61977 -0.180656,0.13736 c -0.385805,0.29342 -0.900259,0.39056 -1.425664,0.26918 z"
       id="path4678"
       inkscape:connector-curvature="0"
       clip-path="none" />
    <path
       style="fill:#000000;fill-opacity:0;fill-rule:nonzero;stroke:#665600;stroke-width:0.05837808;stroke-opacity:1"
       d="m 16.92511,259.9005 c 0.02039,-0.0609 0.583143,-1.90443 1.250585,-4.09676 0.667444,-2.19231 1.237468,-4.06433 1.266718,-4.16003 l 0.05318,-0.17399 h 1.664516 1.664517 v 4.27077 4.27074 l -0.929153,1.3e-4 -0.929156,1.3e-4 0.02748,-0.90174 c 0.01513,-0.49596 0.01333,-0.92385 -0.0041,-0.95089 -0.01741,-0.0271 -0.405475,-0.0413 -0.862385,-0.0316 l -0.830742,0.0174 -0.25982,0.93325 -0.259818,0.93324 h -0.944419 c -0.87765,0 -0.941798,-0.008 -0.907367,-0.11073 z m 4.176039,-3.76458 c 9e-5,-0.25229 0.01606,-0.95133 0.03552,-1.5534 l 0.03534,-1.0947 -0.339583,0.019 -0.339577,0.019 -0.394718,1.48685 c -0.217095,0.81777 -0.39537,1.5082 -0.396165,1.5343 -7.41e-4,0.0261 0.31365,0.0475 0.698778,0.0475 h 0.700232 l 1.67e-4,-0.45871 z"
       id="path4680"
       inkscape:connector-curvature="0"
       clip-path="none" />
    <path
       style="fill:#000000;fill-opacity:0;fill-rule:nonzero;stroke:#665600;stroke-width:0.05837808;stroke-opacity:1"
       d="m 12.105683,246.97753 v -0.50616 h 6.053713 6.053713 l 0.03654,-0.23726 c 0.05721,-0.37148 0.3825,-1.09318 0.661702,-1.4681 0.804229,-1.07991 2.379456,-1.95367 4.969472,-2.75652 0.866785,-0.26869 4.968682,-1.63561 19.552653,-6.51576 2.977338,-0.99629 5.650614,-1.87918 5.940618,-1.96199 1.730817,-0.49418 3.732975,-0.506 5.451631,-0.0321 0.665859,0.18358 24.557035,8.18406 25.531564,8.54979 3.142639,1.17944 5.175676,2.69005 5.631876,4.18473 l 0.0724,0.23726 h 6.07582 6.075825 v 0.50617 0.50616 H 58.159456 12.105683 Z m 77.805223,-0.63455 c -0.435595,-0.56537 -2.448531,-1.70193 -4.125156,-2.32917 -1.1376,-0.42559 -25.145225,-8.43461 -25.627629,-8.54947 -1.239502,-0.2951 -2.497495,-0.31666 -3.753935,-0.0644 -0.423468,0.0851 -4.702405,1.48848 -12.812027,4.20217 -6.696915,2.24098 -12.673103,4.23256 -13.280421,4.42572 -2.463129,0.78343 -3.647528,1.42886 -4.15343,2.2634 l -0.109164,0.18009 h 31.980335 31.980338 z"
       id="path4682"
       inkscape:connector-curvature="0"
       clip-path="none" />
    <path
       style="fill:#000000;fill-opacity:0;fill-rule:nonzero;stroke:#665600;stroke-width:0.05837808;stroke-opacity:1"
       d="m 57.028312,279.58679 c -0.490972,-0.0676 -1.307476,-0.23637 -1.696718,-0.35067 -0.237003,-0.0696 -5.787697,-1.91952 -12.334872,-4.11093 -6.547175,-2.19141 -12.43721,-4.15254 -13.088967,-4.35809 -1.404799,-0.44303 -2.42239,-0.84369 -3.131794,-1.23309 -1.40767,-0.77269 -2.317641,-1.86469 -2.51871,-3.02255 l -0.06853,-0.39464 -6.04152,-0.0161 -6.041519,-0.0161 v -0.50589 -0.50589 h 46.053771 46.053777 v 0.50617 0.50616 h -6.055423 -6.055442 l -0.0379,0.20562 c -0.13107,0.71116 -0.79398,1.63368 -1.664706,2.31661 -0.953973,0.74822 -2.064321,1.35384 -3.635436,1.98291 -0.616555,0.24686 -24.329612,8.20617 -25.696227,8.62494 -0.840079,0.25744 -1.523466,0.35264 -2.693204,0.37517 -0.63694,0.0129 -1.242912,0.0113 -1.3466,-0.003 z m 3.124115,-2.25915 c 0.791414,-0.20036 24.971497,-8.2949 26.025808,-8.71241 1.747444,-0.69199 3.313917,-1.62487 3.865846,-2.30222 l 0.185621,-0.22782 H 58.116157 c -26.923157,0 -32.113547,0.0145 -32.113547,0.0854 0,0.13317 0.287604,0.56683 0.518277,0.78139 0.714987,0.66503 1.712469,1.13325 3.898577,1.82999 0.940028,0.29958 11.250497,3.74089 22.229504,7.41947 2.665449,0.89307 3.689921,1.19627 4.379344,1.29608 0.103682,0.0145 0.709657,0.0182 1.346599,0.006 0.98719,-0.0173 1.249484,-0.0433 1.777516,-0.177 z"
       id="path4684"
       inkscape:connector-curvature="0"
       clip-path="none" />
    <path
       style="fill:#000000;fill-opacity:0;fill-rule:nonzero;stroke:#665600;stroke-width:0.05837808;stroke-opacity:1"
       d="m 57.476193,242.98934 0.05282,-0.38524 -0.231153,-0.27667 -0.23115,-0.27665 0.322646,-0.0429 0.322651,-0.0429 0.148857,-0.35653 0.148863,-0.35652 0.152842,0.35505 0.152844,0.35505 0.333926,0.0444 0.333922,0.0444 -0.246554,0.29635 c -0.243245,0.29235 -0.245917,0.30015 -0.198798,0.58105 0.07653,0.45614 0.07698,0.45564 -0.243297,0.27113 l -0.295754,-0.17039 -0.256352,0.15383 c -0.140994,0.0846 -0.270481,0.16235 -0.287745,0.17281 -0.01728,0.01 -0.0077,-0.15431 0.02141,-0.36623 z"
       id="path4686"
       inkscape:connector-curvature="0"
       clip-path="none" />
    <path
       style="fill:#000000;fill-opacity:0;fill-rule:nonzero;stroke:#665600;stroke-width:0.05837808;stroke-opacity:1"
       d="m 61.036506,241.25156 c 5.8e-5,-0.62639 0.0081,-0.87406 0.01791,-0.55041 0.0098,0.32364 0.0098,0.83613 -1.03e-4,1.13886 -0.0099,0.30273 -0.01786,0.0379 -0.01781,-0.58845 z"
       id="path4688"
       inkscape:connector-curvature="0"
       clip-path="none" />
    <path
       style="fill:#000000;fill-opacity:0;fill-rule:nonzero;stroke:#665600;stroke-width:0.05837808;stroke-opacity:1"
       d="m 61.033373,240.68212 c 1.64e-4,-0.31319 0.0095,-0.43333 0.02053,-0.26698 0.01114,0.16634 0.01098,0.42258 -2.65e-4,0.56942 -0.01127,0.14689 -0.0204,0.0113 -0.02027,-0.30244 z"
       id="path4690"
       inkscape:connector-curvature="0"
       clip-path="none" />
    <path
       style="fill:#000000;fill-opacity:0;fill-rule:nonzero;stroke:#665600;stroke-width:0.03347936;stroke-opacity:1"
       d="m 51.965581,245.083 c -0.358368,-0.11832 -0.577649,-0.46502 -0.64058,-1.01265 -0.03837,-0.33392 -0.02061,-0.43414 0.07416,-0.41827 0.05994,0.01 0.0686,0.0392 0.08374,0.28333 0.03861,0.6223 0.31279,0.97747 0.755377,0.97854 0.36377,8.4e-4 0.629301,-0.24224 0.731356,-0.66956 0.06022,-0.25216 0.0474,-0.70332 -0.02535,-0.8914 -0.117107,-0.30284 -0.231307,-0.4142 -0.701283,-0.68378 -0.684189,-0.39245 -0.910884,-0.70832 -0.940562,-1.31054 -0.0317,-0.64304 0.194331,-1.18941 0.573547,-1.38645 0.157359,-0.0818 0.473573,-0.0972 0.67414,-0.0328 0.376299,0.12074 0.630296,0.60703 0.630296,1.20656 0,0.21707 -0.03174,0.26707 -0.131289,0.20693 -0.04037,-0.0244 -0.05406,-0.0778 -0.05406,-0.21102 0,-0.44119 -0.145433,-0.8076 -0.376817,-0.9494 -0.186092,-0.11396 -0.541432,-0.11509 -0.725733,-0.002 -0.263509,0.16158 -0.411324,0.54734 -0.41079,1.07209 7.94e-4,0.57231 0.181401,0.83685 0.823976,1.20549 0.471586,0.27053 0.674677,0.47313 0.806313,0.80437 0.07256,0.18258 0.083,0.25345 0.0816,0.55407 -0.0026,0.55854 -0.178895,0.96849 -0.505494,1.17542 -0.197287,0.12493 -0.48999,0.15786 -0.722562,0.081 z"
       id="path4694"
       inkscape:connector-curvature="0"
       clip-path="none" />
    <path
       style="fill:#000000;fill-opacity:0;fill-rule:nonzero;stroke:#665600;stroke-width:0.03347936;stroke-opacity:1"
       d="m 53.781438,241.41358 c -8e-6,-0.79825 0.0041,-1.13001 0.0091,-0.73717 0.0049,0.3928 0.0049,1.04594 1.3e-5,1.45138 -0.0049,0.40546 -0.0091,0.0841 -0.0091,-0.71421 z"
       id="path4696"
       inkscape:connector-curvature="0"
       clip-path="none" />
    <path
       style="fill:#000000;fill-opacity:0;fill-rule:nonzero;stroke:#665600;stroke-width:0.03347936;stroke-opacity:1"
       d="m 53.619087,245.08926 c -0.02814,-0.0331 -0.03708,-0.65374 -0.03708,-2.5718 0,-2.19344 0.006,-2.53418 0.04595,-2.57304 0.02527,-0.0247 0.06696,-0.0353 0.09267,-0.0237 0.04065,0.0184 0.04674,0.21266 0.04674,1.49389 0,0.90422 0.01114,1.46473 0.02887,1.45185 0.0159,-0.0113 0.407212,-0.68194 0.869619,-1.48982 0.82364,-1.43899 0.914633,-1.57201 0.966552,-1.41308 0.01154,0.0353 -0.219353,0.47407 -0.629005,1.1953 l -0.647226,1.13954 0.64788,1.35943 c 0.615815,1.29212 0.686713,1.475 0.571886,1.475 -0.06614,0 -0.118329,-0.0988 -0.68054,-1.28813 -0.301879,-0.63861 -0.572471,-1.20657 -0.60131,-1.26215 l -0.05244,-0.10104 -0.237149,0.41825 -0.237148,0.41826 v 0.88536 c 0,0.77386 -0.0062,0.88813 -0.04887,0.90739 -0.06221,0.0281 -0.05609,0.0294 -0.09941,-0.0215 z"
       id="path4698"
       inkscape:connector-curvature="0"
       clip-path="none" />
    <path
       style="fill:#000000;fill-opacity:0;fill-rule:nonzero;stroke:#665600;stroke-width:0.03347936;stroke-opacity:1"
       d="m 49.123472,245.10861 c -0.02574,-0.0302 -0.02752,-4.52056 -0.0019,-4.59919 0.01032,-0.0316 0.04337,-0.0575 0.07345,-0.0575 0.04335,0 0.190912,0.39705 0.711308,1.91403 0.361133,1.05271 0.672124,1.96303 0.691087,2.02289 0.0264,0.0833 0.03811,-0.35901 0.04994,-1.88288 0.01439,-1.85844 0.01913,-1.99441 0.07039,-2.03196 0.04254,-0.0312 0.0616,-0.0279 0.08447,0.0145 0.03232,0.0596 0.04366,4.4894 0.01167,4.58708 -0.01032,0.0316 -0.04338,0.0575 -0.0735,0.0575 -0.04312,0 -0.154729,-0.29089 -0.525566,-1.36976 -0.25895,-0.75337 -0.572937,-1.66367 -0.697746,-2.0229 l -0.22693,-0.65313 -0.0011,1.9655 c -7.93e-4,1.08102 -0.0095,1.99133 -0.01979,2.02289 -0.01892,0.0578 -0.107815,0.0781 -0.145999,0.0333 z"
       id="path4700"
       inkscape:connector-curvature="0"
       clip-path="none" />
    <path
       style="fill:#000000;fill-opacity:0;fill-rule:nonzero;stroke:#665600;stroke-width:0.03347936;stroke-opacity:1"
       d="m 47.013811,245.07937 c -0.0204,-0.0625 0.782328,-4.15702 0.825061,-4.20851 0.01826,-0.022 0.04408,-0.0161 0.07047,0.0182 0.05021,0.0638 0.864254,4.12301 0.841058,4.194 -0.02574,0.0788 -0.108064,0.0579 -0.126037,-0.0318 -0.115787,-0.57856 -0.231307,-1.17583 -0.231595,-1.19741 -2.04e-4,-0.0145 -0.22973,-0.0273 -0.510064,-0.0273 -0.280331,0 -0.509693,0.006 -0.509693,0.0161 0,0.0542 -0.221851,1.14203 -0.24651,1.20873 -0.03455,0.0935 -0.08709,0.10653 -0.112681,0.0283 z m 1.305724,-1.51589 c -0.01003,-0.0449 -0.111569,-0.55131 -0.22557,-1.12537 -0.114001,-0.57403 -0.216638,-1.03124 -0.228076,-1.01597 -0.02162,0.0289 -0.431332,2.09795 -0.431187,2.17762 6.4e-5,0.0342 0.111033,0.0454 0.451602,0.0454 h 0.451514 z"
       id="path4702"
       inkscape:connector-curvature="0"
       clip-path="none" />
    <path
       style="fill:#000000;fill-opacity:0;fill-rule:nonzero;stroke:#665600;stroke-width:0.03347936;stroke-opacity:1"
       d="m 46.583403,243.13713 c 0,-0.54882 0.0043,-0.77333 0.0095,-0.49893 0.0052,0.27442 0.0052,0.72344 0,0.99785 -0.0052,0.2744 -0.0095,0.0499 -0.0095,-0.49892 z"
       id="path4704"
       inkscape:connector-curvature="0"
       clip-path="none" />
    <path
       style="fill:#000000;fill-opacity:0;fill-rule:nonzero;stroke:#665600;stroke-width:0.03347936;stroke-opacity:1"
       d="m 43.865643,245.0646 c -0.06867,-0.0366 -0.161296,-0.11751 -0.205857,-0.17971 -0.156776,-0.21886 -0.163549,-0.28823 -0.163549,-1.67518 0,-1.28202 2.64e-4,-1.28896 0.07324,-1.46289 0.10713,-0.25558 0.26344,-0.36518 0.544602,-0.38185 0.178211,-0.0113 0.246343,0.002 0.346419,0.0615 0.237281,0.1422 0.342752,0.37063 0.357201,0.7737 0.0054,0.14996 -0.0037,0.19302 -0.04282,0.20253 -0.03995,0.01 -0.053,-0.0315 -0.06684,-0.21078 -0.03505,-0.45425 -0.221938,-0.69022 -0.548965,-0.69319 -0.239165,-0.002 -0.377042,0.0862 -0.482103,0.30877 l -0.08807,0.18664 v 1.19742 c 0,1.31968 0.01423,1.45268 0.17662,1.64775 0.235833,0.28333 0.682963,0.21722 0.836972,-0.1238 0.0544,-0.12042 0.06757,-0.22359 0.07737,-0.6065 l 0.01183,-0.46139 -0.334783,-0.01 c -0.290165,-0.01 -0.336161,-0.0187 -0.345138,-0.0738 -0.0095,-0.058 0.02625,-0.0634 0.408935,-0.0634 h 0.419288 v 0.44698 c 0,0.50557 -0.04697,0.75363 -0.177105,0.93529 -0.113273,0.15818 -0.296592,0.24896 -0.502486,0.24896 -0.0989,0 -0.222067,-0.0278 -0.29474,-0.0667 z"
       id="path4706"
       inkscape:connector-curvature="0"
       clip-path="none" />
    <path
       style="fill:#000000;fill-opacity:0;fill-rule:nonzero;stroke:#665600;stroke-width:0.03347936;stroke-opacity:1"
       d="m 45.348571,243.11899 c -5e-6,-1.0178 0.004,-1.43939 0.0088,-0.93688 0.0048,0.50251 0.0048,1.33525 1.1e-5,1.85053 -0.0048,0.51529 -0.0088,0.10412 -0.0088,-0.91365 z"
       id="path4708"
       inkscape:connector-curvature="0"
       clip-path="none" />
    <path
       style="fill:#000000;fill-opacity:0;fill-rule:nonzero;stroke:#665600;stroke-width:0.03347936;stroke-opacity:1"
       d="m 45.218124,243.13155 0.008,-2.00824 0.308904,-0.0113 c 0.1699,-0.006 0.382762,0.008 0.47303,0.0303 0.285985,0.0731 0.461682,0.31997 0.528106,0.74202 0.04212,0.26759 0.04448,2.17104 0.0029,2.46809 -0.04463,0.32016 -0.145584,0.52387 -0.3238,0.65336 -0.145042,0.1054 -0.165084,0.1096 -0.577768,0.1217 l -0.427513,0.0129 z m 0.927939,1.75247 c 0.06424,-0.0468 0.147645,-0.15286 0.185346,-0.23565 0.06656,-0.14624 0.0688,-0.18788 0.07772,-1.44661 0.0098,-1.38511 7.4e-5,-1.50544 -0.137223,-1.69711 -0.130408,-0.18205 -0.237403,-0.22564 -0.604094,-0.24606 l -0.333579,-0.0186 v 1.87775 1.87773 l 0.34752,-0.0129 c 0.29904,-0.0113 0.363815,-0.025 0.46432,-0.0983 z"
       id="path4710"
       inkscape:connector-curvature="0"
       clip-path="none" />
    <path
       style="fill:#000000;fill-opacity:0;fill-rule:nonzero;stroke:#665600;stroke-width:0.03347936;stroke-opacity:1"
       d="m 61.203148,242.63872 c 0.08858,-0.008 0.241483,-0.008 0.339794,-1.5e-4 0.09831,0.006 0.02585,0.0129 -0.161047,0.0129 -0.186888,8e-5 -0.267324,-0.006 -0.178747,-0.0129 z"
       id="path4712"
       inkscape:connector-curvature="0"
       clip-path="none" />
    <path
       style="fill:#000000;fill-opacity:0;fill-rule:nonzero;stroke:#665600;stroke-width:0.03347936;stroke-opacity:1"
       d="m 60.863206,245.11015 c -0.0313,-0.0368 -0.02625,-5.10184 0.0052,-5.16004 0.02058,-0.0381 0.143155,-0.0458 0.578725,-0.0362 0.498695,0.0113 0.567693,0.0203 0.707075,0.0957 0.208325,0.11267 0.302324,0.22643 0.40589,0.49139 0.08241,0.21082 0.08727,0.25139 0.08781,0.73121 2.64e-4,0.39474 -0.01169,0.54919 -0.05439,0.69284 -0.157681,0.5305 -0.446511,0.70412 -1.171313,0.70412 h -0.394684 l -0.0081,1.24276 c -0.008,1.21987 -0.0093,1.24297 -0.07118,1.25338 -0.03468,0.006 -0.07291,-8.7e-4 -0.08495,-0.0145 z m 1.217078,-2.79574 c 0.293844,-0.15642 0.411803,-0.50168 0.392869,-1.1499 -0.02519,-0.8628 -0.272205,-1.09789 -1.122148,-1.06803 l -0.308906,0.0113 -0.0081,1.15601 -0.0082,1.15602 0.456073,-0.0145 c 0.378743,-0.0129 0.480213,-0.0274 0.598437,-0.0904 z"
       id="path4714"
       inkscape:connector-curvature="0"
       clip-path="none" />
    <path
       style="fill:#000000;fill-opacity:0;fill-rule:nonzero;stroke:#665600;stroke-width:0.03347936;stroke-opacity:1"
       d="m 63.295629,242.52029 c 0,-0.72843 0.0041,-1.02642 0.0092,-0.6622 0.0051,0.3642 0.0051,0.96019 0,1.3244 -0.0051,0.3642 -0.0092,0.0662 -0.0092,-0.6622 z"
       id="path4716"
       inkscape:connector-curvature="0"
       clip-path="none" />
    <path
       style="fill:#000000;fill-opacity:0;fill-rule:nonzero;stroke:#665600;stroke-width:0.03347936;stroke-opacity:1"
       d="m 63.741389,245.08485 c -0.283472,-0.12445 -0.435933,-0.31101 -0.557422,-0.68218 -0.06151,-0.18795 -0.06367,-0.2562 -0.05857,-1.85515 0.0056,-1.7813 0.01252,-1.87032 0.166616,-2.17925 0.151913,-0.3045 0.404223,-0.46052 0.744744,-0.46052 0.585073,0 0.884343,0.37085 0.947727,1.17442 0.01675,0.2124 0.02611,1.00251 0.02077,1.75578 -0.0093,1.32675 -0.01196,1.37599 -0.07994,1.5744 -0.167722,0.48904 -0.398639,0.68748 -0.825055,0.70906 -0.157059,0.008 -0.287856,-0.005 -0.358884,-0.0365 z m 0.742362,-0.29033 c 0.304631,-0.23694 0.355129,-0.62719 0.33418,-2.58266 -0.01183,-1.10763 -0.02215,-1.33661 -0.06762,-1.50583 -0.117782,-0.43834 -0.320852,-0.59595 -0.740862,-0.57504 -0.316974,0.0161 -0.46975,0.11767 -0.588299,0.39251 -0.118467,0.27461 -0.138258,0.5604 -0.138258,1.99679 0,1.43297 0.0199,1.72237 0.136962,1.99376 0.13276,0.30775 0.295756,0.40335 0.667305,0.39141 0.232244,-0.008 0.281141,-0.0212 0.396595,-0.11089 z"
       id="path4718"
       inkscape:connector-curvature="0"
       clip-path="none" />
    <path
       style="fill:#000000;fill-opacity:0;fill-rule:nonzero;stroke:#665600;stroke-width:0.03347936;stroke-opacity:1"
       d="m 65.582129,242.59284 c 0,-1.28721 0.0038,-1.81379 0.0085,-1.17018 0.0047,0.6436 0.0047,1.69678 0,2.34039 -0.0047,0.64361 -0.0085,0.11702 -0.0085,-1.17021 z"
       id="path4720"
       inkscape:connector-curvature="0"
       clip-path="none" />
    <path
       style="fill:#000000;fill-opacity:0;fill-rule:nonzero;stroke:#665600;stroke-width:0.03347936;stroke-opacity:1"
       d="m 65.400977,245.07541 c -0.01032,-0.0316 -0.01876,-1.12244 -0.01876,-2.42417 0,-1.96473 0.0073,-2.3785 0.043,-2.43583 0.03652,-0.0586 0.05046,-0.0618 0.09267,-0.0207 0.04471,0.0436 0.04968,0.28379 0.04968,2.40182 v 2.35341 l 0.70276,0.01 c 0.702416,0.01 0.702765,0.01 0.712632,0.0914 l 0.0099,0.0817 h -0.786556 c -0.688737,0 -0.788887,-0.006 -0.805307,-0.0575 z"
       id="path4722"
       inkscape:connector-curvature="0"
       clip-path="none" />
    <path
       style="fill:#000000;fill-opacity:0;fill-rule:nonzero;stroke:#665600;stroke-width:0.03347936;stroke-opacity:1"
       d="m 67.305051,245.05009 c 0,-0.0655 0.65097,-3.41903 0.789969,-4.06956 0.02532,-0.11832 0.128842,-0.12607 0.152204,-0.0113 0.375902,1.84535 0.808056,4.08116 0.795983,4.11813 -0.0088,0.0271 -0.03837,0.0441 -0.06563,0.0379 -0.03721,-0.008 -0.08069,-0.1695 -0.174369,-0.64585 l -0.124788,-0.63463 -0.499941,-0.01 -0.499946,-0.01 -0.02923,0.13704 c -0.01609,0.0754 -0.07579,0.36555 -0.132691,0.64496 -0.08072,0.39643 -0.115306,0.51057 -0.157491,0.51972 -0.03938,0.008 -0.05406,-0.0129 -0.05406,-0.0763 z m 1.317667,-1.48661 c -0.0095,-0.0449 -0.109534,-0.547 -0.222221,-1.11576 -0.112696,-0.56878 -0.210325,-1.04056 -0.216971,-1.0484 -0.0066,-0.008 -0.01855,0.008 -0.02641,0.0363 -0.02529,0.0893 -0.419598,2.12801 -0.419598,2.16951 0,0.0273 0.143031,0.04 0.451263,0.04 h 0.451263 z"
       id="path4724"
       inkscape:connector-curvature="0"
       clip-path="none" />
    <path
       style="fill:#000000;fill-opacity:0;fill-rule:nonzero;stroke:#665600;stroke-width:0.03347936;stroke-opacity:1"
       d="m 69.405613,243.13926 c 0,-2.01267 0.0058,-2.11862 0.108214,-1.99303 0.02228,0.0273 0.302437,0.81626 0.62257,1.75325 l 0.582062,1.7036 0.008,-1.71982 c 0.008,-1.70153 0.01521,-1.82157 0.106333,-1.75541 0.0136,0.01 0.02466,0.91617 0.02466,2.01408 0,1.82695 -0.0043,1.99521 -0.05043,1.98446 -0.03486,-0.008 -0.232395,-0.5411 -0.640983,-1.72972 l -0.59055,-1.71799 -0.01622,1.71799 c -0.0089,0.9449 -0.01934,1.72208 -0.02315,1.72707 -0.0038,0.005 -0.03475,0.01 -0.06875,0.01 -0.06103,0 -0.06178,-0.0242 -0.06178,-1.99353 z"
       id="path4726"
       inkscape:connector-curvature="0"
       clip-path="none" />
    <path
       style="fill:#000000;fill-opacity:0;fill-rule:nonzero;stroke:#665600;stroke-width:0.03347936;stroke-opacity:1"
       d="m 71.387506,243.38373 0.0082,-1.87775 0.339788,-0.0113 c 0.400204,-0.0129 0.5323,0.0242 0.695127,0.19702 0.216583,0.22986 0.231603,0.33657 0.231603,1.64657 0,1.2667 -0.01662,1.42104 -0.177409,1.65019 -0.155831,0.22206 -0.286993,0.27121 -0.726426,0.27213 l -0.378677,8.4e-4 z m 0.844989,1.66353 c 0.07792,-0.0416 0.155019,-0.12138 0.200795,-0.20785 l 0.07434,-0.14043 v -1.32441 c 0,-1.27099 -0.0029,-1.32952 -0.06349,-1.45137 -0.110344,-0.22062 -0.257611,-0.28901 -0.623816,-0.2897 l -0.316624,-4.3e-4 v 1.74167 1.74168 l 0.301178,-8.7e-4 c 0.226589,-4.2e-4 0.332523,-0.0176 0.427699,-0.0683 z"
       id="path4728"
       inkscape:connector-curvature="0"
       clip-path="none" />
    <path
       style="fill:#000000;fill-opacity:0;fill-rule:nonzero;stroke:#665600;stroke-width:0.03347936;stroke-opacity:1"
       d="m 95.386275,260.13567 c -0.559498,-0.11897 -0.942909,-0.35419 -1.153491,-0.70779 -0.271658,-0.45617 -0.283649,-0.83887 -0.071,-2.26658 0.158538,-1.06443 0.217591,-1.29136 0.443749,-1.70539 0.325511,-0.59591 0.895299,-1.02771 1.606431,-1.21738 0.43072,-0.11493 1.29041,-0.10412 1.726279,0.0215 0.60562,0.17466 1.00847,0.60419 1.12313,1.19755 0.053,0.27455 0.0349,0.88948 -0.0417,1.41344 l -0.069,0.4717 -1.548152,0.01 c -1.438378,0.008 -1.549619,0.0145 -1.569048,0.0726 -0.01151,0.0347 -0.0287,0.20241 -0.0382,0.3726 -0.01511,0.26961 -0.009,0.3291 0.049,0.46215 0.0977,0.22496 0.259202,0.31266 0.580202,0.31508 0.23114,0.002 0.263279,-0.006 0.386131,-0.10702 0.0897,-0.073 0.159538,-0.17147 0.21123,-0.2981 l 0.0772,-0.18919 0.818599,0.022 c 0.450229,0.0113 0.821878,0.0249 0.8259,0.0286 0.0273,0.0247 -0.142301,0.59556 -0.24814,0.83509 -0.148981,0.33718 -0.43593,0.69489 -0.710012,0.88509 -0.244919,0.16997 -0.63877,0.32208 -0.999087,0.38587 -0.372592,0.066 -1.087382,0.0654 -1.400033,-7.9e-4 z m 1.97993,-3.68193 c 0.0276,-0.22456 -0.01439,-0.42377 -0.115451,-0.54763 -0.244049,-0.29921 -0.686739,-0.27125 -1.002628,0.0633 -0.11992,0.12703 -0.307411,0.50571 -0.307469,0.62106 -2.2e-5,0.0362 0.151198,0.0439 0.702738,0.0363 l 0.70276,-0.01 z"
       id="path4730"
       inkscape:connector-curvature="0"
       clip-path="none" />
    <path
       style="fill:#000000;fill-opacity:0;fill-rule:nonzero;stroke:#665600;stroke-width:0.03347936;stroke-opacity:1"
       d="m 89.407276,263.47478 c -0.776202,-0.17228 -1.184785,-0.57862 -1.2872,-1.28016 -0.101455,-0.69494 0.223126,-1.3867 0.896051,-1.90971 l 0.226658,-0.17617 -0.186724,-0.10524 c -0.243018,-0.13704 -0.45425,-0.38883 -0.572974,-0.6831 -0.09274,-0.22987 -0.09513,-0.24903 -0.09283,-0.74395 0.0019,-0.39953 0.0236,-0.65132 0.101798,-1.17926 0.207164,-1.39875 0.255739,-1.59232 0.523545,-2.08639 0.45821,-0.84537 1.20433,-1.24629 2.128774,-1.14389 0.476781,0.0528 0.72418,0.16193 0.971452,0.42844 l 0.0828,0.0893 0.02,-0.14043 c 0.01101,-0.0773 0.0254,-0.16093 0.032,-0.18585 0.009,-0.0347 0.18769,-0.0454 0.754999,-0.0454 h 0.74294 l -0.0158,0.0817 c -0.009,0.0449 -0.224068,1.46954 -0.478679,3.16586 -0.254611,1.69634 -0.484809,3.17066 -0.511558,3.27629 -0.243031,0.95948 -0.869892,1.9112 -1.515923,2.30151 -0.367879,0.22225 -0.631639,0.31193 -1.043334,0.35476 -0.423704,0.0441 -0.504065,0.0421 -0.77606,-0.0182 z m 1.13038,-1.73424 c 0.172468,-0.10556 0.361468,-0.42571 0.456599,-0.77325 0.0728,-0.26596 0.22537,-1.21719 0.200041,-1.24717 -0.0222,-0.0262 -0.460362,0.24664 -0.706472,0.43992 -0.264869,0.208 -0.551839,0.55457 -0.632865,0.76426 -0.03724,0.0964 -0.06045,0.23667 -0.06087,0.3679 -0.0011,0.36359 0.134366,0.5291 0.434655,0.53078 0.12138,7.9e-4 0.213249,-0.0239 0.308901,-0.0825 z m 0.616839,-3.33181 c 0.26851,-0.13575 0.273351,-0.14963 0.443039,-1.27611 0.1495,-0.9925 0.150702,-1.00656 0.0927,-1.08319 -0.215831,-0.28497 -0.804791,-0.28134 -1.101391,0.006 -0.203367,0.19757 -0.265414,0.37125 -0.365022,1.02177 -0.107736,0.70354 -0.114289,0.9443 -0.03014,1.10638 0.166243,0.32026 0.579901,0.41684 0.960861,0.22433 z"
       id="path4732"
       inkscape:connector-curvature="0"
       clip-path="none" />
    <path
       style="fill:#000000;fill-opacity:0;fill-rule:nonzero;stroke:#665600;stroke-width:0.03347936;stroke-opacity:1"
       d="m 83.281939,260.13576 c -0.394697,-0.10072 -0.703236,-0.32373 -0.864631,-0.62511 -0.163762,-0.30579 -0.206582,-0.51999 -0.204878,-1.02494 0.0016,-0.38081 0.02482,-0.60103 0.146722,-1.37285 0.194768,-1.23315 0.268565,-1.47573 0.613029,-2.01495 0.188701,-0.29539 0.423662,-0.52108 0.720339,-0.69192 0.343715,-0.19792 0.560194,-0.25048 1.019387,-0.24744 0.584419,0.003 0.913757,0.10879 1.169341,0.37231 0.05794,0.0597 0.112337,0.10864 0.120912,0.10864 0.0085,0 0.02498,-0.0734 0.03643,-0.16329 l 0.02082,-0.16329 h 0.754927 c 0.415211,0 0.754928,0.0129 0.754928,0.0282 0,0.0161 -0.125008,0.8524 -0.277797,1.85962 -0.152786,1.00721 -0.277894,1.89849 -0.278016,1.98062 -1.51e-4,0.0981 0.02254,0.1833 0.06621,0.24853 0.06398,0.0956 0.07506,0.0986 0.301184,0.0835 0.129116,-0.008 0.260752,-0.0291 0.292531,-0.0455 0.05545,-0.0286 0.05696,-0.008 0.03735,0.49291 -0.03101,0.79374 -0.02785,0.78004 -0.214079,0.91914 -0.322853,0.24111 -0.48392,0.29055 -0.946769,0.29055 -0.364186,0 -0.440505,-0.0113 -0.602367,-0.0851 -0.255838,-0.11751 -0.486306,-0.39395 -0.542313,-0.65064 -0.02246,-0.10298 -0.04864,-0.18682 -0.05817,-0.18639 -0.0095,4.5e-4 -0.05904,0.0755 -0.110003,0.16671 -0.178951,0.32036 -0.541113,0.60881 -0.902491,0.71881 -0.231458,0.0705 -0.779717,0.0713 -1.052616,0.002 z m 1.7364,-1.72506 c 0.259482,-0.14334 0.265914,-0.16222 0.434271,-1.27936 l 0.151315,-1.00407 -0.08604,-0.10541 c -0.147342,-0.18065 -0.543738,-0.24218 -0.827776,-0.12848 -0.179782,0.072 -0.379023,0.27201 -0.462653,0.46456 -0.07168,0.16502 -0.241366,1.23466 -0.241443,1.52188 -1.08e-4,0.41104 0.277762,0.65902 0.700048,0.62474 0.104727,-0.008 0.254243,-0.0507 0.332269,-0.0938 z"
       id="path4734"
       inkscape:connector-curvature="0"
       clip-path="none" />
    <path
       style="fill:#000000;fill-opacity:0;fill-rule:nonzero;stroke:#665600;stroke-width:0.03347936;stroke-opacity:1"
       d="m 56.264055,275.14963 c 1.1269,-0.005 2.961804,-0.005 4.077562,0 1.115756,0.005 0.193749,0.01 -2.048909,0.01 -2.242659,0 -3.155551,-0.005 -2.028653,-0.01 z"
       id="path4738"
       inkscape:connector-curvature="0"
       clip-path="none" />
    <path
       style="fill:#000000;fill-opacity:0;fill-rule:nonzero;stroke:#665600;stroke-width:0.03347936;stroke-opacity:1"
       d="m 54.261487,275.04984 v -0.0907 h 4.031221 4.031226 v 0.0907 0.0907 h -4.031226 -4.031221 z"
       id="path4740"
       inkscape:connector-curvature="0"
       clip-path="none" />
    <path
       style="fill:#000000;fill-opacity:0;fill-rule:nonzero;stroke:#665600;stroke-width:0.03347936;stroke-opacity:1"
       d="m 51.388657,273.59844 v -0.0907 h 6.904051 6.904048 v 0.0907 0.0907 h -6.904048 -6.904051 z"
       id="path4742"
       inkscape:connector-curvature="0"
       clip-path="none" />
    <path
       style="fill:#000000;fill-opacity:0;fill-rule:nonzero;stroke:#665600;stroke-width:0.03347936;stroke-opacity:1"
       d="m 53.329548,272.28311 c 2.740985,-0.005 7.217034,-0.005 9.946775,0 2.729738,0.005 0.487108,0.01 -4.983615,0.01 -5.470726,0 -7.704151,-0.005 -4.96316,-0.01 z"
       id="path4744"
       inkscape:connector-curvature="0"
       clip-path="none" />
    <path
       style="fill:#000000;fill-opacity:0;fill-rule:nonzero;stroke:#665600;stroke-width:0.03347936;stroke-opacity:1"
       d="m 48.361379,272.18332 v -0.0907 h 9.931329 9.931328 v 0.0907 0.0907 h -9.931328 -9.931329 z"
       id="path4746"
       inkscape:connector-curvature="0"
       clip-path="none" />
    <path
       style="fill:#000000;fill-opacity:0;fill-rule:nonzero;stroke:#665600;stroke-width:0.03347936;stroke-opacity:1"
       d="m 58.315512,268.79974 c 0.0067,-1.16556 0.01537,-1.40605 0.05064,-1.40605 0.02799,0 0.17552,0.43766 0.431144,1.27905 0.21372,0.70347 0.396132,1.27877 0.405352,1.27845 0.0092,-2.7e-4 0.190535,-0.57183 0.402905,-1.26996 0.307806,-1.01188 0.397098,-1.26936 0.440193,-1.26938 0.05056,-2e-5 0.05406,0.0907 0.05406,1.39696 0,1.37278 -0.0011,1.39697 -0.06178,1.39697 -0.06046,0 -0.0618,-0.0245 -0.06272,-1.15204 -2.65e-4,-0.66635 -0.01222,-1.12911 -0.02768,-1.09763 -0.01468,0.0299 -0.176363,0.54835 -0.359262,1.15204 -0.257029,0.8484 -0.34432,1.09763 -0.38441,1.09763 -0.04009,0 -0.127371,-0.24923 -0.384411,-1.09763 -0.182901,-0.60369 -0.344566,-1.1221 -0.359259,-1.15204 -0.01545,-0.0315 -0.02713,0.43128 -0.02766,1.09763 -0.0011,1.12974 -0.0021,1.15204 -0.06309,1.15204 -0.06133,0 -0.06204,-0.0182 -0.05406,-1.40604 z"
       id="path4748"
       inkscape:connector-curvature="0"
       clip-path="none" />
    <path
       style="fill:#000000;fill-opacity:0;fill-rule:nonzero;stroke:#665600;stroke-width:0.03347936;stroke-opacity:1"
       d="m 60.596258,269.96085 c 0.59301,-2.43604 0.655571,-2.65931 0.722968,-2.58014 0.01746,0.0205 0.664909,2.72844 0.664909,2.78091 0,0.0244 -0.01863,0.0442 -0.04134,0.0442 -0.02651,0 -0.0782,-0.15641 -0.144243,-0.4364 l -0.102909,-0.43642 -0.416317,0.01 -0.416317,0.01 -0.0439,0.18142 c -0.154591,0.63887 -0.165412,0.67127 -0.22419,0.67127 -0.057,0 -0.05697,-0.005 0.0016,-0.24493 z m 1.039981,-0.78011 c -0.0081,-0.025 -0.08762,-0.34744 -0.176733,-0.71665 -0.08911,-0.36918 -0.172575,-0.69411 -0.185468,-0.72204 -0.02781,-0.0602 -0.03574,-0.0329 -0.231365,0.79463 -0.07783,0.32927 -0.147627,0.61911 -0.155091,0.64406 -0.01045,0.0347 0.07748,0.0454 0.374896,0.0454 0.298027,0 0.385046,-0.0113 0.373761,-0.0454 z"
       id="path4750"
       inkscape:connector-curvature="0"
       clip-path="none" />
    <path
       style="fill:#000000;fill-opacity:0;fill-rule:nonzero;stroke:#665600;stroke-width:0.03347936;stroke-opacity:1"
       d="m 62.354824,268.79067 c 0,-1.22753 0.006,-1.41512 0.04588,-1.41512 0.0296,0 0.228851,0.43819 0.560996,1.23369 0.283308,0.67853 0.526777,1.2337 0.541038,1.2337 0.01423,0 0.02593,-0.55517 0.02593,-1.2337 0,-1.07242 0.006,-1.23369 0.04634,-1.23369 0.0404,0 0.04634,0.18143 0.04634,1.41512 0,1.23451 -0.0059,1.41511 -0.04639,1.41511 -0.03007,0 -0.22856,-0.42818 -0.563541,-1.21554 -0.284425,-0.66856 -0.527662,-1.21555 -0.540526,-1.21555 -0.01291,0 -0.02336,0.54699 -0.02336,1.21555 0,1.05629 -0.006,1.21554 -0.04634,1.21554 -0.0404,0 -0.04634,-0.18142 -0.04634,-1.41511 z"
       id="path4752"
       inkscape:connector-curvature="0"
       clip-path="none" />
  </g>
</svg>
