<svg xmlns="http://www.w3.org/2000/svg" viewBox="0 0 253.52 109.01"><title>Asset 9</title><g id="Layer_2" data-name="Layer 2"><g id="napisy"><path d="M24.42,63.08l.17-4.4H19.91l-1.37,4.4H13.19l7.2-20.16h9.24l.11,20.16ZM23.27,47.82l-2.21,7.11h3.67L25,47.82Z"/><path d="M37.69,58.77a.65.65,0,0,0,.74.73,2.53,2.53,0,0,0,1.25-.28l-.14,3.16a4.67,4.67,0,0,1-3,1.09q-2.55,0-3.3-1.18a3,3,0,0,1-.48-1.65,9.71,9.71,0,0,1,.11-1.57L35.9,41.83h4.76l-2.94,16.6A2.06,2.06,0,0,0,37.69,58.77Z"/><path d="M54.82,59.49A2.32,2.32,0,0,0,56,59.21l-.14,3.16a4.88,4.88,0,0,1-3.22,1.09,3.61,3.61,0,0,1-2.81-1,7.4,7.4,0,0,1-1.41-3.39l-.08-.39q-.59.08-1.76.14l-.76,4.26H41l3.75-21.25h4.76L47.91,51a5.75,5.75,0,0,1,4.48-1.82,3.76,3.76,0,0,1,2.81.94,3.45,3.45,0,0,1,.91,2.51q0,3-3.16,4.73l.31,1A1.44,1.44,0,0,0,54.82,59.49ZM50,53a3.43,3.43,0,0,0-2.69,1.43L47,56.3q4.14-.17,4.14-2.21a1,1,0,0,0-.29-.77A1.16,1.16,0,0,0,50,53Z"/><path d="M71.2,58.77a.65.65,0,0,0,.74.73,2.52,2.52,0,0,0,1.25-.28l-.14,3.16a4.67,4.67,0,0,1-3,1.09q-3.08,0-3.42-2.24a4.55,4.55,0,0,1-4.12,2.24q-4.59,0-4.59-3.95A8.76,8.76,0,0,1,58,58l.59-3.28a7,7,0,0,1,2.06-4,5.92,5.92,0,0,1,4.2-1.5q2.59,0,3.51,1.2l.14-.84H72.8l-1.57,8.82A2.06,2.06,0,0,0,71.2,58.77Zm-8.29-1.34a3.34,3.34,0,0,0-.06.7,1.28,1.28,0,0,0,.42.88,1.91,1.91,0,0,0,1.41.43,2.28,2.28,0,0,0,1.72-.78l.84-4.7q-.31-.7-1.46-.7a2.29,2.29,0,0,0-2.52,2.07Z"/><path d="M80.92,63.47q-3.25,0-4.68-1.46a3.86,3.86,0,0,1-1.06-2.86,7.73,7.73,0,0,1,.11-1.26l1.9-10.84,5.12-2.13-.81,4.68h7.73l-.7,3.95H80.81l-.56,3.16a4.71,4.71,0,0,0-.11,1q0,1.77,1.68,1.76a1.84,1.84,0,0,0,1.5-.76,4.44,4.44,0,0,0,.83-2h4.65Q87.61,63.47,80.92,63.47Z"/><path d="M103.88,52.47a6.09,6.09,0,0,1-1,3.16l-.31.39H98.39a2.09,2.09,0,0,0,.7-1.6,1.12,1.12,0,0,0-.32-.83,1.19,1.19,0,0,0-.88-.32,2,2,0,0,0-1.65,1l-1.57,8.85H89.91l2.38-13.47h4.42l-.34,1.88a4.65,4.65,0,0,1,3.86-2.27,3.83,3.83,0,0,1,2.73.87A3.13,3.13,0,0,1,103.88,52.47Z"/><path d="M117.82,58.77a.65.65,0,0,0,.74.73,2.52,2.52,0,0,0,1.25-.28l-.14,3.16a4.67,4.67,0,0,1-3,1.09q-3.08,0-3.42-2.24a4.55,4.55,0,0,1-4.12,2.24q-4.59,0-4.59-3.95a8.76,8.76,0,0,1,.14-1.48l.59-3.28a7,7,0,0,1,2.06-4,5.92,5.92,0,0,1,4.2-1.5q2.59,0,3.51,1.2l.14-.84h4.26l-1.57,8.82A2.06,2.06,0,0,0,117.82,58.77Zm-8.29-1.34a3.34,3.34,0,0,0-.06.7,1.28,1.28,0,0,0,.42.88,1.91,1.91,0,0,0,1.41.43,2.28,2.28,0,0,0,1.72-.78l.84-4.7q-.31-.7-1.46-.7a2.29,2.29,0,0,0-2.52,2.07Z"/><path d="M135.55,52.52a2.88,2.88,0,0,1-.56,1.71h-4.59a.66.66,0,0,0,.22-.56.71.71,0,0,0-.45-.63A2.44,2.44,0,0,0,129,52.8q-2.1,0-2.1,1.29,0,.5.78.73a12.75,12.75,0,0,0,1.9.36,21.15,21.15,0,0,1,2.24.41,3.93,3.93,0,0,1,1.9,1,2.84,2.84,0,0,1,.78,2.1,3.94,3.94,0,0,1-1.86,3.53,10,10,0,0,1-5.42,1.2q-3.56,0-5-1.15a3,3,0,0,1-1.12-2.46,5.25,5.25,0,0,1,.08-.92l4.68-.06q-.06.39.46.69a3.16,3.16,0,0,0,1.53.29,3.69,3.69,0,0,0,1.46-.21.8.8,0,0,0,.45-.8q0-.39-.78-.55T127.1,58a19,19,0,0,1-2.27-.36,3.73,3.73,0,0,1-1.92-1.06,2.94,2.94,0,0,1-.78-2.13,4.49,4.49,0,0,1,2-3.92,9.93,9.93,0,0,1,5.7-1.37Q135.54,49.19,135.55,52.52Z"/><path d="M150.58,63.47q-4,0-5.49-1.85a5.48,5.48,0,0,1-1-3.53,12.74,12.74,0,0,1,.22-2.27l1-5.6q1.32-7.5,9.18-7.5a7.58,7.58,0,0,1,4.93,1.39,4.65,4.65,0,0,1,1.68,3.79,7.75,7.75,0,0,1-.27,2,8.36,8.36,0,0,1-.52,1.51l-.28.5h-5a3.87,3.87,0,0,0,.73-2.32q0-2.52-2.1-2.52-2.83,0-3.39,3.28l-1,5.38a8.1,8.1,0,0,0-.14,1.48q0,1.93,2.28,1.93a2.81,2.81,0,0,0,2.93-2.3h-2.3l.56-3.11h7.42l-.45,2.41-.14.81Q158.31,63.47,150.58,63.47Z"/><path d="M174.94,58.77a.65.65,0,0,0,.74.73,2.52,2.52,0,0,0,1.25-.28l-.14,3.16a4.67,4.67,0,0,1-3,1.09q-3.08,0-3.42-2.24a4.55,4.55,0,0,1-4.12,2.24q-4.59,0-4.59-3.95a8.76,8.76,0,0,1,.14-1.48l.59-3.28a7,7,0,0,1,2.06-4,5.92,5.92,0,0,1,4.2-1.5q2.59,0,3.51,1.2l.14-.84h4.26L175,58.43A2.06,2.06,0,0,0,174.94,58.77Zm-8.29-1.34a3.34,3.34,0,0,0-.06.7A1.28,1.28,0,0,0,167,59a1.91,1.91,0,0,0,1.41.43,2.28,2.28,0,0,0,1.72-.78l.84-4.7q-.31-.7-1.46-.7A2.29,2.29,0,0,0,167,55.32Z"/><path d="M192.24,52.47a6.09,6.09,0,0,1-1,3.16L191,56h-4.23a2.09,2.09,0,0,0,.7-1.6,1.12,1.12,0,0,0-.32-.83,1.19,1.19,0,0,0-.88-.32,2,2,0,0,0-1.65,1L183,63.08h-4.76l2.38-13.47h4.42l-.34,1.88a4.65,4.65,0,0,1,3.86-2.27,3.83,3.83,0,0,1,2.73.87A3.13,3.13,0,0,1,192.24,52.47Z"/><path d="M206.19,58.77a.65.65,0,0,0,.74.73,2.53,2.53,0,0,0,1.25-.28L208,62.38a4.67,4.67,0,0,1-3,1.09q-3.08,0-3.42-2.24a4.55,4.55,0,0,1-4.12,2.24q-4.59,0-4.59-3.95A8.76,8.76,0,0,1,193,58l.59-3.28a7,7,0,0,1,2.06-4,5.92,5.92,0,0,1,4.2-1.5q2.59,0,3.51,1.2l.14-.84h4.26l-1.57,8.82A2.06,2.06,0,0,0,206.19,58.77Zm-8.29-1.34a3.42,3.42,0,0,0-.06.7,1.28,1.28,0,0,0,.42.88,1.91,1.91,0,0,0,1.41.43,2.28,2.28,0,0,0,1.72-.78l.84-4.7q-.31-.7-1.46-.7a2.29,2.29,0,0,0-2.52,2.07Z"/><path d="M219.42,69.15a7.12,7.12,0,0,1-5,2.07,6.37,6.37,0,0,1-4.07-1,3.36,3.36,0,0,1-1.25-2.72q0-2.47,3.14-4.28a3.36,3.36,0,0,1-2.38-3.61A9.48,9.48,0,0,1,210,58l.56-3.28a6.92,6.92,0,0,1,2.07-4,6,6,0,0,1,4.21-1.5q2.59,0,3.54,1.26l.17-.9h4.17l-2.46,13.92A9.77,9.77,0,0,1,219.42,69.15ZM215,67.22q1.82,0,2.38-3.3l.28-1.62Q213.8,64.11,213.8,66a1.29,1.29,0,0,0,.32.91A1.18,1.18,0,0,0,215,67.22Zm-.2-9.8a3.42,3.42,0,0,0-.06.7,1.28,1.28,0,0,0,.42.88,1.91,1.91,0,0,0,1.41.43,2.28,2.28,0,0,0,1.72-.78l.84-4.7a1.55,1.55,0,0,0-1.48-.7,2.44,2.44,0,0,0-1.71.56,2.57,2.57,0,0,0-.78,1.51Z"/><path d="M231.16,63.47q-5.82,0-5.82-4a7,7,0,0,1,.11-1.2l.59-3.47a6.19,6.19,0,0,1,2.48-4.13,8.89,8.89,0,0,1,5.31-1.44q5.63,0,5.63,4.26a8.94,8.94,0,0,1-.11,1.34l-.34,2h-8.54l-.11.64a3.8,3.8,0,0,0-.06.62q0,1.54,1.82,1.54a1.67,1.67,0,0,0,1.15-.42,1.61,1.61,0,0,0,.56-1l4.65.06Q237.55,63.47,231.16,63.47Zm3.36-8.4a3.84,3.84,0,0,0,.11-.88,1.28,1.28,0,0,0-.36-.83,1.46,1.46,0,0,0-1.16-.42,2.26,2.26,0,0,0-1.46.53,2.8,2.8,0,0,0-.91,1.6Z"/><path d="M82.65,81.48l-1.91,5.35a.21.21,0,0,1-.2.11.2.2,0,0,1-.19-.11l-1.91-5.35v5.3c0,.11-.06.16-.2.16s-.2,0-.2-.16V80.35c0-.17.32-.21.39,0l2.11,5.9,2.12-5.9c.06-.17.39-.13.39,0v6.43a.19.19,0,0,1-.2.16c-.14,0-.2,0-.2-.16Z"/><path d="M84.12,82a1.79,1.79,0,0,1,3.59,0v3.17a1.68,1.68,0,0,1-.59,1.45,2.31,2.31,0,0,1-2.41,0,1.68,1.68,0,0,1-.59-1.45Zm.39,3.17c0,1,.46,1.48,1.4,1.48s1.4-.44,1.4-1.48V82c0-1-.46-1.47-1.4-1.47S84.5,81,84.5,82Z"/><path d="M92.52,80.19c.11,0,.2.07.2.15s-.06.16-.2.16H90.71v6.27a.19.19,0,0,1-.2.16c-.14,0-.2,0-.2-.16V80.5H88.48a.16.16,0,1,1,0-.31Z"/><path d="M93.47,82a1.79,1.79,0,0,1,3.59,0v3.17a1.68,1.68,0,0,1-.59,1.45,2.31,2.31,0,0,1-2.41,0,1.68,1.68,0,0,1-.59-1.45Zm.39,3.17c0,1,.46,1.48,1.4,1.48s1.4-.44,1.4-1.48V82c0-1-.46-1.47-1.4-1.47s-1.4.47-1.4,1.47Z"/><path d="M101.45,86.76c0,.11-.06.16-.2.16a.18.18,0,0,1-.19-.16V85.05c0-.83-.57-1.29-1.57-1.29H98.37v3c0,.11-.06.16-.2.16a.18.18,0,0,1-.19-.16V80.34a.18.18,0,0,1,.19-.15h1.33c1.34,0,1.95.55,1.95,1.78a1.75,1.75,0,0,1-.46,1.35,1.32,1.32,0,0,1-.51.3,1.81,1.81,0,0,1,.44.25,1.42,1.42,0,0,1,.55,1.19ZM98.37,80.5v3h1.13c1.09,0,1.55-.41,1.55-1.49s-.45-1.47-1.55-1.47Z"/><path d="M102.42,82a1.69,1.69,0,0,1,.59-1.45,2.37,2.37,0,0,1,2.41,0A1.69,1.69,0,0,1,106,82c0,.11-.06.16-.2.16s-.2-.05-.2-.16c0-1-.45-1.47-1.4-1.47s-1.4.47-1.4,1.47v3.17c0,1,.5,1.48,1.4,1.48s1.4-.48,1.4-1.48c0-.11.06-.16.2-.16s.2,0,.2.16a1.68,1.68,0,0,1-.59,1.45,2.31,2.31,0,0,1-2.41,0,1.68,1.68,0,0,1-.59-1.45Z"/><path d="M109.35,83.59v3.18a.21.21,0,0,1-.4,0V83.59l-2.17-3.18a.14.14,0,0,1,.08-.21.25.25,0,0,1,.27.06l2,3,2-3a.23.23,0,0,1,.26-.06c.1,0,.14.14.08.21Z"/><path d="M112.18,82a1.69,1.69,0,0,1,.59-1.45,2.37,2.37,0,0,1,2.41,0,1.69,1.69,0,0,1,.59,1.45c0,.11-.06.16-.2.16s-.2-.05-.2-.16c0-1-.45-1.47-1.4-1.47s-1.4.47-1.4,1.47v3.17c0,1,.5,1.48,1.4,1.48s1.4-.48,1.4-1.48c0-.11.06-.16.2-.16s.2,0,.2.16a1.68,1.68,0,0,1-.59,1.45,2.31,2.31,0,0,1-2.41,0,1.68,1.68,0,0,1-.59-1.45Z"/><path d="M116.74,86.93c-.14,0-.2,0-.2-.16V80.35a.18.18,0,0,1,.2-.15.18.18,0,0,1,.19.15v6.28h2.64c.11,0,.2.07.2.15s-.06.16-.2.16Z"/><path d="M120.82,83.71v2.91h2.44c.11,0,.2.07.2.15s-.06.16-.2.16h-2.62c-.14,0-.2,0-.2-.16V80.35a.18.18,0,0,1,.2-.15h2.62a.18.18,0,0,1,.2.15c0,.11-.06.16-.2.16h-2.44v2.9h2.44c.14,0,.2,0,.2.16a.18.18,0,0,1-.2.15Z"/><path d="M131.77,81.48l-1.91,5.35a.21.21,0,0,1-.2.11.2.2,0,0,1-.19-.11l-1.91-5.35v5.3c0,.11-.06.16-.2.16s-.2,0-.2-.16V80.35c0-.17.32-.21.39,0l2.11,5.9,2.12-5.9c.06-.17.39-.13.39,0v6.43a.19.19,0,0,1-.2.16c-.14,0-.2,0-.2-.16Z"/><path d="M137.38,86.74c0,.08-.05.16-.15.19h0a.17.17,0,0,1-.19-.12l-.56-1.94h-2.21l-.56,1.94a.21.21,0,0,1-.24.12c-.11,0-.19-.11-.15-.19l1.86-6.43a.17.17,0,0,1,.19-.12c.11,0,.17,0,.2.12ZM135.32,81l-1,3.52h2Z"/><path d="M141.69,86.93a.17.17,0,0,1-.17-.1l-2.86-5.67v5.61c0,.11-.06.16-.2.16s-.2,0-.2-.16V80.35c0-.17.3-.21.39-.05L141.49,86V80.35a.21.21,0,0,1,.4,0v6.43c0,.09,0,.14-.16.16Z"/><path d="M142.87,80.34c0-.08.09-.15.2-.15a.18.18,0,0,1,.19.15v4.94a1.29,1.29,0,0,0,.44,1.12,1.73,1.73,0,0,0,1.69,0,1.29,1.29,0,0,0,.44-1.12V80.34a.18.18,0,0,1,.19-.15c.11,0,.2.07.2.15v4.94a1.53,1.53,0,0,1-.54,1.33,1.82,1.82,0,0,1-1.12.32,1.78,1.78,0,0,1-1.11-.32,1.53,1.53,0,0,1-.56-1.33Z"/><path d="M147.8,83.4h2.44c.14,0,.2,0,.2.16a.18.18,0,0,1-.2.15H147.8v3.06a.18.18,0,0,1-.19.16c-.14,0-.2,0-.2-.16V80.35a.18.18,0,0,1,.2-.15h2.62a.18.18,0,0,1,.2.15c0,.11-.06.16-.2.16H147.8Z"/><path d="M155.48,86.74c0,.08-.05.16-.15.19h0a.17.17,0,0,1-.19-.12l-.56-1.94h-2.21l-.56,1.94a.21.21,0,0,1-.24.12c-.11,0-.19-.11-.15-.19l1.86-6.43a.17.17,0,0,1,.19-.12c.11,0,.17,0,.2.12ZM153.42,81l-1,3.52h2Z"/><path d="M156.35,82a1.69,1.69,0,0,1,.59-1.45,2.37,2.37,0,0,1,2.41,0,1.69,1.69,0,0,1,.59,1.45c0,.11-.06.16-.2.16s-.2-.05-.2-.16c0-1-.45-1.47-1.4-1.47s-1.4.47-1.4,1.47v3.17c0,1,.5,1.48,1.4,1.48s1.4-.48,1.4-1.48c0-.11.06-.16.2-.16s.2,0,.2.16a1.68,1.68,0,0,1-.59,1.45,2.31,2.31,0,0,1-2.41,0,1.68,1.68,0,0,1-.59-1.45Z"/><path d="M164.7,80.19c.11,0,.2.07.2.15s-.06.16-.2.16h-1.81v6.27a.19.19,0,0,1-.2.16c-.14,0-.2,0-.2-.16V80.5h-1.82a.16.16,0,1,1,0-.31Z"/><path d="M165.64,80.34c0-.08.09-.15.2-.15a.18.18,0,0,1,.19.15v4.94a1.29,1.29,0,0,0,.44,1.12,1.73,1.73,0,0,0,1.69,0,1.29,1.29,0,0,0,.44-1.12V80.34a.18.18,0,0,1,.19-.15c.11,0,.2.07.2.15v4.94a1.53,1.53,0,0,1-.54,1.33,1.82,1.82,0,0,1-1.12.32,1.78,1.78,0,0,1-1.11-.32,1.53,1.53,0,0,1-.56-1.33Z"/><path d="M173.64,86.76c0,.11-.06.16-.2.16a.18.18,0,0,1-.19-.16V85.05c0-.83-.57-1.29-1.57-1.29h-1.12v3c0,.11-.06.16-.2.16a.18.18,0,0,1-.19-.16V80.34a.18.18,0,0,1,.19-.15h1.33c1.34,0,1.95.55,1.95,1.78a1.75,1.75,0,0,1-.46,1.35,1.32,1.32,0,0,1-.51.3,1.81,1.81,0,0,1,.44.25,1.42,1.42,0,0,1,.55,1.19Zm-3.09-6.27v3h1.13c1.09,0,1.55-.41,1.55-1.49s-.45-1.47-1.55-1.47Z"/><path d="M175,83.71v2.91h2.44c.11,0,.2.07.2.15s-.06.16-.2.16h-2.62c-.14,0-.2,0-.2-.16V80.35a.18.18,0,0,1,.2-.15h2.62a.18.18,0,0,1,.2.15c0,.11-.06.16-.2.16H175v2.9h2.44c.14,0,.2,0,.2.16a.18.18,0,0,1-.2.15Z"/><path d="M220.1,31.27c-1.4-5.58-11.88-9.38-18.31-11.21L135.84,1.27a33.12,33.12,0,0,0-18.16,0L51.73,20.05c-.57.16-1.24.34-2,.53-5.82,1.51-15.33,4-16.39,10.68H0v2.5H253.52v-2.5ZM51,25.42c.78-.2,1.49-.39,2.1-.56L119,6.08a28.14,28.14,0,0,1,15.42,0l65.94,18.79c7.39,2.11,12.21,4.69,14,6.4H38.6C40.2,28.23,47.35,26.37,51,25.42Z"/><path d="M253.52,74.75H0v2.5H33.3c.65,7.08,10.49,9.64,16.46,11.18.74.19,1.41.36,2,.53l65.94,18.79a33.12,33.12,0,0,0,18.16,0L201.79,89c6.62-1.89,17.54-5.86,18.41-11.71h33.32Zm-53.1,9.4-65.94,18.79a28.13,28.13,0,0,1-15.42,0L53.1,84.15c-.6-.17-1.31-.36-2.1-.56-3.86-1-11.59-3-12.63-6.34H214.91C213.6,78.92,208.57,81.83,200.42,84.15Z"/><path d="M86.36,21.6c0-1.54.64-2.35,1.91-2.35s1.91.81,1.91,2.35c0,.15-.07.21-.21.21s-.21-.07-.21-.21a2.1,2.1,0,0,0-.5-1.62,1.67,1.67,0,0,0-2,0,2.1,2.1,0,0,0-.52,1.62v4.24c0,1.33.53,2,1.5,2s1.49-.58,1.49-2V24.67H88c-.15,0-.21-.07-.21-.21s.07-.21.21-.21H90c.15,0,.21.07.21.21v1.38c0,1.54-.65,2.37-1.91,2.37s-1.91-.82-1.91-2.37Z"/><path d="M91.33,28.21c-.16,0-.23-.07-.23-.23V18.9a.22.22,0,0,1,.23-.21h1.4c1.51,0,2.2.88,2.2,2.57v4.38c0,1.69-.69,2.57-2.2,2.57Zm.21-9.08v8.64h1.19c1.23,0,1.75-.66,1.75-2.13V21.26c0-1.47-.52-2.13-1.75-2.13Z"/><path d="M101,27.92c0,.12-.06.24-.18.28h-.06a.21.21,0,0,1-.22-.18l-.67-2.9H97.18L96.51,28c0,.12-.16.22-.28.18a.23.23,0,0,1-.18-.28l2.23-9.6a.21.21,0,0,1,.22-.18.22.22,0,0,1,.24.18ZM98.5,19.41l-1.21,5.26h2.44Z"/><path d="M106.38,28.21a.21.21,0,0,1-.23-.16l-3.75-9.29v9.19c0,.18-.08.26-.26.26a.23.23,0,0,1-.26-.26V17.41a.26.26,0,0,1,.51-.08l3.74,9.29V17.41a.26.26,0,0,1,.52,0V27.94a.24.24,0,0,1-.21.26Z"/><path d="M110.56,22.45l-.31-.15a4,4,0,0,1-1.45-.92,3,3,0,0,1-.93-2.27c0-1.85.93-3.28,2.64-3.28s2.66,1.14,2.66,3.28a.29.29,0,1,1-.59,0c0-1.85-.68-2.71-2.07-2.71s-2.07,1.12-2.07,2.71a2.4,2.4,0,0,0,.77,1.87,4,4,0,0,0,1.28.79l.29.13a5.11,5.11,0,0,1,1.43.86,2.92,2.92,0,0,1,1,2.25,3.72,3.72,0,0,1-.66,2.24,2.36,2.36,0,0,1-2,.93c-1.76,0-2.64-1.14-2.64-3.26,0-.2.09-.29.29-.29a.29.29,0,0,1,.27.29,2.89,2.89,0,0,0,.71,2.24,1.89,1.89,0,0,0,1.36.46c1.32,0,2.07-1,2.07-2.6a2.39,2.39,0,0,0-.77-1.85,3.05,3.05,0,0,0-.68-.44Z"/><path d="M116.39,21.53l3.5,6.25a.29.29,0,0,1-.11.38l-.15,0a.29.29,0,0,1-.26-.15l-3.35-6-1.25,1.87v4a.29.29,0,0,1-.28.29.25.25,0,0,1-.29-.29V16.13a.29.29,0,0,1,.29-.27.28.28,0,0,1,.28.27v6.74L119.39,16a.3.3,0,0,1,.4-.09.29.29,0,0,1,.07.4Z"/><path d="M134.15,16.13a.29.29,0,0,1,.29-.27h1.94c2,0,2.86,1,2.86,3.23s-.88,3.23-2.86,3.23h-1.65v5.61a.25.25,0,0,1-.29.29c-.2,0-.29-.09-.29-.29Zm.59.29v5.31h1.65c1.59,0,2.27-.75,2.27-2.66s-.66-2.66-2.27-2.66Z"/><path d="M140.38,19.12c0-2.11.88-3.26,2.62-3.26s2.64,1.14,2.64,3.26v5.81a3.46,3.46,0,0,1-.86,2.66,2.82,2.82,0,0,1-3.54,0,3.46,3.46,0,0,1-.86-2.66Zm.57,5.81c0,1.85.68,2.71,2.05,2.71s2.05-.81,2.05-2.71V19.12c0-1.89-.68-2.69-2.05-2.69s-2.05.86-2.05,2.69Z"/><path d="M146.94,28.21a.24.24,0,0,1-.28-.28V16.76a.27.27,0,0,1,.28-.26.27.27,0,0,1,.26.26V27.67h3.66a.27.27,0,0,1,.28.26c0,.19-.09.28-.28.28Z"/><path d="M156.81,27.92c0,.12-.06.24-.18.28h-.06a.21.21,0,0,1-.22-.18l-.67-2.9H153l-.67,2.9c0,.12-.16.22-.28.18a.23.23,0,0,1-.18-.28l2.23-9.6a.21.21,0,0,1,.22-.18.22.22,0,0,1,.24.18Zm-2.46-8.51-1.21,5.26h2.43Z"/><path d="M161.58,28.21a.18.18,0,0,1-.2-.14l-3.23-8V28c0,.16-.07.23-.23.23s-.23-.07-.23-.23V18.9a.23.23,0,0,1,.44-.07l3.22,8V18.9a.23.23,0,0,1,.45,0V28a.2.2,0,0,1-.18.23Z"/><path d="M163,28.21c-.15,0-.21-.07-.21-.21V19.45a.21.21,0,0,1,.21-.2h1.32c1.42,0,2.07.82,2.07,2.42v4.12c0,1.59-.65,2.42-2.07,2.42Zm.2-8.55v8.13h1.12c1.16,0,1.65-.62,1.65-2V21.67c0-1.38-.49-2-1.65-2Z"/><polygon points="126.38 18.88 127.24 20.63 129.17 20.91 127.78 22.27 128.11 24.19 126.38 23.28 124.66 24.19 124.99 22.27 123.59 20.91 125.52 20.63 126.38 18.88"/><rect x="99.79" y="91.25" width="54.75" height="0.5"/><rect x="108.17" y="94.59" width="38" height="0.5"/><rect x="116.04" y="97.92" width="22.25" height="0.5"/></g></g></svg>