<?xml version="1.0" encoding="UTF-8" standalone="no"?>
<!-- Created with Inkscape (http://www.inkscape.org/) -->

<svg
   xmlns:dc="http://purl.org/dc/elements/1.1/"
   xmlns:cc="http://creativecommons.org/ns#"
   xmlns:rdf="http://www.w3.org/1999/02/22-rdf-syntax-ns#"
   xmlns:svg="http://www.w3.org/2000/svg"
   xmlns="http://www.w3.org/2000/svg"
   xmlns:sodipodi="http://sodipodi.sourceforge.net/DTD/sodipodi-0.dtd"
   xmlns:inkscape="http://www.inkscape.org/namespaces/inkscape"
   width="210mm"
   height="297mm"
   viewBox="0 0 210 297"
   version="1.1"
   id="svg8"
   inkscape:version="0.92.1 r15371">
  <defs
     id="defs2" />
  <sodipodi:namedview
     id="base"
     pagecolor="#ffffff"
     bordercolor="#666666"
     borderopacity="1.0"
     inkscape:pageopacity="0.0"
     inkscape:pageshadow="2"
     inkscape:zoom="4.65"
     inkscape:cx="558.60617"
     inkscape:cy="909.72763"
     inkscape:document-units="mm"
     inkscape:current-layer="layer1"
     showgrid="false"
     inkscape:window-width="1920"
     inkscape:window-height="1017"
     inkscape:window-x="-8"
     inkscape:window-y="-8"
     inkscape:window-maximized="1" />
  <metadata
     id="metadata5">
    <rdf:RDF>
      <cc:Work
         rdf:about="">
        <dc:format>image/svg+xml</dc:format>
        <dc:type
           rdf:resource="http://purl.org/dc/dcmitype/StillImage" />
        <dc:title></dc:title>
      </cc:Work>
    </rdf:RDF>
  </metadata>
  <g
     inkscape:label="Layer 1"
     inkscape:groupmode="layer"
     id="layer1">
    <g
       data-name="Layer 2"
       id="Layer_2"
       transform="matrix(0.26458333,0,0,0.26458333,113.87213,38.404944)"
       style="stroke:#665600;stroke-opacity:1;fill:#665600;fill-opacity:0.7610063;fill-rule:nonzero">
      <g
         id="napisy"
         style="stroke:#665600;stroke-opacity:1;fill:#665600;fill-opacity:0.7610063;fill-rule:nonzero">
        <path
           id="path3682"
           d="m 24.42,63.08 0.17,-4.4 h -4.68 l -1.37,4.4 h -5.35 l 7.2,-20.16 h 9.24 l 0.11,20.16 z m -1.15,-15.26 -2.21,7.11 h 3.67 L 25,47.82 Z"
           inkscape:connector-curvature="0"
           style="stroke:#665600;stroke-opacity:1;fill:#665600;fill-opacity:0.7610063;fill-rule:nonzero" />
        <path
           id="path3684"
           d="m 37.69,58.77 a 0.65,0.65 0 0 0 0.74,0.73 2.53,2.53 0 0 0 1.25,-0.28 l -0.14,3.16 a 4.67,4.67 0 0 1 -3,1.09 q -2.55,0 -3.3,-1.18 a 3,3 0 0 1 -0.48,-1.65 9.71,9.71 0 0 1 0.11,-1.57 L 35.9,41.83 h 4.76 l -2.94,16.6 a 2.06,2.06 0 0 0 -0.03,0.34 z"
           inkscape:connector-curvature="0"
           style="stroke:#665600;stroke-opacity:1;fill:#665600;fill-opacity:0.7610063;fill-rule:nonzero" />
        <path
           id="path3686"
           d="M 54.82,59.49 A 2.32,2.32 0 0 0 56,59.21 l -0.14,3.16 a 4.88,4.88 0 0 1 -3.22,1.09 3.61,3.61 0 0 1 -2.81,-1 7.4,7.4 0 0 1 -1.41,-3.39 l -0.08,-0.39 q -0.59,0.08 -1.76,0.14 l -0.76,4.26 H 41 l 3.75,-21.25 h 4.76 L 47.91,51 a 5.75,5.75 0 0 1 4.48,-1.82 3.76,3.76 0 0 1 2.81,0.94 3.45,3.45 0 0 1 0.91,2.51 q 0,3 -3.16,4.73 l 0.31,1 a 1.44,1.44 0 0 0 1.56,1.13 z M 50,53 a 3.43,3.43 0 0 0 -2.69,1.43 L 47,56.3 q 4.14,-0.17 4.14,-2.21 A 1,1 0 0 0 50.85,53.32 1.16,1.16 0 0 0 50,53 Z"
           inkscape:connector-curvature="0"
           style="stroke:#665600;stroke-opacity:1;fill:#665600;fill-opacity:0.7610063;fill-rule:nonzero" />
        <path
           id="path3688"
           d="m 71.2,58.77 a 0.65,0.65 0 0 0 0.74,0.73 2.52,2.52 0 0 0 1.25,-0.28 l -0.14,3.16 a 4.67,4.67 0 0 1 -3,1.09 q -3.08,0 -3.42,-2.24 a 4.55,4.55 0 0 1 -4.12,2.24 q -4.59,0 -4.59,-3.95 A 8.76,8.76 0 0 1 58,58 l 0.59,-3.28 a 7,7 0 0 1 2.06,-4 5.92,5.92 0 0 1 4.2,-1.5 q 2.59,0 3.51,1.2 l 0.14,-0.84 h 4.3 l -1.57,8.82 a 2.06,2.06 0 0 0 -0.03,0.37 z m -8.29,-1.34 a 3.34,3.34 0 0 0 -0.06,0.7 1.28,1.28 0 0 0 0.42,0.88 1.91,1.91 0 0 0 1.41,0.43 2.28,2.28 0 0 0 1.72,-0.78 l 0.84,-4.7 q -0.31,-0.7 -1.46,-0.7 a 2.29,2.29 0 0 0 -2.52,2.07 z"
           inkscape:connector-curvature="0"
           style="stroke:#665600;stroke-opacity:1;fill:#665600;fill-opacity:0.7610063;fill-rule:nonzero" />
        <path
           id="path3690"
           d="m 80.92,63.47 q -3.25,0 -4.68,-1.46 a 3.86,3.86 0 0 1 -1.06,-2.86 7.73,7.73 0 0 1 0.11,-1.26 l 1.9,-10.84 5.12,-2.13 -0.81,4.68 h 7.73 l -0.7,3.95 h -7.72 l -0.56,3.16 a 4.71,4.71 0 0 0 -0.11,1 q 0,1.77 1.68,1.76 a 1.84,1.84 0 0 0 1.5,-0.76 4.44,4.44 0 0 0 0.83,-2 h 4.65 q -1.19,6.76 -7.88,6.76 z"
           inkscape:connector-curvature="0"
           style="stroke:#665600;stroke-opacity:1;fill:#665600;fill-opacity:0.7610063;fill-rule:nonzero" />
        <path
           id="path3692"
           d="m 103.88,52.47 a 6.09,6.09 0 0 1 -1,3.16 l -0.31,0.39 h -4.18 a 2.09,2.09 0 0 0 0.7,-1.6 1.12,1.12 0 0 0 -0.32,-0.83 1.19,1.19 0 0 0 -0.88,-0.32 2,2 0 0 0 -1.65,1 l -1.57,8.85 h -4.76 l 2.38,-13.47 h 4.42 l -0.34,1.88 a 4.65,4.65 0 0 1 3.86,-2.27 3.83,3.83 0 0 1 2.73,0.87 3.13,3.13 0 0 1 0.92,2.34 z"
           inkscape:connector-curvature="0"
           style="stroke:#665600;stroke-opacity:1;fill:#665600;fill-opacity:0.7610063;fill-rule:nonzero" />
        <path
           id="path3694"
           d="m 117.82,58.77 a 0.65,0.65 0 0 0 0.74,0.73 2.52,2.52 0 0 0 1.25,-0.28 l -0.14,3.16 a 4.67,4.67 0 0 1 -3,1.09 q -3.08,0 -3.42,-2.24 a 4.55,4.55 0 0 1 -4.12,2.24 q -4.59,0 -4.59,-3.95 a 8.76,8.76 0 0 1 0.14,-1.48 l 0.59,-3.28 a 7,7 0 0 1 2.06,-4 5.92,5.92 0 0 1 4.2,-1.5 q 2.59,0 3.51,1.2 l 0.14,-0.84 h 4.26 l -1.57,8.82 a 2.06,2.06 0 0 0 -0.05,0.33 z m -8.29,-1.34 a 3.34,3.34 0 0 0 -0.06,0.7 1.28,1.28 0 0 0 0.42,0.88 1.91,1.91 0 0 0 1.41,0.43 2.28,2.28 0 0 0 1.72,-0.78 l 0.84,-4.7 q -0.31,-0.7 -1.46,-0.7 a 2.29,2.29 0 0 0 -2.52,2.07 z"
           inkscape:connector-curvature="0"
           style="stroke:#665600;stroke-opacity:1;fill:#665600;fill-opacity:0.7610063;fill-rule:nonzero" />
        <path
           id="path3696"
           d="m 135.55,52.52 a 2.88,2.88 0 0 1 -0.56,1.71 h -4.59 a 0.66,0.66 0 0 0 0.22,-0.56 0.71,0.71 0 0 0 -0.45,-0.63 A 2.44,2.44 0 0 0 129,52.8 q -2.1,0 -2.1,1.29 0,0.5 0.78,0.73 a 12.75,12.75 0 0 0 1.9,0.36 21.15,21.15 0 0 1 2.24,0.41 3.93,3.93 0 0 1 1.9,1 2.84,2.84 0 0 1 0.78,2.1 3.94,3.94 0 0 1 -1.86,3.53 10,10 0 0 1 -5.42,1.2 q -3.56,0 -5,-1.15 a 3,3 0 0 1 -1.12,-2.46 5.25,5.25 0 0 1 0.08,-0.92 l 4.68,-0.06 q -0.06,0.39 0.46,0.69 a 3.16,3.16 0 0 0 1.53,0.29 3.69,3.69 0 0 0 1.46,-0.21 0.8,0.8 0 0 0 0.45,-0.8 q 0,-0.39 -0.78,-0.55 Q 128.2,58.09 127.1,58 a 19,19 0 0 1 -2.27,-0.36 3.73,3.73 0 0 1 -1.92,-1.06 2.94,2.94 0 0 1 -0.78,-2.13 4.49,4.49 0 0 1 2,-3.92 9.93,9.93 0 0 1 5.7,-1.37 q 5.71,0.03 5.72,3.36 z"
           inkscape:connector-curvature="0"
           style="stroke:#665600;stroke-opacity:1;fill:#665600;fill-opacity:0.7610063;fill-rule:nonzero" />
        <path
           id="path3698"
           d="m 150.58,63.47 q -4,0 -5.49,-1.85 a 5.48,5.48 0 0 1 -1,-3.53 12.74,12.74 0 0 1 0.22,-2.27 l 1,-5.6 q 1.32,-7.5 9.18,-7.5 a 7.58,7.58 0 0 1 4.93,1.39 4.65,4.65 0 0 1 1.68,3.79 7.75,7.75 0 0 1 -0.27,2 8.36,8.36 0 0 1 -0.52,1.51 l -0.28,0.5 h -5 a 3.87,3.87 0 0 0 0.73,-2.32 q 0,-2.52 -2.1,-2.52 -2.83,0 -3.39,3.28 l -1,5.38 a 8.1,8.1 0 0 0 -0.14,1.48 q 0,1.93 2.28,1.93 a 2.81,2.81 0 0 0 2.93,-2.3 h -2.3 l 0.56,-3.11 h 7.42 l -0.45,2.41 -0.14,0.81 q -1.12,6.52 -8.85,6.52 z"
           inkscape:connector-curvature="0"
           style="stroke:#665600;stroke-opacity:1;fill:#665600;fill-opacity:0.7610063;fill-rule:nonzero" />
        <path
           id="path3700"
           d="m 174.94,58.77 a 0.65,0.65 0 0 0 0.74,0.73 2.52,2.52 0 0 0 1.25,-0.28 l -0.14,3.16 a 4.67,4.67 0 0 1 -3,1.09 q -3.08,0 -3.42,-2.24 a 4.55,4.55 0 0 1 -4.12,2.24 q -4.59,0 -4.59,-3.95 a 8.76,8.76 0 0 1 0.14,-1.48 l 0.59,-3.28 a 7,7 0 0 1 2.06,-4 5.92,5.92 0 0 1 4.2,-1.5 q 2.59,0 3.51,1.2 l 0.14,-0.84 h 4.26 L 175,58.43 a 2.06,2.06 0 0 0 -0.06,0.34 z m -8.29,-1.34 a 3.34,3.34 0 0 0 -0.06,0.7 1.28,1.28 0 0 0 0.41,0.87 1.91,1.91 0 0 0 1.41,0.43 2.28,2.28 0 0 0 1.72,-0.78 l 0.84,-4.7 q -0.31,-0.7 -1.46,-0.7 A 2.29,2.29 0 0 0 167,55.32 Z"
           inkscape:connector-curvature="0"
           style="stroke:#665600;stroke-opacity:1;fill:#665600;fill-opacity:0.7610063;fill-rule:nonzero" />
        <path
           id="path3702"
           d="m 192.24,52.47 a 6.09,6.09 0 0 1 -1,3.16 L 191,56 h -4.23 a 2.09,2.09 0 0 0 0.7,-1.6 1.12,1.12 0 0 0 -0.32,-0.83 1.19,1.19 0 0 0 -0.88,-0.32 2,2 0 0 0 -1.65,1 L 183,63.08 h -4.76 l 2.38,-13.47 h 4.42 l -0.34,1.88 a 4.65,4.65 0 0 1 3.86,-2.27 3.83,3.83 0 0 1 2.73,0.87 3.13,3.13 0 0 1 0.95,2.38 z"
           inkscape:connector-curvature="0"
           style="stroke:#665600;stroke-opacity:1;fill:#665600;fill-opacity:0.7610063;fill-rule:nonzero" />
        <path
           id="path3704"
           d="m 206.19,58.77 a 0.65,0.65 0 0 0 0.74,0.73 2.53,2.53 0 0 0 1.25,-0.28 L 208,62.38 a 4.67,4.67 0 0 1 -3,1.09 q -3.08,0 -3.42,-2.24 a 4.55,4.55 0 0 1 -4.12,2.24 q -4.59,0 -4.59,-3.95 A 8.76,8.76 0 0 1 193,58 l 0.59,-3.28 a 7,7 0 0 1 2.06,-4 5.92,5.92 0 0 1 4.2,-1.5 q 2.59,0 3.51,1.2 l 0.14,-0.84 h 4.26 l -1.57,8.82 a 2.06,2.06 0 0 0 0,0.37 z m -8.29,-1.34 a 3.42,3.42 0 0 0 -0.06,0.7 1.28,1.28 0 0 0 0.42,0.88 1.91,1.91 0 0 0 1.41,0.43 2.28,2.28 0 0 0 1.72,-0.78 l 0.84,-4.7 q -0.31,-0.7 -1.46,-0.7 a 2.29,2.29 0 0 0 -2.52,2.07 z"
           inkscape:connector-curvature="0"
           style="stroke:#665600;stroke-opacity:1;fill:#665600;fill-opacity:0.7610063;fill-rule:nonzero" />
        <path
           id="path3706"
           d="m 219.42,69.15 a 7.12,7.12 0 0 1 -5,2.07 6.37,6.37 0 0 1 -4.07,-1 3.36,3.36 0 0 1 -1.25,-2.72 q 0,-2.47 3.14,-4.28 A 3.36,3.36 0 0 1 209.86,59.61 9.48,9.48 0 0 1 210,58 l 0.56,-3.28 a 6.92,6.92 0 0 1 2.07,-4 6,6 0 0 1 4.21,-1.5 q 2.59,0 3.54,1.26 l 0.17,-0.9 h 4.17 l -2.46,13.92 a 9.77,9.77 0 0 1 -2.84,5.65 z M 215,67.22 q 1.82,0 2.38,-3.3 l 0.28,-1.62 q -3.86,1.81 -3.86,3.7 a 1.29,1.29 0 0 0 0.32,0.91 1.18,1.18 0 0 0 0.88,0.31 z m -0.2,-9.8 a 3.42,3.42 0 0 0 -0.06,0.7 1.28,1.28 0 0 0 0.42,0.88 1.91,1.91 0 0 0 1.41,0.43 2.28,2.28 0 0 0 1.72,-0.78 l 0.84,-4.7 a 1.55,1.55 0 0 0 -1.48,-0.7 2.44,2.44 0 0 0 -1.71,0.56 2.57,2.57 0 0 0 -0.78,1.51 z"
           inkscape:connector-curvature="0"
           style="stroke:#665600;stroke-opacity:1;fill:#665600;fill-opacity:0.7610063;fill-rule:nonzero" />
        <path
           id="path3708"
           d="m 231.16,63.47 q -5.82,0 -5.82,-4 a 7,7 0 0 1 0.11,-1.2 l 0.59,-3.47 a 6.19,6.19 0 0 1 2.48,-4.13 8.89,8.89 0 0 1 5.31,-1.44 q 5.63,0 5.63,4.26 a 8.94,8.94 0 0 1 -0.11,1.34 l -0.34,2 h -8.54 l -0.11,0.64 a 3.8,3.8 0 0 0 -0.06,0.62 q 0,1.54 1.82,1.54 a 1.67,1.67 0 0 0 1.15,-0.42 1.61,1.61 0 0 0 0.56,-1 l 4.65,0.06 q -0.93,5.2 -7.32,5.2 z m 3.36,-8.4 a 3.84,3.84 0 0 0 0.11,-0.88 1.28,1.28 0 0 0 -0.36,-0.83 1.46,1.46 0 0 0 -1.16,-0.42 2.26,2.26 0 0 0 -1.46,0.53 2.8,2.8 0 0 0 -0.91,1.6 z"
           inkscape:connector-curvature="0"
           style="stroke:#665600;stroke-opacity:1;fill:#665600;fill-opacity:0.7610063;fill-rule:nonzero" />
        <path
           id="path3710"
           d="m 82.65,81.48 -1.91,5.35 a 0.21,0.21 0 0 1 -0.2,0.11 0.2,0.2 0 0 1 -0.19,-0.11 l -1.91,-5.35 v 5.3 c 0,0.11 -0.06,0.16 -0.2,0.16 -0.14,0 -0.2,0 -0.2,-0.16 v -6.43 c 0,-0.17 0.32,-0.21 0.39,0 l 2.11,5.9 2.12,-5.9 c 0.06,-0.17 0.39,-0.13 0.39,0 v 6.43 a 0.19,0.19 0 0 1 -0.2,0.16 c -0.14,0 -0.2,0 -0.2,-0.16 z"
           inkscape:connector-curvature="0"
           style="stroke:#665600;stroke-opacity:1;fill:#665600;fill-opacity:0.7610063;fill-rule:nonzero" />
        <path
           id="path3712"
           d="m 84.12,82 a 1.795,1.795 0 0 1 3.59,0 v 3.17 a 1.68,1.68 0 0 1 -0.59,1.45 2.31,2.31 0 0 1 -2.41,0 1.68,1.68 0 0 1 -0.59,-1.45 z m 0.39,3.17 c 0,1 0.46,1.48 1.4,1.48 0.94,0 1.4,-0.44 1.4,-1.48 V 82 c 0,-1 -0.46,-1.47 -1.4,-1.47 -0.94,0 -1.41,0.47 -1.41,1.47 z"
           inkscape:connector-curvature="0"
           style="stroke:#665600;stroke-opacity:1;fill:#665600;fill-opacity:0.7610063;fill-rule:nonzero" />
        <path
           id="path3714"
           d="m 92.52,80.19 c 0.11,0 0.2,0.07 0.2,0.15 0,0.08 -0.06,0.16 -0.2,0.16 h -1.81 v 6.27 a 0.19,0.19 0 0 1 -0.2,0.16 c -0.14,0 -0.2,0 -0.2,-0.16 V 80.5 h -1.83 a 0.16,0.16 0 1 1 0,-0.31 z"
           inkscape:connector-curvature="0"
           style="stroke:#665600;stroke-opacity:1;fill:#665600;fill-opacity:0.7610063;fill-rule:nonzero" />
        <path
           id="path3716"
           d="m 93.47,82 a 1.795,1.795 0 0 1 3.59,0 v 3.17 a 1.68,1.68 0 0 1 -0.59,1.45 2.31,2.31 0 0 1 -2.41,0 1.68,1.68 0 0 1 -0.59,-1.45 z m 0.39,3.17 c 0,1 0.46,1.48 1.4,1.48 0.94,0 1.4,-0.44 1.4,-1.48 V 82 c 0,-1 -0.46,-1.47 -1.4,-1.47 -0.94,0 -1.4,0.47 -1.4,1.47 z"
           inkscape:connector-curvature="0"
           style="stroke:#665600;stroke-opacity:1;fill:#665600;fill-opacity:0.7610063;fill-rule:nonzero" />
        <path
           id="path3718"
           d="m 101.45,86.76 c 0,0.11 -0.06,0.16 -0.2,0.16 a 0.18,0.18 0 0 1 -0.19,-0.16 v -1.71 c 0,-0.83 -0.57,-1.29 -1.57,-1.29 h -1.12 v 3 c 0,0.11 -0.06,0.16 -0.2,0.16 a 0.18,0.18 0 0 1 -0.19,-0.16 v -6.42 a 0.18,0.18 0 0 1 0.19,-0.15 h 1.33 c 1.34,0 1.95,0.55 1.95,1.78 a 1.75,1.75 0 0 1 -0.46,1.35 1.32,1.32 0 0 1 -0.51,0.3 1.81,1.81 0 0 1 0.44,0.25 1.42,1.42 0 0 1 0.55,1.19 z M 98.37,80.5 v 3 h 1.13 c 1.09,0 1.55,-0.41 1.55,-1.49 0,-1.08 -0.45,-1.47 -1.55,-1.47 z"
           inkscape:connector-curvature="0"
           style="stroke:#665600;stroke-opacity:1;fill:#665600;fill-opacity:0.7610063;fill-rule:nonzero" />
        <path
           id="path3720"
           d="m 102.42,82 a 1.69,1.69 0 0 1 0.59,-1.45 2.37,2.37 0 0 1 2.41,0 A 1.69,1.69 0 0 1 106,82 c 0,0.11 -0.06,0.16 -0.2,0.16 -0.14,0 -0.2,-0.05 -0.2,-0.16 0,-1 -0.45,-1.47 -1.4,-1.47 -0.95,0 -1.4,0.47 -1.4,1.47 v 3.17 c 0,1 0.5,1.48 1.4,1.48 0.9,0 1.4,-0.48 1.4,-1.48 0,-0.11 0.06,-0.16 0.2,-0.16 0.14,0 0.2,0 0.2,0.16 a 1.68,1.68 0 0 1 -0.59,1.45 2.31,2.31 0 0 1 -2.41,0 1.68,1.68 0 0 1 -0.59,-1.45 z"
           inkscape:connector-curvature="0"
           style="stroke:#665600;stroke-opacity:1;fill:#665600;fill-opacity:0.7610063;fill-rule:nonzero" />
        <path
           id="path3722"
           d="m 109.35,83.59 v 3.18 a 0.21,0.21 0 0 1 -0.4,0 v -3.18 l -2.17,-3.18 a 0.14,0.14 0 0 1 0.08,-0.21 0.25,0.25 0 0 1 0.27,0.06 l 2,3 2,-3 a 0.23,0.23 0 0 1 0.26,-0.06 c 0.1,0 0.14,0.14 0.08,0.21 z"
           inkscape:connector-curvature="0"
           style="stroke:#665600;stroke-opacity:1;fill:#665600;fill-opacity:0.7610063;fill-rule:nonzero" />
        <path
           id="path3724"
           d="m 112.18,82 a 1.69,1.69 0 0 1 0.59,-1.45 2.37,2.37 0 0 1 2.41,0 1.69,1.69 0 0 1 0.59,1.45 c 0,0.11 -0.06,0.16 -0.2,0.16 -0.14,0 -0.2,-0.05 -0.2,-0.16 0,-1 -0.45,-1.47 -1.4,-1.47 -0.95,0 -1.4,0.47 -1.4,1.47 v 3.17 c 0,1 0.5,1.48 1.4,1.48 0.9,0 1.4,-0.48 1.4,-1.48 0,-0.11 0.06,-0.16 0.2,-0.16 0.14,0 0.2,0 0.2,0.16 a 1.68,1.68 0 0 1 -0.59,1.45 2.31,2.31 0 0 1 -2.41,0 1.68,1.68 0 0 1 -0.59,-1.45 z"
           inkscape:connector-curvature="0"
           style="stroke:#665600;stroke-opacity:1;fill:#665600;fill-opacity:0.7610063;fill-rule:nonzero" />
        <path
           id="path3726"
           d="m 116.74,86.93 c -0.14,0 -0.2,0 -0.2,-0.16 v -6.42 a 0.18,0.18 0 0 1 0.2,-0.15 0.18,0.18 0 0 1 0.19,0.15 v 6.28 h 2.64 c 0.11,0 0.2,0.07 0.2,0.15 0,0.08 -0.06,0.16 -0.2,0.16 z"
           inkscape:connector-curvature="0"
           style="stroke:#665600;stroke-opacity:1;fill:#665600;fill-opacity:0.7610063;fill-rule:nonzero" />
        <path
           id="path3728"
           d="m 120.82,83.71 v 2.91 h 2.44 c 0.11,0 0.2,0.07 0.2,0.15 0,0.08 -0.06,0.16 -0.2,0.16 h -2.62 c -0.14,0 -0.2,0 -0.2,-0.16 v -6.42 a 0.18,0.18 0 0 1 0.2,-0.15 h 2.62 a 0.18,0.18 0 0 1 0.2,0.15 c 0,0.11 -0.06,0.16 -0.2,0.16 h -2.44 v 2.9 h 2.44 c 0.14,0 0.2,0 0.2,0.16 a 0.18,0.18 0 0 1 -0.2,0.15 z"
           inkscape:connector-curvature="0"
           style="stroke:#665600;stroke-opacity:1;fill:#665600;fill-opacity:0.7610063;fill-rule:nonzero" />
        <path
           id="path3730"
           d="m 131.77,81.48 -1.91,5.35 a 0.21,0.21 0 0 1 -0.2,0.11 0.2,0.2 0 0 1 -0.19,-0.11 l -1.91,-5.35 v 5.3 c 0,0.11 -0.06,0.16 -0.2,0.16 -0.14,0 -0.2,0 -0.2,-0.16 v -6.43 c 0,-0.17 0.32,-0.21 0.39,0 l 2.11,5.9 2.12,-5.9 c 0.06,-0.17 0.39,-0.13 0.39,0 v 6.43 a 0.19,0.19 0 0 1 -0.2,0.16 c -0.14,0 -0.2,0 -0.2,-0.16 z"
           inkscape:connector-curvature="0"
           style="stroke:#665600;stroke-opacity:1;fill:#665600;fill-opacity:0.7610063;fill-rule:nonzero" />
        <path
           id="path3732"
           d="m 137.38,86.74 c 0,0.08 -0.05,0.16 -0.15,0.19 v 0 a 0.17,0.17 0 0 1 -0.19,-0.12 l -0.56,-1.94 h -2.21 l -0.56,1.94 a 0.21,0.21 0 0 1 -0.24,0.12 c -0.11,0 -0.19,-0.11 -0.15,-0.19 l 1.86,-6.43 a 0.17,0.17 0 0 1 0.19,-0.12 c 0.11,0 0.17,0 0.2,0.12 z m -2.06,-5.74 -1,3.52 h 2 z"
           inkscape:connector-curvature="0"
           style="stroke:#665600;stroke-opacity:1;fill:#665600;fill-opacity:0.7610063;fill-rule:nonzero" />
        <path
           id="path3734"
           d="m 141.69,86.93 a 0.17,0.17 0 0 1 -0.17,-0.1 l -2.86,-5.67 v 5.61 c 0,0.11 -0.06,0.16 -0.2,0.16 -0.14,0 -0.2,0 -0.2,-0.16 v -6.42 c 0,-0.17 0.3,-0.21 0.39,-0.05 l 2.84,5.7 v -5.65 a 0.21,0.21 0 0 1 0.4,0 v 6.43 c 0,0.09 0,0.14 -0.16,0.16 z"
           inkscape:connector-curvature="0"
           style="stroke:#665600;stroke-opacity:1;fill:#665600;fill-opacity:0.7610063;fill-rule:nonzero" />
        <path
           id="path3736"
           d="m 142.87,80.34 c 0,-0.08 0.09,-0.15 0.2,-0.15 a 0.18,0.18 0 0 1 0.19,0.15 v 4.94 a 1.29,1.29 0 0 0 0.44,1.12 1.73,1.73 0 0 0 1.69,0 1.29,1.29 0 0 0 0.44,-1.12 v -4.94 a 0.18,0.18 0 0 1 0.19,-0.15 c 0.11,0 0.2,0.07 0.2,0.15 v 4.94 a 1.53,1.53 0 0 1 -0.54,1.33 1.82,1.82 0 0 1 -1.12,0.32 1.78,1.78 0 0 1 -1.11,-0.32 1.53,1.53 0 0 1 -0.56,-1.33 z"
           inkscape:connector-curvature="0"
           style="stroke:#665600;stroke-opacity:1;fill:#665600;fill-opacity:0.7610063;fill-rule:nonzero" />
        <path
           id="path3738"
           d="m 147.8,83.4 h 2.44 c 0.14,0 0.2,0 0.2,0.16 a 0.18,0.18 0 0 1 -0.2,0.15 h -2.44 v 3.06 a 0.18,0.18 0 0 1 -0.19,0.16 c -0.14,0 -0.2,0 -0.2,-0.16 v -6.42 a 0.18,0.18 0 0 1 0.2,-0.15 h 2.62 a 0.18,0.18 0 0 1 0.2,0.15 c 0,0.11 -0.06,0.16 -0.2,0.16 h -2.43 z"
           inkscape:connector-curvature="0"
           style="stroke:#665600;stroke-opacity:1;fill:#665600;fill-opacity:0.7610063;fill-rule:nonzero" />
        <path
           id="path3740"
           d="m 155.48,86.74 c 0,0.08 -0.05,0.16 -0.15,0.19 v 0 a 0.17,0.17 0 0 1 -0.19,-0.12 l -0.56,-1.94 h -2.21 l -0.56,1.94 a 0.21,0.21 0 0 1 -0.24,0.12 c -0.11,0 -0.19,-0.11 -0.15,-0.19 l 1.86,-6.43 a 0.17,0.17 0 0 1 0.19,-0.12 c 0.11,0 0.17,0 0.2,0.12 z m -2.06,-5.74 -1,3.52 h 2 z"
           inkscape:connector-curvature="0"
           style="stroke:#665600;stroke-opacity:1;fill:#665600;fill-opacity:0.7610063;fill-rule:nonzero" />
        <path
           id="path3742"
           d="m 156.35,82 a 1.69,1.69 0 0 1 0.59,-1.45 2.37,2.37 0 0 1 2.41,0 1.69,1.69 0 0 1 0.59,1.45 c 0,0.11 -0.06,0.16 -0.2,0.16 -0.14,0 -0.2,-0.05 -0.2,-0.16 0,-1 -0.45,-1.47 -1.4,-1.47 -0.95,0 -1.4,0.47 -1.4,1.47 v 3.17 c 0,1 0.5,1.48 1.4,1.48 0.9,0 1.4,-0.48 1.4,-1.48 0,-0.11 0.06,-0.16 0.2,-0.16 0.14,0 0.2,0 0.2,0.16 a 1.68,1.68 0 0 1 -0.59,1.45 2.31,2.31 0 0 1 -2.41,0 1.68,1.68 0 0 1 -0.59,-1.45 z"
           inkscape:connector-curvature="0"
           style="stroke:#665600;stroke-opacity:1;fill:#665600;fill-opacity:0.7610063;fill-rule:nonzero" />
        <path
           id="path3744"
           d="m 164.7,80.19 c 0.11,0 0.2,0.07 0.2,0.15 0,0.08 -0.06,0.16 -0.2,0.16 h -1.81 v 6.27 a 0.19,0.19 0 0 1 -0.2,0.16 c -0.14,0 -0.2,0 -0.2,-0.16 V 80.5 h -1.82 a 0.16,0.16 0 1 1 0,-0.31 z"
           inkscape:connector-curvature="0"
           style="stroke:#665600;stroke-opacity:1;fill:#665600;fill-opacity:0.7610063;fill-rule:nonzero" />
        <path
           id="path3746"
           d="m 165.64,80.34 c 0,-0.08 0.09,-0.15 0.2,-0.15 a 0.18,0.18 0 0 1 0.19,0.15 v 4.94 a 1.29,1.29 0 0 0 0.44,1.12 1.73,1.73 0 0 0 1.69,0 1.29,1.29 0 0 0 0.44,-1.12 v -4.94 a 0.18,0.18 0 0 1 0.19,-0.15 c 0.11,0 0.2,0.07 0.2,0.15 v 4.94 a 1.53,1.53 0 0 1 -0.54,1.33 1.82,1.82 0 0 1 -1.12,0.32 1.78,1.78 0 0 1 -1.11,-0.32 1.53,1.53 0 0 1 -0.56,-1.33 z"
           inkscape:connector-curvature="0"
           style="stroke:#665600;stroke-opacity:1;fill:#665600;fill-opacity:0.7610063;fill-rule:nonzero" />
        <path
           id="path3748"
           d="m 173.64,86.76 c 0,0.11 -0.06,0.16 -0.2,0.16 a 0.18,0.18 0 0 1 -0.19,-0.16 v -1.71 c 0,-0.83 -0.57,-1.29 -1.57,-1.29 h -1.12 v 3 c 0,0.11 -0.06,0.16 -0.2,0.16 a 0.18,0.18 0 0 1 -0.19,-0.16 v -6.42 a 0.18,0.18 0 0 1 0.19,-0.15 h 1.33 c 1.34,0 1.95,0.55 1.95,1.78 a 1.75,1.75 0 0 1 -0.46,1.35 1.32,1.32 0 0 1 -0.51,0.3 1.81,1.81 0 0 1 0.44,0.25 1.42,1.42 0 0 1 0.55,1.19 z m -3.09,-6.27 v 3 h 1.13 c 1.09,0 1.55,-0.41 1.55,-1.49 0,-1.08 -0.45,-1.47 -1.55,-1.47 z"
           inkscape:connector-curvature="0"
           style="stroke:#665600;stroke-opacity:1;fill:#665600;fill-opacity:0.7610063;fill-rule:nonzero" />
        <path
           id="path3750"
           d="m 175,83.71 v 2.91 h 2.44 c 0.11,0 0.2,0.07 0.2,0.15 0,0.08 -0.06,0.16 -0.2,0.16 h -2.62 c -0.14,0 -0.2,0 -0.2,-0.16 v -6.42 a 0.18,0.18 0 0 1 0.2,-0.15 h 2.62 a 0.18,0.18 0 0 1 0.2,0.15 c 0,0.11 -0.06,0.16 -0.2,0.16 H 175 v 2.9 h 2.44 c 0.14,0 0.2,0 0.2,0.16 a 0.18,0.18 0 0 1 -0.2,0.15 z"
           inkscape:connector-curvature="0"
           style="stroke:#665600;stroke-opacity:1;fill:#665600;fill-opacity:0.7610063;fill-rule:nonzero" />
        <path
           id="path3752"
           d="M 220.1,31.27 C 218.7,25.69 208.22,21.89 201.79,20.06 L 135.84,1.27 a 33.12,33.12 0 0 0 -18.16,0 L 51.73,20.05 c -0.57,0.16 -1.24,0.34 -2,0.53 -5.82,1.51 -15.33,4 -16.39,10.68 H 0 v 2.5 h 253.52 v -2.5 z M 51,25.42 c 0.78,-0.2 1.49,-0.39 2.1,-0.56 L 119,6.08 a 28.14,28.14 0 0 1 15.42,0 l 65.94,18.79 c 7.39,2.11 12.21,4.69 14,6.4 H 38.6 c 1.6,-3.04 8.75,-4.9 12.4,-5.85 z"
           inkscape:connector-curvature="0"
           style="stroke:#665600;stroke-opacity:1;fill:#665600;fill-opacity:0.7610063;fill-rule:nonzero" />
        <path
           id="path3754"
           d="M 253.52,74.75 H 0 v 2.5 h 33.3 c 0.65,7.08 10.49,9.64 16.46,11.18 0.74,0.19 1.41,0.36 2,0.53 l 65.94,18.79 a 33.12,33.12 0 0 0 18.16,0 L 201.79,89 c 6.62,-1.89 17.54,-5.86 18.41,-11.71 h 33.32 z m -53.1,9.4 -65.94,18.79 a 28.13,28.13 0 0 1 -15.42,0 L 53.1,84.15 c -0.6,-0.17 -1.31,-0.36 -2.1,-0.56 -3.86,-1 -11.59,-3 -12.63,-6.34 h 176.54 c -1.31,1.67 -6.34,4.58 -14.49,6.9 z"
           inkscape:connector-curvature="0"
           style="stroke:#665600;stroke-opacity:1;fill:#665600;fill-opacity:0.7610063;fill-rule:nonzero" />
        <path
           id="path3756"
           d="m 86.36,21.6 c 0,-1.54 0.64,-2.35 1.91,-2.35 1.27,0 1.91,0.81 1.91,2.35 0,0.15 -0.07,0.21 -0.21,0.21 -0.14,0 -0.21,-0.07 -0.21,-0.21 a 2.1,2.1 0 0 0 -0.5,-1.62 1.67,1.67 0 0 0 -2,0 2.1,2.1 0 0 0 -0.52,1.62 v 4.24 c 0,1.33 0.53,2 1.5,2 0.97,0 1.49,-0.58 1.49,-2 V 24.67 H 88 c -0.15,0 -0.21,-0.07 -0.21,-0.21 0,-0.14 0.07,-0.21 0.21,-0.21 h 2 c 0.15,0 0.21,0.07 0.21,0.21 v 1.38 c 0,1.54 -0.65,2.37 -1.91,2.37 -1.26,0 -1.91,-0.82 -1.91,-2.37 z"
           inkscape:connector-curvature="0"
           style="stroke:#665600;stroke-opacity:1;fill:#665600;fill-opacity:0.7610063;fill-rule:nonzero" />
        <path
           id="path3758"
           d="m 91.33,28.21 c -0.16,0 -0.23,-0.07 -0.23,-0.23 V 18.9 a 0.22,0.22 0 0 1 0.23,-0.21 h 1.4 c 1.51,0 2.2,0.88 2.2,2.57 v 4.38 c 0,1.69 -0.69,2.57 -2.2,2.57 z m 0.21,-9.08 v 8.64 h 1.19 c 1.23,0 1.75,-0.66 1.75,-2.13 v -4.38 c 0,-1.47 -0.52,-2.13 -1.75,-2.13 z"
           inkscape:connector-curvature="0"
           style="stroke:#665600;stroke-opacity:1;fill:#665600;fill-opacity:0.7610063;fill-rule:nonzero" />
        <path
           id="path3760"
           d="m 101,27.92 c 0,0.12 -0.06,0.24 -0.18,0.28 h -0.06 a 0.21,0.21 0 0 1 -0.22,-0.18 l -0.67,-2.9 H 97.18 L 96.51,28 c 0,0.12 -0.16,0.22 -0.28,0.18 A 0.23,0.23 0 0 1 96.05,27.9 l 2.23,-9.6 a 0.21,0.21 0 0 1 0.22,-0.18 0.22,0.22 0 0 1 0.24,0.18 z m -2.5,-8.51 -1.21,5.26 h 2.44 z"
           inkscape:connector-curvature="0"
           style="stroke:#665600;stroke-opacity:1;fill:#665600;fill-opacity:0.7610063;fill-rule:nonzero" />
        <path
           id="path3762"
           d="m 106.38,28.21 a 0.21,0.21 0 0 1 -0.23,-0.16 l -3.75,-9.29 v 9.19 c 0,0.18 -0.08,0.26 -0.26,0.26 a 0.23,0.23 0 0 1 -0.26,-0.26 V 17.41 a 0.26,0.26 0 0 1 0.51,-0.08 l 3.74,9.29 v -9.21 a 0.26,0.26 0 0 1 0.52,0 v 10.53 a 0.24,0.24 0 0 1 -0.21,0.26 z"
           inkscape:connector-curvature="0"
           style="stroke:#665600;stroke-opacity:1;fill:#665600;fill-opacity:0.7610063;fill-rule:nonzero" />
        <path
           id="path3764"
           d="m 110.56,22.45 -0.31,-0.15 a 4,4 0 0 1 -1.45,-0.92 3,3 0 0 1 -0.93,-2.27 c 0,-1.85 0.93,-3.28 2.64,-3.28 1.71,0 2.66,1.14 2.66,3.28 a 0.295,0.295 0 1 1 -0.59,0 c 0,-1.85 -0.68,-2.71 -2.07,-2.71 -1.39,0 -2.07,1.12 -2.07,2.71 a 2.4,2.4 0 0 0 0.77,1.87 4,4 0 0 0 1.28,0.79 l 0.29,0.13 a 5.11,5.11 0 0 1 1.43,0.86 2.92,2.92 0 0 1 1,2.25 3.72,3.72 0 0 1 -0.66,2.24 2.36,2.36 0 0 1 -2,0.93 c -1.76,0 -2.64,-1.14 -2.64,-3.26 0,-0.2 0.09,-0.29 0.29,-0.29 a 0.29,0.29 0 0 1 0.27,0.29 2.89,2.89 0 0 0 0.71,2.24 1.89,1.89 0 0 0 1.36,0.46 c 1.32,0 2.07,-1 2.07,-2.6 a 2.39,2.39 0 0 0 -0.77,-1.85 3.05,3.05 0 0 0 -0.68,-0.44 z"
           inkscape:connector-curvature="0"
           style="stroke:#665600;stroke-opacity:1;fill:#665600;fill-opacity:0.7610063;fill-rule:nonzero" />
        <path
           id="path3766"
           d="m 116.39,21.53 3.5,6.25 a 0.29,0.29 0 0 1 -0.11,0.38 h -0.15 a 0.29,0.29 0 0 1 -0.26,-0.15 l -3.35,-6 -1.25,1.87 v 4 a 0.29,0.29 0 0 1 -0.28,0.29 0.25,0.25 0 0 1 -0.29,-0.29 V 16.13 a 0.29,0.29 0 0 1 0.29,-0.27 0.28,0.28 0 0 1 0.28,0.27 v 6.74 L 119.39,16 a 0.3,0.3 0 0 1 0.4,-0.09 0.29,0.29 0 0 1 0.07,0.4 z"
           inkscape:connector-curvature="0"
           style="stroke:#665600;stroke-opacity:1;fill:#665600;fill-opacity:0.7610063;fill-rule:nonzero" />
        <path
           id="path3768"
           d="m 134.15,16.13 a 0.29,0.29 0 0 1 0.29,-0.27 h 1.94 c 2,0 2.86,1 2.86,3.23 0,2.23 -0.88,3.23 -2.86,3.23 h -1.65 v 5.61 a 0.25,0.25 0 0 1 -0.29,0.29 c -0.2,0 -0.29,-0.09 -0.29,-0.29 z m 0.59,0.29 v 5.31 h 1.65 c 1.59,0 2.27,-0.75 2.27,-2.66 0,-1.91 -0.66,-2.66 -2.27,-2.66 z"
           inkscape:connector-curvature="0"
           style="stroke:#665600;stroke-opacity:1;fill:#665600;fill-opacity:0.7610063;fill-rule:nonzero" />
        <path
           id="path3770"
           d="m 140.38,19.12 c 0,-2.11 0.88,-3.26 2.62,-3.26 1.74,0 2.64,1.14 2.64,3.26 v 5.81 a 3.46,3.46 0 0 1 -0.86,2.66 2.82,2.82 0 0 1 -3.54,0 3.46,3.46 0 0 1 -0.86,-2.66 z m 0.57,5.81 c 0,1.85 0.68,2.71 2.05,2.71 1.37,0 2.05,-0.81 2.05,-2.71 v -5.81 c 0,-1.89 -0.68,-2.69 -2.05,-2.69 -1.37,0 -2.05,0.86 -2.05,2.69 z"
           inkscape:connector-curvature="0"
           style="stroke:#665600;stroke-opacity:1;fill:#665600;fill-opacity:0.7610063;fill-rule:nonzero" />
        <path
           id="path3772"
           d="m 146.94,28.21 a 0.24,0.24 0 0 1 -0.28,-0.28 V 16.76 a 0.27,0.27 0 0 1 0.28,-0.26 0.27,0.27 0 0 1 0.26,0.26 v 10.91 h 3.66 a 0.27,0.27 0 0 1 0.28,0.26 c 0,0.19 -0.09,0.28 -0.28,0.28 z"
           inkscape:connector-curvature="0"
           style="stroke:#665600;stroke-opacity:1;fill:#665600;fill-opacity:0.7610063;fill-rule:nonzero" />
        <path
           id="path3774"
           d="m 156.81,27.92 c 0,0.12 -0.06,0.24 -0.18,0.28 h -0.06 a 0.21,0.21 0 0 1 -0.22,-0.18 l -0.67,-2.9 H 153 l -0.67,2.9 c 0,0.12 -0.16,0.22 -0.28,0.18 a 0.23,0.23 0 0 1 -0.18,-0.28 l 2.23,-9.6 a 0.21,0.21 0 0 1 0.22,-0.18 0.22,0.22 0 0 1 0.24,0.18 z m -2.46,-8.51 -1.21,5.26 h 2.43 z"
           inkscape:connector-curvature="0"
           style="stroke:#665600;stroke-opacity:1;fill:#665600;fill-opacity:0.7610063;fill-rule:nonzero" />
        <path
           id="path3776"
           d="m 161.58,28.21 a 0.18,0.18 0 0 1 -0.2,-0.14 l -3.23,-8 V 28 c 0,0.16 -0.07,0.23 -0.23,0.23 -0.16,0 -0.23,-0.07 -0.23,-0.23 v -9.1 a 0.23,0.23 0 0 1 0.44,-0.07 l 3.22,8 V 18.9 a 0.23,0.23 0 0 1 0.45,0 V 28 a 0.2,0.2 0 0 1 -0.18,0.23 z"
           inkscape:connector-curvature="0"
           style="stroke:#665600;stroke-opacity:1;fill:#665600;fill-opacity:0.7610063;fill-rule:nonzero" />
        <path
           id="path3778"
           d="m 163,28.21 c -0.15,0 -0.21,-0.07 -0.21,-0.21 v -8.55 a 0.21,0.21 0 0 1 0.21,-0.2 h 1.32 c 1.42,0 2.07,0.82 2.07,2.42 v 4.12 c 0,1.59 -0.65,2.42 -2.07,2.42 z m 0.2,-8.55 v 8.13 h 1.12 c 1.16,0 1.65,-0.62 1.65,-2 v -4.12 c 0,-1.38 -0.49,-2 -1.65,-2 z"
           inkscape:connector-curvature="0"
           style="stroke:#665600;stroke-opacity:1;fill:#665600;fill-opacity:0.7610063;fill-rule:nonzero" />
        <polygon
           id="polygon3780"
           points="129.17,20.91 127.78,22.27 128.11,24.19 126.38,23.28 124.66,24.19 124.99,22.27 123.59,20.91 125.52,20.63 126.38,18.88 127.24,20.63 "
           style="stroke:#665600;stroke-opacity:1;fill:#665600;fill-opacity:0.7610063;fill-rule:nonzero" />
        <rect
           id="rect3782"
           height="0.5"
           width="54.75"
           y="91.25"
           x="99.790001"
           style="stroke:#665600;stroke-opacity:1;fill:#665600;fill-opacity:0.7610063;fill-rule:nonzero" />
        <rect
           id="rect3784"
           height="0.5"
           width="38"
           y="94.589996"
           x="108.17"
           style="stroke:#665600;stroke-opacity:1;fill:#665600;fill-opacity:0.7610063;fill-rule:nonzero" />
        <rect
           id="rect3786"
           height="0.5"
           width="22.25"
           y="97.919998"
           x="116.04"
           style="stroke:#665600;stroke-opacity:1;fill:#665600;fill-opacity:0.7610063;fill-rule:nonzero" />
      </g>
    </g>
    <path
       style="fill:#665600;stroke-width:0.1953125;stroke:#665600;stroke-opacity:1;fill-opacity:0.7610063;fill-rule:nonzero"
       d="m 577.96926,208.15304 c -1.29456,-0.40479 -2.17461,-1.05076 -2.73557,-2.00796 -0.83507,-1.42494 -0.83066,-3.05465 0.0211,-7.80633 0.9072,-5.06069 1.27993,-6.12347 2.74226,-7.81903 0.94951,-1.10095 3.06885,-2.12895 4.98697,-2.41898 3.85651,-0.58313 6.8652,0.51563 7.95998,2.90693 0.42632,0.9312 0.47682,1.25517 0.38387,2.46229 -0.0589,0.76451 -0.27103,1.82946 -0.47147,2.36657 l -0.36442,0.97657 -2.41007,0.055 c -2.24663,0.0513 -2.40033,0.0314 -2.26654,-0.29297 0.60201,-1.45967 0.4754,-3.04645 -0.30975,-3.8822 -0.61452,-0.65413 -2.35708,-0.66984 -3.32279,-0.03 -0.9882,0.65478 -1.45221,1.84681 -2.11569,5.43518 -0.77454,4.18894 -0.77809,4.91328 -0.0278,5.66354 0.50081,0.50082 0.71065,0.57076 1.70898,0.56963 1.26946,-0.001 2.01102,-0.36781 2.62286,-1.29584 0.59195,-0.89785 0.49194,-1.04662 -0.70353,-1.04662 -1.20524,0 -1.16686,0.0757 -0.85886,-1.69299 l 0.21536,-1.2367 h 3.59323 c 2.95376,0 3.59323,0.0488 3.59323,0.27409 0,0.71682 -0.79161,4.08753 -1.15048,4.89883 -0.87225,1.97187 -2.51973,3.31108 -4.79875,3.90084 -1.42965,0.36996 -5.13535,0.38179 -6.29214,0.0201 z"
       id="path4658"
       inkscape:connector-curvature="0"
       transform="scale(0.26458333)" />
    <path
       style="fill:#665600;stroke:#665600;stroke-width:0.14814815;stroke-opacity:1;fill-opacity:0.7610063;fill-rule:nonzero"
       d="m 577.96077,208.08393 c -2.42356,-0.78829 -3.4351,-2.43621 -3.24799,-5.29138 0.2254,-3.43943 1.417,-9.05905 2.26181,-10.66671 1.24891,-2.37669 3.85082,-3.84719 7.22906,-4.0856 3.14482,-0.22193 5.69794,0.93393 6.68866,3.02814 0.36712,0.77603 0.39055,0.94115 0.31958,2.2522 -0.0446,0.82337 -0.20671,1.82354 -0.38787,2.39266 l -0.31129,0.97789 -2.04917,0.10142 c -2.29156,0.11343 -2.61813,0.0591 -2.47132,-0.41097 0.0537,-0.17209 0.12989,-0.8129 0.1692,-1.42401 0.057,-0.8857 0.017,-1.21416 -0.1969,-1.6191 -0.53839,-1.01909 -1.66201,-1.41001 -3.01066,-1.04744 -1.48841,0.40013 -2.17726,1.78125 -2.95558,5.9258 -0.60854,3.24046 -0.6878,4.3842 -0.34837,5.02651 0.5418,1.02522 1.45816,1.35418 2.92437,1.0498 0.664,-0.13785 0.97913,-0.30394 1.42765,-0.75246 0.64663,-0.64664 0.88853,-1.28144 0.56612,-1.48563 -0.11288,-0.0715 -0.55733,-0.131 -0.98766,-0.13225 -0.52925,-0.002 -0.80797,-0.0688 -0.86137,-0.20798 -0.0718,-0.18702 0.14203,-1.71808 0.32813,-2.34984 0.0696,-0.23616 0.35102,-0.25926 3.15898,-0.25926 1.69544,0 3.27989,0.0395 3.52101,0.0877 l 0.4384,0.0877 -0.13093,0.83824 c -0.22688,1.45256 -0.85795,3.7389 -1.24021,4.49325 -0.73131,1.44317 -2.028,2.53663 -3.83899,3.23729 -0.79353,0.30702 -1.18292,0.34891 -3.62963,0.39052 -2.02662,0.0345 -2.90341,-0.006 -3.36503,-0.15645 z"
       id="path4660"
       inkscape:connector-curvature="0"
       transform="scale(0.26458333)" />
    <path
       style="fill:#665600;stroke:#665600;stroke-width:0.14814815;stroke-opacity:1;fill-opacity:0.7610063;fill-rule:nonzero"
       d="m 595.10357,208.39098 c -2.04627,-0.47708 -2.96296,-1.63248 -2.96296,-3.73454 0,-1.42738 0.82802,-5.61561 1.31706,-6.66183 0.59244,-1.26743 1.61584,-2.33815 2.78492,-2.91368 1.7172,-0.84538 4.51121,-0.76097 5.80372,0.17532 l 0.59426,0.43047 0.0463,-0.40161 0.0463,-0.40161 2.03704,-0.0412 c 1.57673,-0.0319 2.03682,0.002 2.03607,0.14815 -5.3e-4,0.10415 -0.33343,2.05603 -0.73977,4.33751 -0.78546,4.41005 -0.84349,4.94911 -0.56297,5.22963 0.21736,0.21736 0.85132,0.22979 1.3843,0.0272 l 0.39617,-0.15062 -0.10333,1.52099 c -0.11417,1.68067 -0.12941,1.70765 -1.26232,2.23514 -0.97373,0.45337 -2.78267,0.44194 -3.73516,-0.0236 -0.68794,-0.33623 -1.30188,-1.07184 -1.30188,-1.55989 0,-0.35472 -0.0688,-0.31389 -0.81424,0.48303 -0.39311,0.42026 -0.99242,0.86008 -1.42635,1.04675 -0.92532,0.39807 -2.45059,0.50779 -3.53719,0.25445 z m 5.11675,-4.26059 c 0.31147,-0.31147 0.43318,-0.73112 0.79002,-2.72406 l 0.42183,-2.35586 -0.34275,-0.34274 c -0.447,-0.44701 -1.80394,-0.48209 -2.58075,-0.0667 -0.74084,0.39612 -1.0497,1.03618 -1.36033,2.81904 -0.33546,1.92538 -0.26777,2.4451 0.37068,2.84598 0.69591,0.43696 2.18557,0.34011 2.7013,-0.17562 z"
       id="path4662"
       inkscape:connector-curvature="0"
       transform="scale(0.26458333)" />
    <path
       style="fill:#665600;stroke:#665600;stroke-width:0.14814815;stroke-opacity:1;fill-opacity:0.7610063;fill-rule:nonzero"
       d="m 608.73728,208.03164 c 0.002,-0.0611 0.52348,-3.04444 1.15831,-6.62963 l 1.15423,-6.51851 2.1603,-0.0409 2.1603,-0.0409 -0.12989,0.55943 c -0.0714,0.30769 -0.13148,0.72143 -0.13342,0.91943 -0.003,0.33258 0.0364,0.31331 0.5212,-0.25303 0.30552,-0.35693 0.91912,-0.8072 1.46876,-1.07778 2.0155,-0.99223 4.2793,-0.45019 5.13638,1.22983 0.46808,0.91749 0.34555,2.50873 -0.29661,3.85209 l -0.47803,1 h -1.98487 -1.98488 l 0.21467,-0.51376 c 0.64955,-1.55459 -0.4231,-2.63748 -1.91247,-1.93072 -0.25752,0.12219 -0.55794,0.36586 -0.66761,0.54147 -0.10968,0.17562 -0.49208,1.92564 -0.84979,3.88893 -0.35772,1.9633 -0.72209,3.91964 -0.80973,4.34742 l -0.15934,0.77778 H 611.019 c -1.25719,0 -2.28396,-0.05 -2.28172,-0.11112 z"
       id="path4664"
       inkscape:connector-curvature="0"
       transform="scale(0.26458333)" />
    <path
       style="fill:#665600;stroke:#665600;stroke-width:0.14814815;stroke-opacity:1;fill-opacity:0.7610063;fill-rule:nonzero"
       d="m 556.51098,208.43837 c -0.81481,-0.0528 -1.8524,-0.20584 -2.30575,-0.34008 -1.69071,-0.50063 -2.65721,-1.65218 -2.65721,-3.16597 v -0.74652 l 2.25625,-0.08 c 2.13667,-0.0757 2.26726,-0.0643 2.46381,0.21636 0.47239,0.67443 2.28852,0.94198 3.35877,0.4948 0.44644,-0.18653 0.51376,-0.28209 0.51376,-0.72925 0,-0.45078 -0.0597,-0.53334 -0.48148,-0.66581 -0.26482,-0.0832 -1.09282,-0.22239 -1.84001,-0.30937 -2.57041,-0.29924 -3.29751,-0.49839 -4.12562,-1.13002 -1.40669,-1.07294 -1.47427,-3.55081 -0.14434,-5.29256 0.39547,-0.51793 0.8166,-0.82854 1.7417,-1.28463 1.71957,-0.84777 3.00367,-1.08846 5.2942,-0.99234 2.80467,0.11769 4.30446,0.70705 4.94161,1.94185 0.3468,0.6721 0.39318,1.73571 0.10594,2.42918 l -0.19461,0.46984 h -2.20425 c -2.18645,0 -2.20427,-0.003 -2.20652,-0.33334 -0.005,-0.69315 -0.52527,-1 -1.69645,-1 -1.05779,0 -1.81345,0.31104 -2.0097,0.82722 -0.36111,0.94981 0.1128,1.23186 2.83253,1.68581 2.15774,0.36015 2.67908,0.51439 3.44206,1.01831 1.17922,0.77884 1.53471,2.52752 0.84143,4.13909 -0.54649,1.27036 -1.59622,2.01351 -3.58194,2.53583 -1.35275,0.35583 -2.44851,0.43442 -4.34418,0.31158 z"
       id="path4666"
       inkscape:connector-curvature="0"
       transform="scale(0.26458333)" />
    <path
       style="fill:#665600;stroke:#665600;stroke-width:0.14814815;stroke-opacity:1;fill-opacity:0.7610063;fill-rule:nonzero"
       d="m 538.08605,208.4369 c -2.40271,-0.50691 -3.37818,-2.10038 -2.98988,-4.88408 0.75701,-5.42693 1.69079,-7.34971 4.12225,-8.48821 1.79688,-0.84137 4.62651,-0.71068 5.78885,0.26736 l 0.44192,0.37185 0.0982,-0.4472 0.0982,-0.4472 h 2.06512 2.06513 l -0.0766,0.33334 c -0.1701,0.7401 -1.55788,8.64711 -1.55826,8.8783 -8.1e-4,0.5082 0.44944,0.75492 1.2127,0.66452 l 0.71283,-0.0844 v 1.37747 c 0,1.56567 -0.0371,1.6301 -1.26467,2.19475 -0.58149,0.26747 -0.9833,0.33588 -1.92052,0.327 -1.65107,-0.0157 -2.69367,-0.57647 -3.04375,-1.63723 l -0.16346,-0.4953 -0.69269,0.70766 c -0.92553,0.94553 -1.88069,1.37645 -3.20121,1.4442 -0.57587,0.0296 -1.33825,-0.008 -1.69419,-0.0828 z m 4.99143,-4.25234 c 0.34655,-0.25874 0.42876,-0.52344 0.79897,-2.57252 0.22697,-1.25625 0.38086,-2.42267 0.34197,-2.59203 -0.16274,-0.70877 -2.01945,-0.91443 -2.89974,-0.3212 -0.70067,0.47219 -1.00577,1.07986 -1.25597,2.50157 -0.32558,1.85005 -0.29287,2.52447 0.1423,2.93328 0.66677,0.62641 2.06837,0.65124 2.87247,0.0509 z"
       id="path4668"
       inkscape:connector-curvature="0"
       transform="scale(0.26458333)" />
    <path
       style="fill:#665600;stroke:#665600;stroke-width:0.14814815;stroke-opacity:1;fill-opacity:0.7610063;fill-rule:nonzero"
       d="m 520.46671,207.73535 c 0.0349,-0.22408 0.55913,-3.22398 1.16497,-6.66645 l 1.10152,-6.25903 2.12794,-2.3e-4 2.12793,-2.2e-4 -0.0993,0.70371 c -0.0546,0.38703 -0.13692,0.8316 -0.18287,0.98793 -0.0465,0.1582 0.26946,-0.0773 0.71259,-0.53123 1.99651,-2.04495 5.27432,-1.96387 6.38274,0.15789 0.2332,0.4464 0.4125,1.0263 0.4125,1.33416 0,0.78647 -0.40154,2.21098 -0.82877,2.94013 l -0.36891,0.62963 h -2.00216 -2.00215 l 0.23062,-0.32926 c 0.1294,-0.18474 0.23062,-0.63519 0.23062,-1.02628 0,-0.57655 -0.0675,-0.75009 -0.39034,-1.00407 -0.2147,-0.16888 -0.59803,-0.3068 -0.85186,-0.3065 -0.5688,6.8e-4 -1.38087,0.47738 -1.57581,0.92503 -0.11334,0.26025 -1.62643,8.41861 -1.62643,8.76944 0,0.0455 -1.0409,0.0828 -2.31311,0.0828 h -2.31311 z"
       id="path4670"
       inkscape:connector-curvature="0"
       transform="scale(0.26458333)" />
    <path
       style="fill:#665600;stroke:#665600;stroke-width:0.14814815;stroke-opacity:1;fill-opacity:0.7610063;fill-rule:nonzero"
       d="m 509.58,208.43565 c -1.67817,-0.26508 -2.91531,-1.06444 -3.54864,-2.29289 -0.56905,-1.10376 -0.50318,-2.01607 0.5923,-8.20436 l 1.00655,-5.68585 2.43772,-1.00817 c 1.34075,-0.5545 2.45368,-0.99223 2.47317,-0.97274 0.0195,0.0195 -0.12868,0.99846 -0.32925,2.1755 -0.20058,1.17703 -0.36533,2.19006 -0.36611,2.25117 -7.8e-4,0.0611 1.73024,0.11111 3.84672,0.11111 h 3.84815 l -0.0762,0.40741 c -0.0419,0.22407 -0.19351,1.07407 -0.33688,1.88889 l -0.26068,1.48148 -3.86595,0.0395 -3.86595,0.0395 -0.24616,1.29387 c -0.67317,3.53839 -0.46132,4.47865 1.06017,4.70538 1.07316,0.15992 2.07767,-0.70557 2.45496,-2.11522 l 0.16851,-0.62963 h 2.26187 2.26187 l -0.0912,0.48148 c -0.15466,0.81657 -0.7795,2.36465 -1.25102,3.09945 -0.83609,1.30293 -2.23663,2.28419 -3.90965,2.73921 -0.97132,0.26417 -3.18539,0.36541 -4.26431,0.19498 z"
       id="path4672"
       inkscape:connector-curvature="0"
       transform="scale(0.26458333)" />
    <path
       style="fill:#665600;stroke:#665600;stroke-width:0.14814815;stroke-opacity:1;fill-opacity:0.7610063;fill-rule:nonzero"
       d="m 491.69617,208.49398 c -1.47708,-0.28492 -2.38427,-0.87574 -2.88376,-1.87808 -0.31737,-0.63689 -0.3755,-0.95775 -0.3755,-2.07267 0,-1.35737 0.56081,-4.8903 0.95251,-6.00049 0.5457,-1.54667 1.7505,-2.89554 3.18888,-3.57019 0.69117,-0.32419 1.07382,-0.3933 2.41081,-0.43541 1.73321,-0.0546 2.81591,0.1822 3.30519,0.72285 0.34594,0.38226 0.46181,0.36607 0.57381,-0.0802 l 0.093,-0.37037 h 2.08731 2.08732 l -0.0817,0.33334 c -0.0449,0.18333 -0.42669,2.28607 -0.84832,4.67275 -0.73678,4.17066 -0.75639,4.35072 -0.50397,4.62963 0.28204,0.31165 0.86634,0.37384 1.44507,0.15381 l 0.35875,-0.1364 -0.0639,1.43269 c -0.0351,0.78799 -0.0874,1.50891 -0.11617,1.60205 -0.0288,0.0932 -0.44047,0.35674 -0.91488,0.58577 -0.71987,0.34752 -1.05867,0.41729 -2.04777,0.42169 -1.61388,0.007 -2.51227,-0.42108 -3.01665,-1.43801 l -0.34998,-0.70564 -0.58121,0.66029 c -0.81953,0.93102 -1.89973,1.42514 -3.25997,1.49118 -0.59866,0.0291 -1.25515,0.0207 -1.45885,-0.0186 z m 4.53418,-4.17182 c 0.53089,-0.28412 0.61424,-0.50295 1.00729,-2.64447 0.49438,-2.69363 0.49248,-2.8048 -0.0526,-3.08669 -0.97564,-0.50452 -2.52881,-0.15682 -3.17687,0.71118 -0.29571,0.39608 -0.81207,2.79723 -0.82412,3.83231 -0.015,1.29304 1.64219,1.93915 3.04633,1.18767 z"
       id="path4674"
       inkscape:connector-curvature="0"
       transform="scale(0.26458333)" />
    <path
       style="fill:#665600;stroke:#665600;stroke-width:0.14814815;stroke-opacity:1;fill-opacity:0.7610063;fill-rule:nonzero"
       d="m 481.68434,208.38765 c -0.33243,-0.10931 -0.8184,-0.35695 -1.07993,-0.55031 -0.57369,-0.42414 -1.41328,-2.0407 -1.6486,-3.1742 l -0.16954,-0.81668 h -0.95246 c -0.52385,0 -0.95246,0.0524 -0.95246,0.11636 0,0.13097 -0.56009,3.3312 -0.67322,3.8466 -0.072,0.32818 -0.10866,0.33334 -2.36664,0.33334 -1.73381,0 -2.29448,-0.0452 -2.2976,-0.18519 -0.002,-0.10185 0.81395,-4.83519 1.81382,-10.51852 l 1.81796,-10.33333 h 2.31378 2.31378 l -0.0611,0.33333 c -0.48493,2.6468 -1.49093,8.64094 -1.45609,8.67601 0.0253,0.0255 0.38677,-0.21149 0.80318,-0.52666 1.13116,-0.85614 2.06225,-1.14955 3.64395,-1.14829 1.43549,0.001 2.15998,0.25239 2.84478,0.98655 0.78296,0.83937 1.0253,2.62431 0.54691,4.0283 -0.26858,0.78825 -1.41699,2.13066 -2.25232,2.63279 -0.30073,0.18078 -0.56321,0.3391 -0.58331,0.35183 -0.0201,0.0127 0.0643,0.36282 0.18763,0.77797 0.38051,1.28134 1.35718,1.81007 2.52405,1.36643 0.36972,-0.14057 0.3917,-0.12735 0.30796,0.18518 -0.0496,0.18511 -0.0911,0.88238 -0.0922,1.5495 l -0.002,1.21294 -0.93427,0.45994 c -1.11195,0.54741 -2.62806,0.71441 -3.59607,0.39611 z m -1.44095,-7.42417 c 0.94825,-0.43412 1.42839,-1.10177 1.31888,-1.83394 -0.0969,-0.64825 -0.31005,-0.8853 -0.89444,-0.99493 -0.67438,-0.12651 -1.5919,0.15595 -2.32536,0.71588 -0.64361,0.49133 -0.74719,0.70749 -0.9331,1.94724 l -0.10846,0.72322 1.08208,-0.10057 c 0.63687,-0.0592 1.40231,-0.24718 1.8604,-0.4569 z"
       id="path4676"
       inkscape:connector-curvature="0"
       transform="scale(0.26458333)" />
    <path
       style="fill:#665600;stroke:#665600;stroke-width:0.14814815;stroke-opacity:1;fill-opacity:0.7610063;fill-rule:nonzero"
       d="m 465.49668,208.4281 c -1.52409,-0.29972 -2.2385,-1.1997 -2.24252,-2.82505 -0.002,-0.77187 2.60748,-16.3938 3.034,-18.164 0.079,-0.32799 0.11734,-0.33333 2.38985,-0.33333 h 2.30954 l -0.0801,0.33333 c -0.37513,1.56162 -2.91375,16.54038 -2.84782,16.8031 0.10132,0.40368 0.60923,0.56603 1.34119,0.42871 l 0.51755,-0.0971 -0.002,1.45116 -0.002,1.45116 -0.49688,0.32171 c -1.06112,0.68704 -2.47608,0.91449 -3.92116,0.6303 z"
       id="path4678"
       inkscape:connector-curvature="0"
       transform="scale(0.26458333)" />
    <path
       style="fill:#665600;stroke:#665600;stroke-width:0.14814815;stroke-opacity:1;fill-opacity:0.7610063;fill-rule:nonzero"
       d="m 443.76637,207.8835 c 0.0561,-0.1426 1.60388,-4.45926 3.43962,-9.5926 1.83574,-5.13333 3.40354,-9.51666 3.48399,-9.74074 l 0.14628,-0.4074 h 4.5781 4.5781 v 10 10 l -2.55555,2.9e-4 -2.55556,3e-4 0.0756,-2.11142 c 0.0416,-1.16128 0.0365,-2.16321 -0.0114,-2.22652 -0.0479,-0.0633 -1.11522,-0.0966 -2.37191,-0.0741 l -2.28489,0.041 -0.71461,2.18519 -0.71461,2.18519 H 446.262 c -2.4139,0 -2.59033,-0.0183 -2.49563,-0.25926 z m 11.48581,-8.81482 c 2.5e-4,-0.59074 0.0442,-2.22753 0.0977,-3.63731 l 0.0972,-2.56324 -0.93399,0.0447 -0.93398,0.0447 -1.08563,3.48148 c -0.5971,1.91482 -1.08743,3.53148 -1.08962,3.59259 -0.002,0.0611 0.86267,0.11112 1.92193,0.11112 h 1.92592 l 4.6e-4,-1.07408 z"
       id="path4680"
       inkscape:connector-curvature="0"
       transform="scale(0.26458333)" />
    <path
       style="fill:#665600;stroke:#665600;stroke-width:0.14814815;stroke-opacity:1;fill-opacity:0.7610063;fill-rule:nonzero"
       d="m 430.51098,177.62424 v -1.18519 h 16.65018 16.65018 l 0.1005,-0.55555 c 0.15734,-0.86981 1.05203,-2.55969 1.81995,-3.43755 2.21196,-2.5286 6.54448,-4.57453 13.66808,-6.45442 2.38401,-0.62913 13.6659,-3.82979 53.77778,-15.2567 8.18889,-2.33282 15.54149,-4.40012 16.33912,-4.59401 4.76045,-1.15715 10.2672,-1.1848 14.99421,-0.0753 1.83138,0.42986 67.54187,19.16304 70.22222,20.01942 8.64354,2.76164 14.23522,6.29878 15.48997,9.79856 l 0.19919,0.55555 h 16.71098 16.71097 v 1.18519 1.18518 H 557.17765 430.51098 Z m 213.99611,-1.48579 c -1.19806,-1.32384 -6.73446,-3.98511 -11.34586,-5.4538 -3.12886,-0.99652 -69.15963,-19.74969 -70.48644,-20.01862 -3.40913,-0.69098 -6.86913,-0.74148 -10.32485,-0.1507 -1.16471,0.19912 -12.93353,3.48527 -35.2383,9.83944 -18.41925,5.24726 -34.85621,9.91053 -36.52658,10.36283 -6.77461,1.83439 -10.03219,3.34569 -11.42363,5.29978 l -0.30025,0.42167 h 87.95897 87.95898 z"
       id="path4682"
       inkscape:connector-curvature="0"
       transform="scale(0.26458333)" />
    <path
       style="fill:#665600;stroke:#665600;stroke-width:0.14814815;stroke-opacity:1;fill-opacity:0.7610063;fill-rule:nonzero"
       d="m 554.06654,253.97909 c -1.35037,-0.15832 -3.59609,-0.55346 -4.66667,-0.82111 -0.65185,-0.16297 -15.91852,-4.49456 -33.92593,-9.62576 -18.0074,-5.1312 -34.2074,-9.72323 -36,-10.20451 -3.86377,-1.03736 -6.66256,-1.97551 -8.61371,-2.88728 -3.87167,-1.80925 -6.37446,-4.36618 -6.92748,-7.07733 l -0.18848,-0.92405 -16.61665,-0.0377 -16.61664,-0.0377 v -1.18455 -1.18454 h 126.66667 126.66666 v 1.18518 1.18519 h -16.65488 -16.65491 l -0.10422,0.48148 c -0.36049,1.66519 -2.18375,3.82524 -4.57861,5.42433 -2.62382,1.75197 -5.67772,3.17006 -9.99893,4.64301 -1.69578,0.57803 -66.91636,19.2148 -70.67511,20.19539 -2.31056,0.60279 -4.19015,0.82569 -7.40741,0.87845 -1.75185,0.0287 -3.41852,0.0249 -3.7037,-0.009 z m 8.59259,-5.2898 c 2.17671,-0.46918 68.68181,-19.42261 71.5816,-20.4002 4.80618,-1.62028 9.11462,-3.80463 10.63265,-5.39069 l 0.51053,-0.53342 h -88.32535 c -74.04967,0 -88.32536,0.0323 -88.32536,0.19999 0,0.31194 0.79103,1.32724 1.42547,1.82963 1.96651,1.55718 4.70999,2.65351 10.72268,4.28493 2.58546,0.7015 30.94346,8.75933 61.14021,17.37277 7.33107,2.09114 10.14879,2.80108 12.04498,3.03478 0.28518,0.0352 1.95185,0.0427 3.7037,0.0167 2.71517,-0.0403 3.43659,-0.10143 4.88889,-0.41446 z"
       id="path4684"
       inkscape:connector-curvature="0"
       transform="scale(0.26458333)" />
    <path
       style="fill:#665600;stroke:#665600;stroke-width:0.14814815;stroke-opacity:1;fill-opacity:0.7610063;fill-rule:nonzero"
       d="m 555.2984,168.28588 0.14528,-0.90209 -0.63576,-0.64779 -0.63576,-0.64779 0.88741,-0.1004 0.88742,-0.1004 0.40942,-0.83481 0.40943,-0.8348 0.42038,0.83135 0.42038,0.83136 0.91843,0.10391 0.91843,0.10391 -0.67813,0.69388 c -0.66902,0.68456 -0.67637,0.70283 -0.54677,1.36055 0.21047,1.06808 0.21172,1.06689 -0.66917,0.63486 l -0.81344,-0.39895 -0.70508,0.3601 c -0.38779,0.19805 -0.74393,0.38015 -0.79141,0.40465 -0.0475,0.0245 -0.021,-0.36139 0.0589,-0.85754 z"
       id="path4686"
       inkscape:connector-curvature="0"
       transform="scale(0.26458333)" />
    <path
       style="fill:#665600;stroke:#665600;stroke-width:0.14814815;stroke-opacity:1;fill-opacity:0.7610063;fill-rule:nonzero"
       d="m 565.09071,164.21683 c 1.6e-4,-1.46667 0.0223,-2.04663 0.0493,-1.2888 0.0269,0.75782 0.0268,1.95782 -2.8e-4,2.66666 -0.0271,0.70884 -0.0491,0.0888 -0.049,-1.37786 z"
       id="path4688"
       inkscape:connector-curvature="0"
       transform="scale(0.26458333)" />
    <path
       style="fill:#665600;stroke:#665600;stroke-width:0.14814815;stroke-opacity:1;fill-opacity:0.7610063;fill-rule:nonzero"
       d="m 565.08209,162.8835 c 4.5e-4,-0.73334 0.0259,-1.01466 0.0565,-0.62516 0.0306,0.38949 0.0302,0.98949 -8.2e-4,1.33333 -0.0311,0.34384 -0.0561,0.0252 -0.0557,-0.70817 z"
       id="path4690"
       inkscape:connector-curvature="0"
       transform="scale(0.26458333)" />
    <path
       style="fill:#665600;stroke:#665600;stroke-width:0.08496176;stroke-opacity:1;fill-opacity:0.7610063;fill-rule:nonzero"
       d="m 540.14197,173.18816 c -0.98566,-0.27713 -1.58878,-1.08881 -1.76186,-2.37112 -0.10553,-0.78187 -0.0567,-1.01651 0.20397,-0.97938 0.16488,0.0235 0.18866,0.092 0.23031,0.66341 0.1062,1.45714 0.8603,2.28879 2.0776,2.29127 1.00051,0.002 1.73083,-0.56718 2.01152,-1.56779 0.16563,-0.59041 0.13037,-1.64679 -0.0697,-2.08719 -0.32208,-0.70911 -0.63619,-0.96985 -1.92882,-1.60107 -1.8818,-0.91893 -2.5053,-1.65854 -2.58693,-3.06864 -0.0872,-1.5057 0.53449,-2.78504 1.57749,-3.24641 0.4328,-0.19144 1.30252,-0.22738 1.85416,-0.0766 1.03497,0.28287 1.73357,1.42137 1.73357,2.82516 0,0.50826 -0.0873,0.62536 -0.36109,0.48453 -0.11106,-0.0571 -0.14868,-0.18213 -0.14868,-0.49411 0,-1.03303 -0.4,-1.891 -1.0364,-2.22301 -0.51183,-0.26702 -1.48916,-0.26935 -1.99606,-0.005 -0.72476,0.37833 -1.13131,1.28159 -1.12984,2.51027 0.002,1.34008 0.49893,1.9595 2.26627,2.82266 1.29705,0.63348 1.85564,1.10787 2.21769,1.88345 0.19957,0.42752 0.22827,0.59347 0.22442,1.29736 -0.007,1.30784 -0.49204,2.26773 -1.39032,2.75228 -0.54262,0.29271 -1.34767,0.36955 -1.98734,0.1897 z"
       id="path4694"
       inkscape:connector-curvature="0"
       transform="scale(0.26458333)" />
    <path
       style="fill:#665600;stroke:#665600;stroke-width:0.08496176;stroke-opacity:1;fill-opacity:0.7610063;fill-rule:nonzero"
       d="m 545.13631,164.59622 c -2e-5,-1.86915 0.0112,-2.64592 0.0249,-1.72613 0.0137,0.91978 0.0137,2.4491 4e-5,3.39847 -0.0137,0.94937 -0.0249,0.19682 -0.0249,-1.67234 z"
       id="path4696"
       inkscape:connector-curvature="0"
       transform="scale(0.26458333)" />
    <path
       style="fill:#665600;stroke:#665600;stroke-width:0.08496176;stroke-opacity:1;fill-opacity:0.7610063;fill-rule:nonzero"
       d="m 544.68978,173.20285 c -0.0774,-0.0774 -0.10196,-1.53077 -0.10196,-6.02188 0,-5.13598 0.0167,-5.93382 0.12637,-6.0248 0.0695,-0.0577 0.18419,-0.0827 0.25488,-0.0556 0.1118,0.0429 0.12853,0.49797 0.12853,3.49795 0,2.11726 0.0307,3.42968 0.0794,3.39955 0.0437,-0.027 1.12,-1.5968 2.39181,-3.48845 2.26535,-3.36942 2.51561,-3.68089 2.65841,-3.30875 0.0317,0.0827 -0.60331,1.11004 -1.73002,2.79884 l -1.78014,2.66822 1.78194,3.1831 c 1.69374,3.02554 1.88874,3.45373 1.57292,3.45373 -0.18191,0 -0.32546,-0.23132 -1.87176,-3.01615 -0.83029,-1.49532 -1.57453,-2.82522 -1.65385,-2.95532 l -0.14422,-0.23655 -0.65226,0.97935 -0.65225,0.97935 v 2.07309 c 0,1.812 -0.0169,2.07958 -0.1344,2.12465 -0.17111,0.0657 -0.15428,0.0688 -0.27342,-0.0504 z"
       id="path4698"
       inkscape:connector-curvature="0"
       transform="scale(0.26458333)" />
    <path
       style="fill:#665600;stroke:#665600;stroke-width:0.08496176;stroke-opacity:1;fill-opacity:0.7610063;fill-rule:nonzero"
       d="m 532.32501,173.24816 c -0.0708,-0.0708 -0.0757,-10.58493 -0.005,-10.76903 0.0284,-0.0739 0.11928,-0.13439 0.20203,-0.13439 0.11925,0 0.52509,0.92969 1.95639,4.48173 0.99326,2.46495 1.84861,4.59643 1.90077,4.73662 0.0726,0.19501 0.10482,-0.84062 0.13733,-4.40878 0.0396,-4.35154 0.0526,-4.66996 0.19358,-4.75786 0.117,-0.0729 0.16944,-0.0654 0.23234,0.0333 0.0889,0.13944 0.12006,10.51196 0.0323,10.74071 -0.0284,0.0739 -0.11933,0.1344 -0.20215,0.1344 -0.1186,0 -0.42557,-0.68112 -1.44552,-3.20731 -0.71222,-1.76402 -1.57581,-3.8955 -1.91909,-4.73662 l -0.62415,-1.52931 -0.003,4.60223 c -0.002,2.53122 -0.026,4.6627 -0.0544,4.73661 -0.052,0.13542 -0.29654,0.18278 -0.40156,0.0778 z"
       id="path4700"
       inkscape:connector-curvature="0"
       transform="scale(0.26458333)" />
    <path
       style="fill:#665600;stroke:#665600;stroke-width:0.08496176;stroke-opacity:1;fill-opacity:0.7610063;fill-rule:nonzero"
       d="m 526.52258,173.17968 c -0.0561,-0.14621 2.15172,-9.73369 2.26925,-9.85424 0.0502,-0.0515 0.12124,-0.036 0.19382,0.0425 0.13811,0.14929 2.37705,9.65405 2.31325,9.82028 -0.0708,0.18442 -0.29723,0.13571 -0.34666,-0.0746 -0.31845,-1.35469 -0.63619,-2.75322 -0.63698,-2.80374 -5.6e-4,-0.035 -0.63185,-0.0637 -1.40288,-0.0637 -0.77103,0 -1.40187,0.0167 -1.40187,0.0372 0,0.12693 -0.61018,2.67409 -0.678,2.83026 -0.095,0.21869 -0.23953,0.2495 -0.30993,0.066 z m 3.59127,-3.54947 c -0.0277,-0.10514 -0.30685,-1.29091 -0.62041,-2.63505 -0.31356,-1.34413 -0.59584,-2.41465 -0.6273,-2.37893 -0.0595,0.0676 -1.18634,4.91237 -1.18594,5.09894 1.8e-4,0.0801 0.30537,0.1062 1.24209,0.1062 h 1.24185 z"
       id="path4702"
       inkscape:connector-curvature="0"
       transform="scale(0.26458333)" />
    <path
       style="fill:#665600;stroke:#665600;stroke-width:0.08496176;stroke-opacity:1;fill-opacity:0.7610063;fill-rule:nonzero"
       d="m 525.33878,168.63191 c 0,-1.28505 0.0118,-1.81075 0.0262,-1.16823 0.0144,0.64253 0.0144,1.69393 0,2.33645 -0.0144,0.64253 -0.0262,0.11682 -0.0262,-1.16822 z"
       id="path4704"
       inkscape:connector-curvature="0"
       transform="scale(0.26458333)" />
    <path
       style="fill:#665600;stroke:#665600;stroke-width:0.08496176;stroke-opacity:1;fill-opacity:0.7610063;fill-rule:nonzero"
       d="m 517.86383,173.14511 c -0.18885,-0.0858 -0.44363,-0.27514 -0.56619,-0.42079 -0.4312,-0.51246 -0.44983,-0.6749 -0.44983,-3.92249 0,-3.00183 9.5e-4,-3.01808 0.20145,-3.42532 0.29465,-0.59845 0.72457,-0.85508 1.49788,-0.89413 0.49015,-0.0248 0.67754,0.004 0.95279,0.14399 0.65262,0.33294 0.94271,0.86787 0.98245,1.81165 0.0148,0.35117 -0.0102,0.45197 -0.11775,0.4742 -0.10986,0.0227 -0.14577,-0.0737 -0.18384,-0.4935 -0.0964,-1.06364 -0.61042,-1.61617 -1.50988,-1.62314 -0.6578,-0.005 -1.03702,0.20168 -1.32598,0.72301 l -0.24224,0.43702 v 2.80374 c 0,3.09003 0.0392,3.40147 0.48578,3.85823 0.64864,0.66344 1.87843,0.50861 2.30202,-0.28983 0.14964,-0.28206 0.18582,-0.52356 0.21278,-1.42015 l 0.0325,-1.08031 -0.92079,-0.0242 c -0.79807,-0.021 -0.92458,-0.044 -0.94927,-0.17288 -0.026,-0.1357 0.0722,-0.14868 1.12474,-0.14868 h 1.15321 v 1.0466 c 0,1.18382 -0.12918,1.76464 -0.48711,2.19 -0.31156,0.37028 -0.81575,0.58294 -1.38204,0.58294 -0.27202,0 -0.61078,-0.0652 -0.81066,-0.15596 z"
       id="path4706"
       inkscape:connector-curvature="0"
       transform="scale(0.26458333)" />
    <path
       style="fill:#665600;stroke:#665600;stroke-width:0.08496176;stroke-opacity:1;fill-opacity:0.7610063;fill-rule:nonzero"
       d="m 521.94249,168.58943 c -2e-5,-2.38318 0.0109,-3.37035 0.0242,-2.19371 0.0133,1.17664 0.0133,3.12652 3e-5,4.33305 -0.0133,1.20654 -0.0242,0.24383 -0.0242,-2.13934 z"
       id="path4708"
       inkscape:connector-curvature="0"
       transform="scale(0.26458333)" />
    <path
       style="fill:#665600;stroke:#665600;stroke-width:0.08496176;stroke-opacity:1;fill-opacity:0.7610063;fill-rule:nonzero"
       d="m 521.5837,168.61883 0.022,-4.7023 0.84961,-0.0272 c 0.46729,-0.015 1.05275,0.017 1.30102,0.071 0.78658,0.17118 1.26982,0.74922 1.45251,1.73747 0.11583,0.62658 0.12234,5.08349 0.008,5.77906 -0.12276,0.74965 -0.40042,1.22662 -0.89058,1.52983 -0.39893,0.24678 -0.45405,0.25666 -1.5891,0.28505 l -1.17584,0.0294 z m 2.55222,4.10346 c 0.17669,-0.10959 0.40608,-0.3579 0.50977,-0.55179 0.18309,-0.34237 0.18925,-0.43995 0.21376,-3.38725 0.027,-3.24326 2e-4,-3.52501 -0.37744,-3.97381 -0.35869,-0.42629 -0.65295,-0.52832 -1.6615,-0.57612 l -0.91748,-0.0435 v 4.39674 4.39673 l 0.95582,-0.0309 c 0.82248,-0.0266 1.00064,-0.0587 1.27707,-0.23014 z"
       id="path4710"
       inkscape:connector-curvature="0"
       transform="scale(0.26458333)" />
    <path
       style="fill:#665600;stroke:#665600;stroke-width:0.08496176;stroke-opacity:1;fill-opacity:0.7610063;fill-rule:nonzero"
       d="m 565.54904,167.46488 c 0.24362,-0.0171 0.66418,-0.0173 0.93458,-3.5e-4 0.2704,0.0169 0.0711,0.0309 -0.44295,0.0311 -0.51402,2e-4 -0.73525,-0.0136 -0.49163,-0.0307 z"
       id="path4712"
       inkscape:connector-curvature="0"
       transform="scale(0.26458333)" />
    <path
       style="fill:#665600;stroke:#665600;stroke-width:0.08496176;stroke-opacity:1;fill-opacity:0.7610063;fill-rule:nonzero"
       d="m 564.61407,173.25175 c -0.0861,-0.0861 -0.0722,-11.94599 0.0142,-12.08229 0.0566,-0.0893 0.39374,-0.10722 1.59173,-0.0848 1.37162,0.0257 1.56139,0.0476 1.94475,0.22401 0.57298,0.26372 0.83151,0.53018 1.11636,1.15061 0.22664,0.49365 0.24003,0.5886 0.24149,1.7121 10e-4,0.92431 -0.0322,1.28595 -0.1496,1.62232 -0.43369,1.24215 -1.22809,1.6487 -3.22159,1.6487 h -1.08554 l -0.0223,2.90994 c -0.022,2.85632 -0.0256,2.9104 -0.19578,2.93477 -0.0954,0.0137 -0.20052,-0.002 -0.23364,-0.0354 z m 3.34746,-6.54625 c 0.80819,-0.36627 1.13262,-1.17469 1.08055,-2.69251 -0.0693,-2.02022 -0.74868,-2.5707 -3.08637,-2.5008 l -0.84962,0.0254 -0.0224,2.70683 -0.0225,2.70682 1.25439,-0.0341 c 1.0417,-0.0284 1.32078,-0.0642 1.64594,-0.2116 z"
       id="path4714"
       inkscape:connector-curvature="0"
       transform="scale(0.26458333)" />
    <path
       style="fill:#665600;stroke:#665600;stroke-width:0.08496176;stroke-opacity:1;fill-opacity:0.7610063;fill-rule:nonzero"
       d="m 571.30422,167.18756 c 0,-1.70561 0.0113,-2.40336 0.0252,-1.55055 0.0139,0.8528 0.0139,2.2483 0,3.1011 -0.0139,0.8528 -0.0252,0.15506 -0.0252,-1.55055 z"
       id="path4716"
       inkscape:connector-curvature="0"
       transform="scale(0.26458333)" />
    <path
       style="fill:#665600;stroke:#665600;stroke-width:0.08496176;stroke-opacity:1;fill-opacity:0.7610063;fill-rule:nonzero"
       d="m 572.53024,173.19253 c -0.77966,-0.29135 -1.19899,-0.72825 -1.53313,-1.59736 -0.16919,-0.44008 -0.17512,-0.59987 -0.16109,-4.34383 0.0156,-4.17093 0.0344,-4.3794 0.45826,-5.10274 0.41783,-0.71299 1.11178,-1.07829 2.04836,-1.07829 1.60919,0 2.4323,0.86835 2.60663,2.74989 0.0461,0.49735 0.0718,2.34739 0.0571,4.11118 -0.0258,3.1066 -0.0327,3.2219 -0.21985,3.68649 -0.46131,1.14507 -1.09643,1.60974 -2.26925,1.66025 -0.43197,0.0186 -0.79172,-0.0126 -0.98707,-0.0856 z m 2.0418,-0.67981 c 0.83786,-0.5548 0.97675,-1.4686 0.91913,-6.04734 -0.0326,-2.5935 -0.0609,-3.12968 -0.18598,-3.52591 -0.32395,-1.02636 -0.88247,-1.39542 -2.03767,-1.34646 -0.87181,0.0369 -1.292,0.27561 -1.61806,0.91907 -0.32585,0.64302 -0.38027,1.31218 -0.38027,4.67548 0,3.35531 0.0547,4.03295 0.37669,4.66841 0.36514,0.72059 0.81345,0.94445 1.83536,0.91651 0.63876,-0.0175 0.77325,-0.0495 1.0908,-0.25976 z"
       id="path4718"
       inkscape:connector-curvature="0"
       transform="scale(0.26458333)" />
    <path
       style="fill:#665600;stroke:#665600;stroke-width:0.08496176;stroke-opacity:1;fill-opacity:0.7610063;fill-rule:nonzero"
       d="m 577.59303,167.35748 c 0,-3.01402 0.0106,-4.24702 0.0236,-2.74002 0.013,1.50701 0.013,3.97303 0,5.48004 -0.013,1.50701 -0.0236,0.274 -0.0236,-2.74002 z"
       id="path4720"
       inkscape:connector-curvature="0"
       transform="scale(0.26458333)" />
    <path
       style="fill:#665600;stroke:#665600;stroke-width:0.08496176;stroke-opacity:1;fill-opacity:0.7610063;fill-rule:nonzero"
       d="m 577.09479,173.17041 c -0.0284,-0.0739 -0.0516,-2.6282 -0.0516,-5.6762 0,-4.60044 0.0201,-5.56927 0.11825,-5.70352 0.10047,-0.1374 0.13879,-0.14466 0.25488,-0.0483 0.12297,0.10206 0.13664,0.66454 0.13664,5.62392 v 5.51052 l 1.93288,0.0228 c 1.93193,0.0228 1.93289,0.0229 1.96003,0.214 l 0.0271,0.19117 h -2.16334 c -1.89431,0 -2.16976,-0.0167 -2.21492,-0.1344 z"
       id="path4722"
       inkscape:connector-curvature="0"
       transform="scale(0.26458333)" />
    <path
       style="fill:#665600;stroke:#665600;stroke-width:0.08496176;stroke-opacity:1;fill-opacity:0.7610063;fill-rule:nonzero"
       d="m 582.33177,173.1111 c 0,-0.15344 1.79043,-8.00568 2.17273,-9.52891 0.0696,-0.27713 0.35436,-0.29532 0.41863,-0.0267 1.03388,4.32091 2.22248,9.55609 2.18928,9.64263 -0.0243,0.0633 -0.10552,0.10326 -0.18052,0.0888 -0.10234,-0.0197 -0.22195,-0.39686 -0.47959,-1.51224 l -0.34323,-1.48599 -1.37504,-0.0233 -1.37505,-0.0233 -0.0804,0.32069 c -0.0442,0.17638 -0.20846,0.85595 -0.36493,1.51016 -0.22202,0.92828 -0.31713,1.1955 -0.43317,1.21693 -0.1083,0.02 -0.14868,-0.0285 -0.14868,-0.17869 z m 3.62412,-3.48089 c -0.0262,-0.10514 -0.30125,-1.2808 -0.6112,-2.61258 -0.30994,-1.33177 -0.57848,-2.43644 -0.59676,-2.45481 -0.0183,-0.0184 -0.051,0.0199 -0.0726,0.085 -0.0696,0.20894 -1.15407,4.98271 -1.15407,5.07991 0,0.064 0.3934,0.0937 1.24116,0.0937 h 1.24116 z"
       id="path4724"
       inkscape:connector-curvature="0"
       transform="scale(0.26458333)" />
    <path
       style="fill:#665600;stroke:#665600;stroke-width:0.08496176;stroke-opacity:1;fill-opacity:0.7610063;fill-rule:nonzero"
       d="m 588.10917,168.63692 c 0,-4.71269 0.0158,-4.96079 0.29764,-4.66672 0.0613,0.0639 0.83182,1.9113 1.71232,4.10525 l 1.60091,3.98899 0.0221,-4.02698 c 0.0218,-3.98413 0.0418,-4.2652 0.29246,-4.11031 0.0373,0.023 0.0678,2.14524 0.0678,4.716 0,4.27783 -0.0118,4.67179 -0.13869,4.64664 -0.0959,-0.019 -0.63918,-1.267 -1.76296,-4.05016 l -1.62426,-4.0227 -0.0446,4.0227 c -0.0245,2.21248 -0.0532,4.03225 -0.0637,4.04393 -0.0105,0.0117 -0.0956,0.0213 -0.18908,0.0213 -0.16786,0 -0.16992,-0.0566 -0.16992,-4.66789 z"
       id="path4726"
       inkscape:connector-curvature="0"
       transform="scale(0.26458333)" />
    <path
       style="fill:#665600;fill-opacity:0.7610063;fill-rule:nonzero;stroke:#665600;stroke-width:0.02247947;stroke-opacity:1"
       d="m 157.04613,44.769964 0.006,-1.163312 0.24727,-0.0069 c 0.29123,-0.0082 0.38736,0.01503 0.50585,0.122068 0.15761,0.142393 0.16854,0.20851 0.16854,1.020088 0,0.784746 -0.0121,0.880364 -0.1291,1.022331 -0.1134,0.13757 -0.20885,0.168013 -0.52863,0.168587 l -0.27557,5.3e-4 z m 0.61491,1.030597 c 0.0567,-0.02577 0.11281,-0.07517 0.14612,-0.128762 l 0.0541,-0.08695 v -0.820502 c 0,-0.787416 -0.002,-0.823672 -0.0462,-0.899165 -0.0803,-0.136676 -0.18747,-0.179052 -0.45396,-0.179478 l -0.23041,-2.64e-4 v 1.079013 1.079016 l 0.21917,-5.29e-4 c 0.16489,-2.65e-4 0.24198,-0.01085 0.31124,-0.0423 z"
       id="path4728"
       inkscape:connector-curvature="0" />
    <path
       style="fill:#665600;stroke:#665600;stroke-width:0.08496176;stroke-opacity:1;fill-opacity:0.7610063;fill-rule:nonzero"
       d="m 659.56658,208.43412 c -1.53885,-0.27847 -2.59336,-0.82933 -3.17255,-1.65729 -0.74719,-1.06812 -0.78017,-1.96421 -0.19533,-5.3072 0.43604,-2.49239 0.59844,-3.02373 1.22049,-3.9932 0.89528,-1.3953 2.46244,-2.40636 4.41832,-2.85052 1.18466,-0.26902 3.54917,-0.24393 4.74798,0.0504 1.6657,0.40893 2.77372,1.41472 3.08907,2.80408 0.1459,0.64283 0.096,2.0827 -0.11476,3.30957 l -0.18972,1.1045 -4.25803,0.022 c -3.95614,0.0205 -4.2621,0.0325 -4.31553,0.16992 -0.0316,0.0814 -0.0789,0.47395 -0.10511,0.87245 -0.0415,0.63131 -0.0241,0.77056 0.13482,1.08212 0.26874,0.52676 0.7129,0.73211 1.59577,0.73775 0.63575,0.004 0.72414,-0.0168 1.06203,-0.25057 0.24669,-0.1707 0.43879,-0.40149 0.58096,-0.69801 l 0.2124,-0.44299 2.25149,0.0513 c 1.23832,0.0282 2.26052,0.0582 2.27156,0.0667 0.0752,0.0577 -0.39138,1.39449 -0.68249,1.95538 -0.40975,0.7895 -1.19897,1.62707 -1.95282,2.07244 -0.67362,0.39797 -1.75686,0.75414 -2.74789,0.90352 -1.02478,0.15446 -2.99075,0.15326 -3.85066,-0.002 z m 5.44564,-8.62124 c 0.0758,-0.52582 -0.0397,-0.99227 -0.31754,-1.28228 -0.67123,-0.70061 -1.88879,-0.63514 -2.75762,0.14828 -0.32986,0.29743 -0.8455,1.18411 -0.84567,1.4542 -5e-5,0.0846 0.41587,0.10288 1.93282,0.085 l 1.93288,-0.0228 z"
       id="path4730"
       inkscape:connector-curvature="0"
       transform="scale(0.26458333)" />
    <path
       style="fill:#665600;stroke:#665600;stroke-width:0.08496176;stroke-opacity:1;fill-opacity:0.7610063;fill-rule:nonzero"
       d="m 643.12191,216.2527 c -2.13488,-0.40341 -3.25865,-1.35488 -3.54033,-2.99752 -0.27903,-1.62719 0.61369,-3.24695 2.46451,-4.4716 l 0.6234,-0.4125 -0.51357,-0.24649 c -0.6684,-0.3208 -1.24937,-0.91046 -1.57591,-1.59949 -0.25509,-0.53827 -0.26167,-0.58312 -0.25531,-1.74196 0.005,-0.9355 0.0649,-1.52507 0.27997,-2.76126 0.56979,-3.27516 0.70339,-3.72842 1.43996,-4.8853 1.26027,-1.97944 3.3124,-2.9182 5.85499,-2.67843 1.31136,0.12367 1.99182,0.37916 2.6719,1.00321 l 0.22785,0.20909 0.0549,-0.32896 c 0.0302,-0.18092 0.0698,-0.37674 0.0881,-0.43516 0.0254,-0.0811 0.51621,-0.1062 2.07656,-0.1062 h 2.04337 l -0.0433,0.19117 c -0.0238,0.10514 -0.61627,3.44095 -1.31655,7.41291 -0.70028,3.97196 -1.33344,7.42411 -1.40702,7.67144 -0.66842,2.24662 -2.39253,4.47507 -4.1694,5.38899 -1.0118,0.52043 -1.73726,0.73042 -2.8696,0.83067 -1.16536,0.10316 -1.38639,0.0987 -2.13448,-0.0426 z m 3.10899,-4.06075 c 0.47436,-0.24737 0.9942,-0.99681 1.25585,-1.81056 0.20025,-0.62277 0.61987,-2.85007 0.55018,-2.92026 -0.061,-0.0614 -1.26617,0.57751 -1.94307,1.03006 -0.7285,0.48705 -1.51779,1.29852 -1.74064,1.78954 -0.10242,0.22568 -0.16626,0.55416 -0.16742,0.86143 -0.003,0.85135 0.36957,1.23887 1.19548,1.2428 0.33385,0.002 0.58652,-0.0558 0.84962,-0.19301 z m 1.69657,-7.80148 c 0.73851,-0.3177 0.75182,-0.35035 1.21853,-2.988 0.4112,-2.32397 0.41451,-2.35689 0.25488,-2.53631 -0.59363,-0.66727 -2.21351,-0.65874 -3.02926,0.016 -0.55935,0.46263 -0.73001,0.86929 -1.00397,2.3925 -0.2963,1.64733 -0.31435,2.21107 -0.0829,2.59058 0.45724,0.74989 1.59497,0.97603 2.64277,0.52528 z"
       id="path4732"
       inkscape:connector-curvature="0"
       transform="scale(0.26458333)" />
    <path
       style="fill:#665600;stroke:#665600;stroke-width:0.08496176;stroke-opacity:1;fill-opacity:0.7610063;fill-rule:nonzero"
       d="m 626.27473,208.43436 c -1.08558,-0.23573 -1.93419,-0.75804 -2.37809,-1.46371 -0.45041,-0.71601 -0.56818,-1.21757 -0.5635,-2.39991 0.004,-0.89167 0.0683,-1.40731 0.40355,-3.21455 0.53569,-2.88745 0.73866,-3.45541 1.68608,-4.71801 0.519,-0.69166 1.16524,-1.22011 1.98122,-1.62013 0.94536,-0.46345 1.54077,-0.58649 2.80373,-0.57939 1.6074,0.009 2.51321,0.25456 3.21617,0.87176 0.15933,0.1399 0.30899,0.25437 0.33256,0.25437 0.0236,0 0.0687,-0.17205 0.10019,-0.38233 l 0.0573,-0.38233 h 2.07636 c 1.142,0 2.07636,0.0298 2.07636,0.0663 0,0.0364 -0.34382,1.99587 -0.76405,4.35429 -0.42023,2.35841 -0.76433,4.44536 -0.76466,4.63765 -4.2e-4,0.22985 0.062,0.42921 0.18211,0.58191 0.17599,0.22374 0.20643,0.23093 0.82837,0.19546 0.35512,-0.0203 0.71718,-0.0681 0.80458,-0.1064 0.15251,-0.0668 0.15665,-0.0203 0.10272,1.15415 -0.0853,1.85854 -0.0766,1.82647 -0.58881,2.15217 -0.88798,0.56458 -1.33098,0.68032 -2.604,0.68032 -1.00166,0 -1.21157,-0.0252 -1.65675,-0.19923 -0.70367,-0.27501 -1.33755,-0.92245 -1.49159,-1.5235 -0.0618,-0.24106 -0.13378,-0.43745 -0.15999,-0.43642 -0.0262,0.001 -0.16236,0.17668 -0.30255,0.39033 -0.49219,0.75014 -1.48828,1.42555 -2.48222,1.68311 -0.6366,0.16496 -2.14454,0.1671 -2.89512,0.004 z m 4.77581,-4.03927 c 0.71368,-0.33547 0.73137,-0.37984 1.19442,-2.99561 l 0.41618,-2.35104 -0.23662,-0.24698 c -0.40525,-0.42298 -1.4955,-0.56707 -2.27672,-0.30088 -0.49447,0.16849 -1.04247,0.63694 -1.27248,1.08778 -0.19713,0.38638 -0.66386,2.89095 -0.66407,3.56349 -3e-4,0.96248 0.76396,1.54313 1.92542,1.46285 0.28803,-0.0199 0.69927,-0.11874 0.91387,-0.21961 z"
       id="path4734"
       inkscape:connector-curvature="0"
       transform="scale(0.26458333)" />
    <path
       style="fill:#665600;stroke:#665600;stroke-width:0.08496176;stroke-opacity:1;fill-opacity:0.7610063;fill-rule:nonzero"
       d="m 551.96452,243.58944 c 3.09944,-0.0124 8.14617,-0.0124 11.21496,0 3.06879,0.0124 0.53289,0.0225 -5.63533,0.0225 -6.16823,-1e-5 -8.67906,-0.0101 -5.57963,-0.0225 z"
       id="path4738"
       inkscape:connector-curvature="0"
       transform="scale(0.26458333)" />
    <path
       style="fill:#665600;stroke:#665600;stroke-width:0.08496176;stroke-opacity:1;fill-opacity:0.7610063;fill-rule:nonzero"
       d="m 546.45664,243.35578 v -0.2124 h 11.08751 11.08751 v 0.2124 0.21241 h -11.08751 -11.08751 z"
       id="path4740"
       inkscape:connector-curvature="0"
       transform="scale(0.26458333)" />
    <path
       style="fill:#665600;stroke:#665600;stroke-width:0.08496176;stroke-opacity:1;fill-opacity:0.7610063;fill-rule:nonzero"
       d="m 538.55519,239.95731 v -0.2124 h 18.98896 18.98895 v 0.2124 0.21241 h -18.98895 -18.98896 z"
       id="path4742"
       inkscape:connector-curvature="0"
       transform="scale(0.26458333)" />
    <path
       style="fill:#665600;stroke:#665600;stroke-width:0.08496176;stroke-opacity:1;fill-opacity:0.7610063;fill-rule:nonzero"
       d="m 543.89343,236.87745 c 7.53883,-0.012 19.84979,-0.012 27.35769,0 7.50789,0.012 1.33975,0.0218 -13.70697,0.0218 -15.04673,0 -21.18956,-0.01 -13.65072,-0.0218 z"
       id="path4744"
       inkscape:connector-curvature="0"
       transform="scale(0.26458333)" />
    <path
       style="fill:#665600;stroke:#665600;stroke-width:0.08496176;stroke-opacity:1;fill-opacity:0.7610063;fill-rule:nonzero"
       d="m 530.22894,236.6438 v -0.2124 h 27.31521 27.3152 v 0.2124 0.21241 h -27.3152 -27.31521 z"
       id="path4746"
       inkscape:connector-curvature="0"
       transform="scale(0.26458333)" />
    <path
       style="fill:#665600;stroke:#665600;stroke-width:0.08496176;stroke-opacity:1;fill-opacity:0.7610063;fill-rule:nonzero"
       d="m 557.60687,228.72112 c 0.0184,-2.72915 0.0423,-3.29227 0.13929,-3.29227 0.077,0 0.48275,1.02477 1.18582,2.9949 0.58782,1.6472 1.08953,2.99426 1.11489,2.99348 0.0254,-7.9e-4 0.52404,-1.33892 1.10815,-2.97362 0.84659,-2.36929 1.09218,-2.97221 1.21071,-2.97224 0.13903,-4e-5 0.14868,0.21235 0.14868,3.27099 0,3.21439 -0.003,3.27103 -0.16992,3.27103 -0.16631,0 -0.16998,-0.0575 -0.17251,-2.69754 -10e-4,-1.56026 -0.0336,-2.64381 -0.0761,-2.57009 -0.0404,0.0701 -0.48507,1.28398 -0.98812,2.69753 -0.70694,1.98651 -0.94702,2.5701 -1.05728,2.5701 -0.11026,0 -0.35034,-0.58359 -1.05729,-2.5701 -0.50305,-1.41355 -0.9477,-2.62744 -0.98811,-2.69753 -0.0425,-0.0737 -0.0746,1.00983 -0.0761,2.57009 -0.003,2.64529 -0.006,2.69754 -0.17351,2.69754 -0.16869,0 -0.17063,-0.0429 -0.14868,-3.29227 z"
       id="path4748"
       inkscape:connector-curvature="0"
       transform="scale(0.26458333)" />
    <path
       style="fill:#665600;stroke:#665600;stroke-width:0.08496176;stroke-opacity:1;fill-opacity:0.7610063;fill-rule:nonzero"
       d="m 563.87985,231.43989 c 1.63102,-5.70402 1.80309,-6.22682 1.98846,-6.04145 0.048,0.048 1.82877,6.38865 1.82877,6.51154 0,0.0569 -0.0512,0.10341 -0.11369,0.10341 -0.0729,0 -0.2151,-0.36615 -0.39672,-1.02185 l -0.28304,-1.02184 -1.14504,0.0235 -1.14504,0.0236 -0.12074,0.4248 c -0.42519,1.49594 -0.45495,1.5718 -0.61661,1.5718 -0.15677,0 -0.15669,-0.0127 0.004,-0.5735 z m 2.86037,-1.82667 c -0.0222,-0.0584 -0.24099,-0.81351 -0.48609,-1.678 -0.2451,-0.86448 -0.47465,-1.62528 -0.51011,-1.69067 -0.0765,-0.141 -0.0983,-0.0772 -0.63635,1.8606 -0.21408,0.77102 -0.40603,1.44966 -0.42656,1.50807 -0.0286,0.0813 0.2131,0.1062 1.03112,0.1062 0.81969,0 1.05903,-0.0247 1.02799,-0.1062 z"
       id="path4750"
       inkscape:connector-curvature="0"
       transform="scale(0.26458333)" />
    <path
       style="fill:#665600;stroke:#665600;stroke-width:0.08496176;stroke-opacity:1;fill-opacity:0.7610063;fill-rule:nonzero"
       d="m 568.71662,228.69988 c 0,-2.87426 0.0167,-3.31351 0.1262,-3.31351 0.0814,0 0.62943,1.02604 1.54297,2.8887 0.77921,1.58878 1.44885,2.8887 1.48807,2.8887 0.0392,0 0.0713,-1.29992 0.0713,-2.8887 0,-2.51109 0.0167,-2.8887 0.12744,-2.8887 0.1111,0 0.12744,0.42481 0.12744,3.31351 0,2.89061 -0.0163,3.31351 -0.12761,3.31351 -0.0827,0 -0.62863,-1.00258 -1.54996,-2.84622 -0.78229,-1.56542 -1.45129,-2.84622 -1.48667,-2.84622 -0.0354,0 -0.0643,1.2808 -0.0643,2.84622 0,2.47333 -0.0167,2.84622 -0.12744,2.84622 -0.1111,0 -0.12744,-0.42481 -0.12744,-3.31351 z"
       id="path4752"
       inkscape:connector-curvature="0"
       transform="scale(0.26458333)" />
  </g>
</svg>
